%TF.GenerationSoftware,KiCad,Pcbnew,10.0.5*%
%TF.CreationDate,2026-07-26T12:52:10-07:00*%
%TF.ProjectId,1v2boost,31763262-6f6f-4737-942e-6b696361645f,rev?*%
%TF.SameCoordinates,Original*%
%TF.FileFunction,Copper,L1,Top*%
%TF.FilePolarity,Positive*%
%FSLAX46Y46*%
G04 Gerber Fmt 4.6, Leading zero omitted, Abs format (unit mm)*
G04 Created by KiCad (PCBNEW 10.0.5) date 2026-07-26 12:52:10*
%MOMM*%
%LPD*%
G01*
G04 APERTURE LIST*
G04 Aperture macros list*
%AMRoundRect*
0 Rectangle with rounded corners*
0 $1 Rounding radius*
0 $2 $3 $4 $5 $6 $7 $8 $9 X,Y pos of 4 corners*
0 Add a 4 corners polygon primitive as box body*
4,1,4,$2,$3,$4,$5,$6,$7,$8,$9,$2,$3,0*
0 Add four circle primitives for the rounded corners*
1,1,$1+$1,$2,$3*
1,1,$1+$1,$4,$5*
1,1,$1+$1,$6,$7*
1,1,$1+$1,$8,$9*
0 Add four rect primitives between the rounded corners*
20,1,$1+$1,$2,$3,$4,$5,0*
20,1,$1+$1,$4,$5,$6,$7,0*
20,1,$1+$1,$6,$7,$8,$9,0*
20,1,$1+$1,$8,$9,$2,$3,0*%
G04 Aperture macros list end*
%TA.AperFunction,SMDPad,CuDef*%
%ADD10RoundRect,0.225000X-0.250000X0.225000X-0.250000X-0.225000X0.250000X-0.225000X0.250000X0.225000X0*%
%TD*%
%TA.AperFunction,SMDPad,CuDef*%
%ADD11RoundRect,0.225000X-0.225000X-0.250000X0.225000X-0.250000X0.225000X0.250000X-0.225000X0.250000X0*%
%TD*%
%TA.AperFunction,SMDPad,CuDef*%
%ADD12RoundRect,0.225000X0.225000X0.250000X-0.225000X0.250000X-0.225000X-0.250000X0.225000X-0.250000X0*%
%TD*%
%TA.AperFunction,SMDPad,CuDef*%
%ADD13RoundRect,0.180000X0.720000X1.520000X-0.720000X1.520000X-0.720000X-1.520000X0.720000X-1.520000X0*%
%TD*%
%TA.AperFunction,SMDPad,CuDef*%
%ADD14R,0.900000X0.400000*%
%TD*%
%TA.AperFunction,ComponentPad*%
%ADD15R,1.700000X1.700000*%
%TD*%
%TA.AperFunction,ComponentPad*%
%ADD16C,1.700000*%
%TD*%
%TA.AperFunction,SMDPad,CuDef*%
%ADD17RoundRect,0.800000X-6.200000X-4.200000X6.200000X-4.200000X6.200000X4.200000X-6.200000X4.200000X0*%
%TD*%
%TA.AperFunction,SMDPad,CuDef*%
%ADD18RoundRect,0.750000X-0.000010X-0.000010X0.000010X-0.000010X0.000010X0.000010X-0.000010X0.000010X0*%
%TD*%
%TA.AperFunction,SMDPad,CuDef*%
%ADD19RoundRect,0.375000X-0.375000X-0.975000X0.375000X-0.975000X0.375000X0.975000X-0.375000X0.975000X0*%
%TD*%
%TA.AperFunction,SMDPad,CuDef*%
%ADD20RoundRect,0.400000X-0.475000X0.400000X-0.475000X-0.400000X0.475000X-0.400000X0.475000X0.400000X0*%
%TD*%
%TA.AperFunction,SMDPad,CuDef*%
%ADD21RoundRect,0.225000X0.250000X-0.225000X0.250000X0.225000X-0.250000X0.225000X-0.250000X-0.225000X0*%
%TD*%
%TA.AperFunction,SMDPad,CuDef*%
%ADD22RoundRect,0.262500X0.462500X-0.262500X0.462500X0.262500X-0.462500X0.262500X-0.462500X-0.262500X0*%
%TD*%
%TA.AperFunction,SMDPad,CuDef*%
%ADD23RoundRect,0.375000X-0.975000X0.375000X-0.975000X-0.375000X0.975000X-0.375000X0.975000X0.375000X0*%
%TD*%
%TA.AperFunction,SMDPad,CuDef*%
%ADD24RoundRect,0.162500X0.387500X-0.162500X0.387500X0.162500X-0.387500X0.162500X-0.387500X-0.162500X0*%
%TD*%
%TA.AperFunction,ComponentPad*%
%ADD25R,1.800000X1.800000*%
%TD*%
%TA.AperFunction,ComponentPad*%
%ADD26C,1.800000*%
%TD*%
%TA.AperFunction,SMDPad,CuDef*%
%ADD27RoundRect,0.480000X-3.520000X-2.520000X3.520000X-2.520000X3.520000X2.520000X-3.520000X2.520000X0*%
%TD*%
%TA.AperFunction,SMDPad,CuDef*%
%ADD28RoundRect,0.375000X0.375000X0.975000X-0.375000X0.975000X-0.375000X-0.975000X0.375000X-0.975000X0*%
%TD*%
%TA.AperFunction,SMDPad,CuDef*%
%ADD29RoundRect,0.262500X-0.262500X-0.462500X0.262500X-0.462500X0.262500X0.462500X-0.262500X0.462500X0*%
%TD*%
%TA.AperFunction,SMDPad,CuDef*%
%ADD30RoundRect,0.162500X0.162500X0.387500X-0.162500X0.387500X-0.162500X-0.387500X0.162500X-0.387500X0*%
%TD*%
%TA.AperFunction,SMDPad,CuDef*%
%ADD31RoundRect,0.262500X-0.462500X0.262500X-0.462500X-0.262500X0.462500X-0.262500X0.462500X0.262500X0*%
%TD*%
%TA.AperFunction,SMDPad,CuDef*%
%ADD32RoundRect,1.000000X-1.000000X-1.500000X1.000000X-1.500000X1.000000X1.500000X-1.000000X1.500000X0*%
%TD*%
%TA.AperFunction,SMDPad,CuDef*%
%ADD33RoundRect,1.000000X-1.000000X-1.000000X1.000000X-1.000000X1.000000X1.000000X-1.000000X1.000000X0*%
%TD*%
%TA.AperFunction,SMDPad,CuDef*%
%ADD34RoundRect,0.075000X0.075000X-0.650000X0.075000X0.650000X-0.075000X0.650000X-0.075000X-0.650000X0*%
%TD*%
%TA.AperFunction,SMDPad,CuDef*%
%ADD35RoundRect,0.225000X0.225000X0.375000X-0.225000X0.375000X-0.225000X-0.375000X0.225000X-0.375000X0*%
%TD*%
%TA.AperFunction,ViaPad*%
%ADD36C,1.200000*%
%TD*%
%TA.AperFunction,ViaPad*%
%ADD37C,0.800000*%
%TD*%
%TA.AperFunction,Conductor*%
%ADD38C,0.500000*%
%TD*%
%TA.AperFunction,Conductor*%
%ADD39C,0.300000*%
%TD*%
%TA.AperFunction,Conductor*%
%ADD40C,1.000000*%
%TD*%
%TA.AperFunction,Conductor*%
%ADD41C,1.200000*%
%TD*%
%TA.AperFunction,Conductor*%
%ADD42C,2.000000*%
%TD*%
G04 APERTURE END LIST*
D10*
%TO.P,R19,1*%
%TO.N,Net-(D5-A)*%
X107712500Y-53212500D03*
%TO.P,R19,2*%
%TO.N,VOUT*%
X107712500Y-54787500D03*
%TD*%
%TO.P,D5,2,A_2*%
%TO.N,Net-(D5-A)*%
X107712500Y-51800000D03*
%TO.P,D5,1,K_1*%
%TO.N,PGND*%
X107712500Y-50225000D03*
%TD*%
D11*
%TO.P,R18,1*%
%TO.N,Net-(D2-A)*%
X77212500Y-79000000D03*
%TO.P,R18,2*%
%TO.N,V5C*%
X78787500Y-79000000D03*
%TD*%
D12*
%TO.P,D2,2,A_2*%
%TO.N,Net-(D2-A)*%
X77700000Y-80500000D03*
%TO.P,D2,1,K_1*%
%TO.N,/EN*%
X79275000Y-80500000D03*
%TD*%
D10*
%TO.P,R9,2*%
%TO.N,AGND*%
X93500000Y-78787500D03*
%TO.P,R9,1*%
%TO.N,/FB*%
X93500000Y-77212500D03*
%TD*%
D13*
%TO.P,R2,1,F1_1*%
%TO.N,/SRC*%
X82600000Y-59500000D03*
%TO.P,R2,2,F2_2*%
%TO.N,PGND*%
X77400000Y-59500000D03*
D14*
%TO.P,R2,3,K1_3*%
%TO.N,/ISNS_K*%
X81450000Y-59500000D03*
%TO.P,R2,4,K2_4*%
%TO.N,AGND*%
X78550000Y-59500000D03*
%TD*%
D15*
%TO.P,J5,1,1_1*%
%TO.N,VOUT*%
X111442500Y-54500000D03*
D16*
%TO.P,J5,2,2_2*%
%TO.N,PGND*%
X113982500Y-54500000D03*
%TD*%
D15*
%TO.P,J4,1,1_1*%
%TO.N,VCELL*%
X28730000Y-43500000D03*
D16*
%TO.P,J4,2,2_2*%
%TO.N,PGND*%
X31270000Y-43500000D03*
%TD*%
D17*
%TO.P,J1,2,-_2*%
%TO.N,PGND*%
X34500000Y-70500000D03*
%TO.P,J1,1,+_1*%
%TO.N,VCELL*%
X34500000Y-54500000D03*
%TD*%
D18*
%TO.P,TP12,1,1_1*%
%TO.N,V12*%
X106000000Y-70000000D03*
%TD*%
D19*
%TO.P,C20,1*%
%TO.N,VOUT*%
X112000000Y-46500000D03*
%TO.P,C20,2*%
%TO.N,PGND*%
X115000000Y-46500000D03*
%TD*%
%TO.P,C15,1*%
%TO.N,VOUT*%
X118000000Y-34500000D03*
%TO.P,C15,2*%
%TO.N,PGND*%
X121000000Y-34500000D03*
%TD*%
D20*
%TO.P,D3,1,K_1*%
%TO.N,V12*%
X109500000Y-70350000D03*
%TO.P,D3,2,A_2*%
%TO.N,/V12AUX*%
X109500000Y-74650000D03*
%TD*%
D21*
%TO.P,C31,1*%
%TO.N,V12*%
X86000000Y-71287500D03*
%TO.P,C31,2*%
%TO.N,AGND*%
X86000000Y-69712500D03*
%TD*%
%TO.P,C26,1*%
%TO.N,/BP*%
X88500000Y-70787500D03*
%TO.P,C26,2*%
%TO.N,AGND*%
X88500000Y-69212500D03*
%TD*%
D22*
%TO.P,R4,1*%
%TO.N,/OUTH*%
X97500000Y-60950000D03*
%TO.P,R4,2*%
%TO.N,/GATE*%
X97500000Y-59050000D03*
%TD*%
D19*
%TO.P,C9,1*%
%TO.N,VCELL*%
X44000000Y-58000000D03*
%TO.P,C9,2*%
%TO.N,/DAMP*%
X47000000Y-58000000D03*
%TD*%
D23*
%TO.P,R1,1*%
%TO.N,/DAMP*%
X47000000Y-61000000D03*
%TO.P,R1,2*%
%TO.N,PGND*%
X47000000Y-64000000D03*
%TD*%
D10*
%TO.P,C32,1*%
%TO.N,V5C*%
X81000000Y-76212500D03*
%TO.P,C32,2*%
%TO.N,AGND*%
X81000000Y-77787500D03*
%TD*%
%TO.P,C29,1*%
%TO.N,/ISNS*%
X92000000Y-69212500D03*
%TO.P,C29,2*%
%TO.N,AGND*%
X92000000Y-70787500D03*
%TD*%
D21*
%TO.P,R8,1*%
%TO.N,VOUT*%
X95000000Y-78787500D03*
%TO.P,R8,2*%
%TO.N,/FB*%
X95000000Y-77212500D03*
%TD*%
D19*
%TO.P,C7,1*%
%TO.N,VCELL*%
X44000000Y-53500000D03*
%TO.P,C7,2*%
%TO.N,/DAMP*%
X47000000Y-53500000D03*
%TD*%
%TO.P,C16,1*%
%TO.N,VOUT*%
X106000000Y-40500000D03*
%TO.P,C16,2*%
%TO.N,PGND*%
X109000000Y-40500000D03*
%TD*%
D10*
%TO.P,R11,1*%
%TO.N,/ISNS_K*%
X81500000Y-65712500D03*
%TO.P,R11,2*%
%TO.N,/ISNS*%
X81500000Y-67287500D03*
%TD*%
D21*
%TO.P,R13,1*%
%TO.N,/CMP_REF*%
X80500000Y-70787500D03*
%TO.P,R13,2*%
%TO.N,/CMP_TH*%
X80500000Y-69212500D03*
%TD*%
D24*
%TO.P,U3,1,OUT_1*%
%TO.N,/EN*%
X82250000Y-74450000D03*
%TO.P,U3,2,V-_2*%
%TO.N,AGND*%
X82250000Y-73500000D03*
%TO.P,U3,3,IN+_3*%
%TO.N,/CMP_TH*%
X82250000Y-72550000D03*
%TO.P,U3,4,IN-_4*%
%TO.N,/CELL_S*%
X79750000Y-72550000D03*
%TO.P,U3,5,REF_5*%
%TO.N,/CMP_REF*%
X79750000Y-73500000D03*
%TO.P,U3,6,V+_6*%
%TO.N,V5C*%
X79750000Y-74450000D03*
%TD*%
D11*
%TO.P,C25,1*%
%TO.N,/SS*%
X93712500Y-74000000D03*
%TO.P,C25,2*%
%TO.N,AGND*%
X95287500Y-74000000D03*
%TD*%
D25*
%TO.P,Q1,1,G_1*%
%TO.N,/GATE*%
X87900000Y-45960000D03*
D26*
%TO.P,Q1,2,D_2*%
%TO.N,/SW*%
X87900000Y-48500000D03*
%TO.P,Q1,3,S_3*%
%TO.N,/SRC*%
X87900000Y-51040000D03*
%TD*%
D19*
%TO.P,C14,1*%
%TO.N,VOUT*%
X112000000Y-34500000D03*
%TO.P,C14,2*%
%TO.N,PGND*%
X115000000Y-34500000D03*
%TD*%
D21*
%TO.P,C28,1*%
%TO.N,/COMP*%
X99500000Y-78787500D03*
%TO.P,C28,2*%
%TO.N,/FB*%
X99500000Y-77212500D03*
%TD*%
D19*
%TO.P,C2,1*%
%TO.N,VCELL*%
X41500000Y-36500000D03*
%TO.P,C2,2*%
%TO.N,PGND*%
X44500000Y-36500000D03*
%TD*%
D15*
%TO.P,J3,1,1_1*%
%TO.N,/V12AUX*%
X109730000Y-78000000D03*
D16*
%TO.P,J3,2,2_2*%
%TO.N,AGND*%
X112270000Y-78000000D03*
%TD*%
D27*
%TO.P,J2,1,+_1*%
%TO.N,VOUT*%
X127500000Y-37750000D03*
%TO.P,J2,2,-_2*%
%TO.N,PGND*%
X127500000Y-48750000D03*
%TD*%
D21*
%TO.P,C27,1*%
%TO.N,/CZ*%
X96500000Y-78787500D03*
%TO.P,C27,2*%
%TO.N,/FB*%
X96500000Y-77212500D03*
%TD*%
D28*
%TO.P,C30,1*%
%TO.N,V12*%
X102500000Y-70500000D03*
%TO.P,C30,2*%
%TO.N,AGND*%
X99500000Y-70500000D03*
%TD*%
D23*
%TO.P,R3,1*%
%TO.N,/SW*%
X88500000Y-55500000D03*
%TO.P,R3,2*%
%TO.N,/SNUB*%
X88500000Y-58500000D03*
%TD*%
%TO.P,C12,1*%
%TO.N,/SNUB*%
X88500000Y-61000000D03*
%TO.P,C12,2*%
%TO.N,PGND*%
X88500000Y-64000000D03*
%TD*%
D18*
%TO.P,TP2,1,1_1*%
%TO.N,/ISNS*%
X84000000Y-67000000D03*
%TD*%
D10*
%TO.P,C23,1*%
%TO.N,V12*%
X100000000Y-63212500D03*
%TO.P,C23,2*%
%TO.N,PGND*%
X100000000Y-64787500D03*
%TD*%
D19*
%TO.P,C18,1*%
%TO.N,VOUT*%
X118000000Y-40500000D03*
%TO.P,C18,2*%
%TO.N,PGND*%
X121000000Y-40500000D03*
%TD*%
D21*
%TO.P,C24,2*%
%TO.N,AGND*%
X86000000Y-73712500D03*
%TO.P,C24,1*%
%TO.N,/RC*%
X86000000Y-75287500D03*
%TD*%
D29*
%TO.P,JP1,1,1_1*%
%TO.N,/EN*%
X97050000Y-75000000D03*
%TO.P,JP1,2,2_2*%
%TO.N,AGND*%
X98950000Y-75000000D03*
%TD*%
D19*
%TO.P,C5,1*%
%TO.N,VCELL*%
X41500000Y-43000000D03*
%TO.P,C5,2*%
%TO.N,PGND*%
X44500000Y-43000000D03*
%TD*%
D30*
%TO.P,U2,1,VDD_1*%
%TO.N,V12*%
X97450000Y-63250000D03*
%TO.P,U2,2,OUTH_2*%
%TO.N,/OUTH*%
X96500000Y-63250000D03*
%TO.P,U2,3,OUTL_3*%
%TO.N,/OUTL*%
X95550000Y-63250000D03*
%TO.P,U2,4,GND_4*%
%TO.N,PGND*%
X95550000Y-65750000D03*
%TO.P,U2,5,IN-_5*%
X96500000Y-65750000D03*
%TO.P,U2,6,IN+_6*%
%TO.N,/GDRV*%
X97450000Y-65750000D03*
%TD*%
D21*
%TO.P,C33,1*%
%TO.N,/CELL_S*%
X77000000Y-70787500D03*
%TO.P,C33,2*%
%TO.N,AGND*%
X77000000Y-69212500D03*
%TD*%
%TO.P,R10,1*%
%TO.N,/COMP*%
X98000000Y-80287500D03*
%TO.P,R10,2*%
%TO.N,/CZ*%
X98000000Y-78712500D03*
%TD*%
D19*
%TO.P,C6,1*%
%TO.N,VCELL*%
X47000000Y-43000000D03*
%TO.P,C6,2*%
%TO.N,PGND*%
X50000000Y-43000000D03*
%TD*%
D31*
%TO.P,C22,1*%
%TO.N,V12*%
X102000000Y-63050000D03*
%TO.P,C22,2*%
%TO.N,PGND*%
X102000000Y-64950000D03*
%TD*%
D19*
%TO.P,C13,1*%
%TO.N,VOUT*%
X106000000Y-34500000D03*
%TO.P,C13,2*%
%TO.N,PGND*%
X109000000Y-34500000D03*
%TD*%
D18*
%TO.P,TP8,1,1_1*%
%TO.N,PGND*%
X71000000Y-74500000D03*
%TD*%
D11*
%TO.P,R17,1*%
%TO.N,VCELL*%
X74712500Y-73000000D03*
%TO.P,R17,2*%
%TO.N,/CELL_S*%
X76287500Y-73000000D03*
%TD*%
D32*
%TO.P,L1,1*%
%TO.N,VCELL*%
X56750000Y-53000000D03*
%TO.P,L1,2*%
%TO.N,/SW*%
X71250000Y-53000000D03*
D33*
%TO.P,L1,3,Mech_3*%
X64000000Y-35500000D03*
%TD*%
D22*
%TO.P,R5,1*%
%TO.N,/OUTL*%
X95000000Y-60950000D03*
%TO.P,R5,2*%
%TO.N,/GATE*%
X95000000Y-59050000D03*
%TD*%
D18*
%TO.P,TP5,1,1_1*%
%TO.N,/GATE*%
X101000000Y-59500000D03*
%TD*%
D10*
%TO.P,C34,1*%
%TO.N,/CMP_REF*%
X78000000Y-73212500D03*
%TO.P,C34,2*%
%TO.N,AGND*%
X78000000Y-74787500D03*
%TD*%
D19*
%TO.P,C4,1*%
%TO.N,VCELL*%
X36000000Y-43000000D03*
%TO.P,C4,2*%
%TO.N,PGND*%
X39000000Y-43000000D03*
%TD*%
D18*
%TO.P,TP1,1,1_1*%
%TO.N,/SW*%
X98000000Y-55000000D03*
%TD*%
D34*
%TO.P,U1,1,RC_1*%
%TO.N,/RC*%
X89500000Y-77200000D03*
%TO.P,U1,2,SS_2*%
%TO.N,/SS*%
X90000000Y-77200000D03*
%TO.P,U1,3,DIS/EN_3*%
%TO.N,/EN*%
X90500000Y-77200000D03*
%TO.P,U1,4,COMP_4*%
%TO.N,/COMP*%
X91000000Y-77200000D03*
%TO.P,U1,5,FB_5*%
%TO.N,/FB*%
X91500000Y-77200000D03*
%TO.P,U1,6,GND_6*%
%TO.N,AGND*%
X91500000Y-72800000D03*
%TO.P,U1,7,ISNS_7*%
%TO.N,/ISNS*%
X91000000Y-72800000D03*
%TO.P,U1,8,GDRV_8*%
%TO.N,/GDRV*%
X90500000Y-72800000D03*
%TO.P,U1,9,BP_9*%
%TO.N,/BP*%
X90000000Y-72800000D03*
%TO.P,U1,10,VDD_10*%
%TO.N,V12*%
X89500000Y-72800000D03*
%TD*%
D25*
%TO.P,Q2,1,G_1*%
%TO.N,/GATE*%
X79400000Y-45960000D03*
D26*
%TO.P,Q2,2,D_2*%
%TO.N,/SW*%
X79400000Y-48500000D03*
%TO.P,Q2,3,S_3*%
%TO.N,/SRC*%
X79400000Y-51040000D03*
%TD*%
D11*
%TO.P,R16,1*%
%TO.N,V5C*%
X83712500Y-79000000D03*
%TO.P,R16,2*%
%TO.N,/EN*%
X85287500Y-79000000D03*
%TD*%
D19*
%TO.P,C1,1*%
%TO.N,VCELL*%
X36000000Y-36500000D03*
%TO.P,C1,2*%
%TO.N,PGND*%
X39000000Y-36500000D03*
%TD*%
%TO.P,C8,1*%
%TO.N,VCELL*%
X44000000Y-49000000D03*
%TO.P,C8,2*%
%TO.N,/DAMP*%
X47000000Y-49000000D03*
%TD*%
D10*
%TO.P,R7,1*%
%TO.N,V12*%
X87500000Y-73712500D03*
%TO.P,R7,2*%
%TO.N,/RC*%
X87500000Y-75287500D03*
%TD*%
D19*
%TO.P,C19,1*%
%TO.N,VOUT*%
X106000000Y-46500000D03*
%TO.P,C19,2*%
%TO.N,PGND*%
X109000000Y-46500000D03*
%TD*%
D35*
%TO.P,D4,1,K_1*%
%TO.N,V5C*%
X79150000Y-77000000D03*
%TO.P,D4,2,A_2*%
%TO.N,AGND*%
X75850000Y-77000000D03*
%TD*%
D18*
%TO.P,TP11,1,1_1*%
%TO.N,AGND*%
X104500000Y-80000000D03*
%TD*%
D19*
%TO.P,C3,1*%
%TO.N,VCELL*%
X47000000Y-36500000D03*
%TO.P,C3,2*%
%TO.N,PGND*%
X50000000Y-36500000D03*
%TD*%
D31*
%TO.P,R6,1*%
%TO.N,/GATE*%
X92500000Y-59050000D03*
%TO.P,R6,2*%
%TO.N,PGND*%
X92500000Y-60950000D03*
%TD*%
D25*
%TO.P,D1,1,A1_1*%
%TO.N,/SW*%
X98000000Y-40500000D03*
D26*
%TO.P,D1,2,K_2*%
%TO.N,VOUT*%
X98000000Y-43040000D03*
%TO.P,D1,3,A2_3*%
%TO.N,/SW*%
X98000000Y-45580000D03*
%TD*%
D19*
%TO.P,C17,1*%
%TO.N,VOUT*%
X112000000Y-40500000D03*
%TO.P,C17,2*%
%TO.N,PGND*%
X115000000Y-40500000D03*
%TD*%
D12*
%TO.P,R15,1*%
%TO.N,/EN*%
X87787500Y-77000000D03*
%TO.P,R15,2*%
%TO.N,/CMP_TH*%
X86212500Y-77000000D03*
%TD*%
%TO.P,R12,1*%
%TO.N,V12*%
X85287500Y-80500000D03*
%TO.P,R12,2*%
%TO.N,V5C*%
X83712500Y-80500000D03*
%TD*%
D21*
%TO.P,R14,1*%
%TO.N,/CMP_TH*%
X82500000Y-70787500D03*
%TO.P,R14,2*%
%TO.N,AGND*%
X82500000Y-69212500D03*
%TD*%
D36*
%TO.N,PGND*%
X76000000Y-62500000D03*
X75000000Y-61500000D03*
X75000000Y-60000000D03*
X49500000Y-64000000D03*
X47000000Y-66000000D03*
X82500000Y-63500000D03*
X94000000Y-66000000D03*
D37*
%TO.N,/EN*%
X83000000Y-77500000D03*
X82000000Y-80500000D03*
%TO.N,AGND*%
X106000000Y-76500000D03*
X98000000Y-70500000D03*
%TO.N,VOUT*%
X102000000Y-82000000D03*
X95000000Y-79950000D03*
%TO.N,AGND*%
X80000000Y-79000000D03*
X77000000Y-77000000D03*
X84500000Y-69500000D03*
X92500000Y-73000000D03*
%TO.N,V12*%
X87500000Y-72500000D03*
X87000000Y-79750000D03*
%TO.N,AGND*%
X93500000Y-80000000D03*
D36*
%TO.N,PGND*%
X92500000Y-62500000D03*
X91000000Y-64000000D03*
X88500000Y-65500000D03*
X86000000Y-64000000D03*
D37*
%TO.N,AGND*%
X81069975Y-73569975D03*
%TO.N,/GDRV*%
X97500000Y-67000000D03*
X90500000Y-69500000D03*
%TO.N,AGND*%
X79000000Y-69000000D03*
%TO.N,/GATE*%
X92000000Y-57500000D03*
D36*
%TO.N,PGND*%
X77500000Y-62500000D03*
X73500000Y-60000000D03*
X73500000Y-58500000D03*
X75000000Y-58500000D03*
X29500000Y-66750000D03*
X29500000Y-69250000D03*
X32000000Y-66750000D03*
X34500000Y-74250000D03*
X32000000Y-69250000D03*
X39500000Y-74250000D03*
X32000000Y-71750000D03*
X39500000Y-71750000D03*
X34500000Y-71750000D03*
X32000000Y-74250000D03*
X29500000Y-74250000D03*
X37000000Y-71750000D03*
X39500000Y-69250000D03*
X37000000Y-74250000D03*
X34500000Y-66750000D03*
X37000000Y-66750000D03*
X34500000Y-69250000D03*
X29500000Y-71750000D03*
X37000000Y-69250000D03*
X39500000Y-66750000D03*
X115000000Y-49050000D03*
X109000000Y-49050000D03*
X109000000Y-37050000D03*
X127500000Y-47500000D03*
X39000000Y-39050000D03*
X121000000Y-37050000D03*
X125000000Y-47500000D03*
X44500000Y-39050000D03*
X127500000Y-50000000D03*
X125000000Y-50000000D03*
X44500000Y-45550000D03*
X50000000Y-39050000D03*
X130000000Y-47500000D03*
X115000000Y-43050000D03*
X39000000Y-45550000D03*
X50000000Y-45550000D03*
X130000000Y-50000000D03*
X44450000Y-64000000D03*
X115000000Y-37050000D03*
X121000000Y-43050000D03*
X71000000Y-76450000D03*
X109000000Y-43050000D03*
%TD*%
%TO.N,AGND*%
D38*
X78550000Y-59550000D02*
X78550000Y-59500000D01*
X79000000Y-69000000D02*
X79000000Y-68000000D01*
X79500000Y-67500000D02*
X79500000Y-60500000D01*
X79000000Y-68000000D02*
X79500000Y-67500000D01*
X79500000Y-60500000D02*
X78550000Y-59550000D01*
%TO.N,/ISNS_K*%
X80500000Y-60150000D02*
X81150000Y-59500000D01*
X80500000Y-64712500D02*
X80500000Y-60150000D01*
X81500000Y-65712500D02*
X80500000Y-64712500D01*
%TO.N,Net-(D5-A)*%
D39*
X107712500Y-51800000D02*
X107712500Y-53212500D01*
%TO.N,/V12AUX*%
D40*
X109730000Y-78000000D02*
X109730000Y-74880000D01*
X109730000Y-74880000D02*
X109500000Y-74650000D01*
%TO.N,VCELL*%
D38*
X25500000Y-62500000D02*
X26500000Y-61500000D01*
X25500000Y-78000000D02*
X25500000Y-62500000D01*
X74000000Y-73712500D02*
X74000000Y-78000000D01*
X74712500Y-73000000D02*
X74000000Y-73712500D01*
X74000000Y-78000000D02*
X25500000Y-78000000D01*
%TO.N,PGND*%
D39*
X107825000Y-50225000D02*
X109000000Y-49050000D01*
X107712500Y-50225000D02*
X107825000Y-50225000D01*
D41*
X109000000Y-49050000D02*
X108887500Y-49050000D01*
%TO.N,/EN*%
D39*
X83000000Y-77500000D02*
X83500000Y-78000000D01*
X79275000Y-80500000D02*
X82000000Y-80500000D01*
%TO.N,Net-(D2-A)*%
X77212500Y-80012500D02*
X77700000Y-80500000D01*
X77212500Y-79000000D02*
X77212500Y-80012500D01*
%TO.N,V5C*%
X79150000Y-78637500D02*
X78787500Y-79000000D01*
X79150000Y-77000000D02*
X79150000Y-78637500D01*
%TO.N,V12*%
X87500000Y-72500000D02*
X86287500Y-71287500D01*
X87500000Y-72500000D02*
X87500000Y-73712500D01*
X86287500Y-71287500D02*
X86000000Y-71287500D01*
D38*
X102500000Y-79500000D02*
X102500000Y-70500000D01*
X100000000Y-82000000D02*
X102500000Y-79500000D01*
X88000000Y-82000000D02*
X100000000Y-82000000D01*
X88000000Y-80750000D02*
X88000000Y-82000000D01*
X87000000Y-79750000D02*
X88000000Y-80750000D01*
X86250000Y-80500000D02*
X85287500Y-80500000D01*
X87000000Y-79750000D02*
X86250000Y-80500000D01*
%TO.N,VOUT*%
D39*
X120500000Y-74500000D02*
X120500000Y-55500000D01*
X113000000Y-82000000D02*
X120500000Y-74500000D01*
X102000000Y-82000000D02*
X113000000Y-82000000D01*
X95000000Y-78787500D02*
X95000000Y-79950000D01*
%TO.N,/GATE*%
D38*
X100550000Y-59050000D02*
X101000000Y-59500000D01*
X97500000Y-59050000D02*
X100550000Y-59050000D01*
%TO.N,V12*%
D40*
X103000000Y-70000000D02*
X102500000Y-70500000D01*
X106000000Y-70000000D02*
X103000000Y-70000000D01*
X106350000Y-70350000D02*
X106000000Y-70000000D01*
X109500000Y-70350000D02*
X106350000Y-70350000D01*
%TO.N,/V12AUX*%
X109650000Y-74500000D02*
X109500000Y-74650000D01*
%TO.N,V12*%
D38*
X105000000Y-65000000D02*
X102500000Y-67500000D01*
X105000000Y-64500000D02*
X105000000Y-65000000D01*
X102500000Y-67500000D02*
X102500000Y-70500000D01*
X102000000Y-63050000D02*
X103550000Y-63050000D01*
X103550000Y-63050000D02*
X105000000Y-64500000D01*
%TO.N,V5C*%
D39*
X83712500Y-79000000D02*
X83712500Y-80500000D01*
%TO.N,/COMP*%
X97287500Y-81000000D02*
X98000000Y-80287500D01*
X91000000Y-79000000D02*
X93000000Y-81000000D01*
X93000000Y-81000000D02*
X97287500Y-81000000D01*
X91000000Y-77200000D02*
X91000000Y-79000000D01*
%TO.N,V5C*%
X83712500Y-79000000D02*
X82000000Y-79000000D01*
X82000000Y-77212500D02*
X82000000Y-79000000D01*
X81000000Y-76212500D02*
X82000000Y-77212500D01*
X80287500Y-74987500D02*
X80287500Y-76212500D01*
X79750000Y-74450000D02*
X80287500Y-74987500D01*
X80287500Y-76212500D02*
X81000000Y-76212500D01*
X79500000Y-77000000D02*
X80287500Y-76212500D01*
X79150000Y-77000000D02*
X79500000Y-77000000D01*
%TO.N,/EN*%
X87287500Y-79000000D02*
X87787500Y-78500000D01*
X85287500Y-79000000D02*
X87287500Y-79000000D01*
X83500000Y-78000000D02*
X87787500Y-78000000D01*
X82574999Y-77074999D02*
X83000000Y-77500000D01*
X87787500Y-78000000D02*
X87787500Y-77000000D01*
X82574999Y-74774999D02*
X82574999Y-77074999D01*
X82250000Y-74450000D02*
X82574999Y-74774999D01*
X87787500Y-78500000D02*
X87787500Y-78000000D01*
%TO.N,/COMP*%
X99075000Y-80000000D02*
X98787500Y-80287500D01*
X98787500Y-80287500D02*
X98000000Y-80287500D01*
X99500000Y-80000000D02*
X99075000Y-80000000D01*
X99500000Y-78787500D02*
X99500000Y-80000000D01*
%TO.N,/CZ*%
X97925000Y-78787500D02*
X98000000Y-78712500D01*
X96500000Y-78787500D02*
X97925000Y-78787500D01*
%TO.N,/FB*%
X96500000Y-77212500D02*
X99500000Y-77212500D01*
X95000000Y-77212500D02*
X96500000Y-77212500D01*
X93500000Y-77212500D02*
X95000000Y-77212500D01*
X93487500Y-77200000D02*
X93500000Y-77212500D01*
X91500000Y-77200000D02*
X93487500Y-77200000D01*
%TO.N,/EN*%
X91500000Y-75000000D02*
X97050000Y-75000000D01*
X90500000Y-76000000D02*
X91500000Y-75000000D01*
X90500000Y-77200000D02*
X90500000Y-76000000D01*
X89000000Y-77000000D02*
X87787500Y-77000000D01*
X89000000Y-78028120D02*
X89000000Y-77000000D01*
X90253120Y-78275000D02*
X89246880Y-78275000D01*
X90500000Y-78028120D02*
X90253120Y-78275000D01*
X90500000Y-77200000D02*
X90500000Y-78028120D01*
X89246880Y-78275000D02*
X89000000Y-78028120D01*
%TO.N,/CMP_TH*%
X83150000Y-76150000D02*
X84000000Y-77000000D01*
X83150000Y-73120712D02*
X83150000Y-76150000D01*
X84000000Y-77000000D02*
X86212500Y-77000000D01*
X82579288Y-72550000D02*
X83150000Y-73120712D01*
X82250000Y-72550000D02*
X82579288Y-72550000D01*
%TO.N,AGND*%
X81139950Y-73500000D02*
X81069975Y-73569975D01*
X82250000Y-73500000D02*
X81139950Y-73500000D01*
%TO.N,V12*%
X88412500Y-72800000D02*
X87500000Y-73712500D01*
X89500000Y-72800000D02*
X88412500Y-72800000D01*
%TO.N,/RC*%
X89500000Y-75500000D02*
X89500000Y-77200000D01*
X89287500Y-75287500D02*
X89500000Y-75500000D01*
X87500000Y-75287500D02*
X89287500Y-75287500D01*
X86000000Y-75287500D02*
X87500000Y-75287500D01*
%TO.N,/SS*%
X90000000Y-75000000D02*
X90000000Y-77200000D01*
X91000000Y-74000000D02*
X90000000Y-75000000D01*
X93212500Y-74000000D02*
X91000000Y-74000000D01*
%TO.N,/GDRV*%
X90500000Y-72800000D02*
X90500000Y-69500000D01*
%TO.N,/BP*%
X89500000Y-70787500D02*
X88500000Y-70787500D01*
%TO.N,/GDRV*%
X97500000Y-65800000D02*
X97450000Y-65750000D01*
X97500000Y-67000000D02*
X97500000Y-65800000D01*
%TO.N,/ISNS*%
X91000000Y-70212500D02*
X92000000Y-69212500D01*
X91000000Y-72800000D02*
X91000000Y-70212500D01*
%TO.N,/BP*%
X90000000Y-71287500D02*
X89500000Y-70787500D01*
X90000000Y-72800000D02*
X90000000Y-71287500D01*
%TO.N,/ISNS*%
D38*
X92000000Y-69212500D02*
X92287500Y-69212500D01*
X89787500Y-67000000D02*
X92000000Y-69212500D01*
X84000000Y-67000000D02*
X89787500Y-67000000D01*
%TO.N,/CMP_TH*%
D39*
X82500000Y-72300000D02*
X82250000Y-72550000D01*
X82500000Y-70787500D02*
X82500000Y-72300000D01*
X80925000Y-69212500D02*
X82500000Y-70787500D01*
X80500000Y-69212500D02*
X80925000Y-69212500D01*
%TO.N,/CMP_REF*%
X80650000Y-72929288D02*
X80650000Y-70937500D01*
X80079288Y-73500000D02*
X80650000Y-72929288D01*
X80650000Y-70937500D02*
X80500000Y-70787500D01*
X79750000Y-73500000D02*
X80079288Y-73500000D01*
X79750000Y-73500000D02*
X78287500Y-73500000D01*
X78287500Y-73500000D02*
X78000000Y-73212500D01*
%TO.N,/CELL_S*%
X77000000Y-70787500D02*
X77987500Y-70787500D01*
X77987500Y-70787500D02*
X79750000Y-72550000D01*
X76287500Y-71500000D02*
X77000000Y-70787500D01*
X76287500Y-73000000D02*
X76287500Y-71500000D01*
%TO.N,/ISNS*%
D38*
X83712500Y-67287500D02*
X84000000Y-67000000D01*
X81500000Y-67287500D02*
X83712500Y-67287500D01*
%TO.N,/SNUB*%
X88500000Y-58500000D02*
X88500000Y-61000000D01*
%TO.N,V12*%
X101837500Y-63212500D02*
X102000000Y-63050000D01*
X100000000Y-63212500D02*
X101837500Y-63212500D01*
X99962500Y-63250000D02*
X100000000Y-63212500D01*
X97450000Y-63250000D02*
X99962500Y-63250000D01*
%TO.N,/OUTH*%
X96500000Y-61950000D02*
X96500000Y-63250000D01*
X97500000Y-60950000D02*
X96500000Y-61950000D01*
%TO.N,/OUTL*%
X95000000Y-62700000D02*
X95550000Y-63250000D01*
X95000000Y-60950000D02*
X95000000Y-62700000D01*
%TO.N,/GATE*%
X97500000Y-59050000D02*
X95000000Y-59050000D01*
X95000000Y-59050000D02*
X92500000Y-59050000D01*
X92000000Y-58550000D02*
X92500000Y-59050000D01*
X92000000Y-57500000D02*
X92000000Y-58550000D01*
%TO.N,VOUT*%
D42*
X101960000Y-43040000D02*
X102000000Y-43000000D01*
X98000000Y-43040000D02*
X101960000Y-43040000D01*
%TO.N,/DAMP*%
D40*
X47000000Y-61000000D02*
X47000000Y-58500000D01*
X47000000Y-53500000D02*
X47000000Y-57500000D01*
X47000000Y-49500000D02*
X47000000Y-53500000D01*
%TO.N,PGND*%
D41*
X44500000Y-43000000D02*
X44500000Y-45550000D01*
X50000000Y-36500000D02*
X50000000Y-39050000D01*
X39000000Y-36500000D02*
X39000000Y-39050000D01*
X121000000Y-40500000D02*
X121000000Y-43050000D01*
X121000000Y-34500000D02*
X121000000Y-37050000D01*
X50000000Y-43000000D02*
X50000000Y-45550000D01*
X115000000Y-40500000D02*
X115000000Y-43050000D01*
X39000000Y-43000000D02*
X39000000Y-45550000D01*
X109000000Y-46500000D02*
X109000000Y-49050000D01*
X109000000Y-40500000D02*
X109000000Y-43050000D01*
X115000000Y-34500000D02*
X115000000Y-37050000D01*
X44500000Y-36500000D02*
X44500000Y-39050000D01*
X115000000Y-46500000D02*
X115000000Y-49050000D01*
X109000000Y-34500000D02*
X109000000Y-37050000D01*
X71000000Y-74500000D02*
X71000000Y-76450000D01*
%TD*%
%TA.AperFunction,Conductor*%
%TO.N,VOUT*%
G36*
X134425500Y-30519962D02*
G01*
X134480038Y-30574500D01*
X134500000Y-30649000D01*
X134500000Y-56851000D01*
X134480038Y-56925500D01*
X134425500Y-56980038D01*
X134351000Y-57000000D01*
X100364986Y-57000000D01*
X100290486Y-56980038D01*
X100235948Y-56925500D01*
X100215986Y-56851000D01*
X100215986Y-55187500D01*
X106967164Y-55187500D01*
X107000575Y-55272225D01*
X107000575Y-55272226D01*
X107087777Y-55387219D01*
X107087780Y-55387222D01*
X107202774Y-55474424D01*
X107312500Y-55517693D01*
X108112500Y-55517693D01*
X108222225Y-55474424D01*
X108222226Y-55474424D01*
X108327234Y-55394794D01*
X110292501Y-55394794D01*
X110295409Y-55419874D01*
X110340712Y-55522477D01*
X110420021Y-55601786D01*
X110522628Y-55647091D01*
X110547704Y-55649999D01*
X111042500Y-55649999D01*
X111042500Y-54900000D01*
X110292501Y-54900000D01*
X110292501Y-55394794D01*
X108327234Y-55394794D01*
X108337219Y-55387222D01*
X108337222Y-55387219D01*
X108424424Y-55272226D01*
X108424424Y-55272225D01*
X108457835Y-55187500D01*
X108112500Y-55187500D01*
X108112500Y-55517693D01*
X107312500Y-55517693D01*
X107312500Y-55187500D01*
X106967164Y-55187500D01*
X100215986Y-55187500D01*
X100215986Y-54434174D01*
X110942500Y-54434174D01*
X110942500Y-54565826D01*
X110976575Y-54692993D01*
X111042401Y-54807007D01*
X111135493Y-54900099D01*
X111249507Y-54965925D01*
X111376674Y-55000000D01*
X111508326Y-55000000D01*
X111635493Y-54965925D01*
X111749507Y-54900099D01*
X111842500Y-54807106D01*
X111842500Y-55649999D01*
X112337295Y-55649999D01*
X112362374Y-55647090D01*
X112464977Y-55601787D01*
X112464978Y-55601787D01*
X112544286Y-55522478D01*
X112589591Y-55419871D01*
X112592499Y-55394795D01*
X112592499Y-54885866D01*
X112612461Y-54811366D01*
X112666999Y-54756828D01*
X112741499Y-54736866D01*
X112815999Y-54756828D01*
X112870537Y-54811366D01*
X112883206Y-54839823D01*
X112916285Y-54941631D01*
X112916287Y-54941636D01*
X112956581Y-55020717D01*
X112998504Y-55102994D01*
X113104947Y-55249501D01*
X113232999Y-55377553D01*
X113379506Y-55483996D01*
X113540861Y-55566211D01*
X113713091Y-55622171D01*
X113891954Y-55650500D01*
X113891958Y-55650500D01*
X114073042Y-55650500D01*
X114073046Y-55650500D01*
X114251909Y-55622171D01*
X114424139Y-55566211D01*
X114585494Y-55483996D01*
X114732001Y-55377553D01*
X114860053Y-55249501D01*
X114966496Y-55102994D01*
X115048711Y-54941639D01*
X115104671Y-54769409D01*
X115133000Y-54590546D01*
X115133000Y-54409454D01*
X115104671Y-54230591D01*
X115048711Y-54058361D01*
X114966496Y-53897006D01*
X114860053Y-53750499D01*
X114732001Y-53622447D01*
X114585494Y-53516004D01*
X114424139Y-53433789D01*
X114251909Y-53377829D01*
X114073046Y-53349500D01*
X113891954Y-53349500D01*
X113713091Y-53377829D01*
X113540860Y-53433789D01*
X113379504Y-53516005D01*
X113379503Y-53516005D01*
X113233000Y-53622446D01*
X113232997Y-53622448D01*
X113104948Y-53750497D01*
X113104946Y-53750500D01*
X112998505Y-53897003D01*
X112998505Y-53897004D01*
X112916287Y-54058363D01*
X112916285Y-54058368D01*
X112883206Y-54160177D01*
X112841200Y-54224862D01*
X112772478Y-54259878D01*
X112695456Y-54255841D01*
X112630771Y-54213835D01*
X112595755Y-54145113D01*
X112592499Y-54114134D01*
X112592499Y-53605205D01*
X112589590Y-53580125D01*
X112544287Y-53477522D01*
X112464978Y-53398213D01*
X112362371Y-53352908D01*
X112337296Y-53350000D01*
X111842500Y-53350000D01*
X111842500Y-54192894D01*
X111749507Y-54099901D01*
X111635493Y-54034075D01*
X111508326Y-54000000D01*
X111376674Y-54000000D01*
X111249507Y-54034075D01*
X111135493Y-54099901D01*
X111042401Y-54192993D01*
X110976575Y-54307007D01*
X110942500Y-54434174D01*
X100215986Y-54434174D01*
X100215986Y-49958852D01*
X106937000Y-49958852D01*
X106937000Y-50491147D01*
X106947140Y-50575590D01*
X107000135Y-50709973D01*
X107000138Y-50709979D01*
X107069074Y-50800883D01*
X107087422Y-50825078D01*
X107137700Y-50863205D01*
X107178014Y-50893777D01*
X107225314Y-50954699D01*
X107235815Y-51031109D01*
X107206705Y-51102532D01*
X107178014Y-51131223D01*
X107087424Y-51199920D01*
X107087420Y-51199924D01*
X107000138Y-51315020D01*
X107000135Y-51315026D01*
X106947140Y-51449409D01*
X106937000Y-51533852D01*
X106937000Y-52066147D01*
X106947140Y-52150590D01*
X107000135Y-52284973D01*
X107000138Y-52284979D01*
X107069074Y-52375883D01*
X107087422Y-52400078D01*
X107087426Y-52400081D01*
X107088236Y-52400891D01*
X107088864Y-52401980D01*
X107093580Y-52408198D01*
X107092797Y-52408791D01*
X107126800Y-52467686D01*
X107126800Y-52544814D01*
X107092797Y-52603708D01*
X107093580Y-52604302D01*
X107088864Y-52610519D01*
X107088236Y-52611609D01*
X107087420Y-52612424D01*
X107000138Y-52727520D01*
X107000135Y-52727526D01*
X106947140Y-52861909D01*
X106937000Y-52946352D01*
X106937000Y-53478647D01*
X106947140Y-53563090D01*
X107000135Y-53697473D01*
X107000138Y-53697479D01*
X107040346Y-53750500D01*
X107087422Y-53812578D01*
X107135278Y-53848868D01*
X107178428Y-53881591D01*
X107225728Y-53942513D01*
X107236229Y-54018923D01*
X107207119Y-54090346D01*
X107178427Y-54119038D01*
X107087780Y-54187777D01*
X107087777Y-54187780D01*
X107000575Y-54302773D01*
X107000575Y-54302774D01*
X106967164Y-54387499D01*
X106967165Y-54387500D01*
X108457835Y-54387500D01*
X108457835Y-54387499D01*
X108424424Y-54302774D01*
X108424424Y-54302773D01*
X108337222Y-54187780D01*
X108337219Y-54187777D01*
X108246572Y-54119038D01*
X108199272Y-54058117D01*
X108188769Y-53981707D01*
X108217879Y-53910283D01*
X108246565Y-53881595D01*
X108337578Y-53812578D01*
X108424864Y-53697475D01*
X108461251Y-53605204D01*
X110292500Y-53605204D01*
X110292500Y-54100000D01*
X111042500Y-54100000D01*
X111042500Y-53350000D01*
X110547705Y-53350000D01*
X110522625Y-53352909D01*
X110420022Y-53398212D01*
X110420022Y-53398213D01*
X110340713Y-53477521D01*
X110295408Y-53580128D01*
X110292500Y-53605204D01*
X108461251Y-53605204D01*
X108477859Y-53563090D01*
X108488000Y-53478644D01*
X108488000Y-52946356D01*
X108477859Y-52861910D01*
X108424864Y-52727525D01*
X108424862Y-52727523D01*
X108424861Y-52727520D01*
X108372047Y-52657876D01*
X108337578Y-52612422D01*
X108337573Y-52612418D01*
X108336764Y-52611609D01*
X108336135Y-52610519D01*
X108331420Y-52604302D01*
X108332202Y-52603708D01*
X108298200Y-52544814D01*
X108298200Y-52467686D01*
X108332202Y-52408791D01*
X108331420Y-52408198D01*
X108336135Y-52401980D01*
X108336764Y-52400891D01*
X108337569Y-52400084D01*
X108337578Y-52400078D01*
X108424864Y-52284975D01*
X108477859Y-52150590D01*
X108488000Y-52066144D01*
X108488000Y-51533856D01*
X108477859Y-51449410D01*
X108424864Y-51315025D01*
X108424862Y-51315023D01*
X108424861Y-51315020D01*
X108372047Y-51245376D01*
X108337578Y-51199922D01*
X108246982Y-51131220D01*
X108199685Y-51070302D01*
X108189183Y-50993892D01*
X108218293Y-50922468D01*
X108246979Y-50893781D01*
X108337578Y-50825078D01*
X108424864Y-50709975D01*
X108477859Y-50575590D01*
X108488000Y-50491144D01*
X108488000Y-50260820D01*
X108507962Y-50186320D01*
X108531638Y-50155464D01*
X108692961Y-49994140D01*
X108759756Y-49955577D01*
X108798320Y-49950500D01*
X109088691Y-49950500D01*
X109262666Y-49915894D01*
X109426547Y-49848013D01*
X109574035Y-49749464D01*
X109699464Y-49624035D01*
X109798013Y-49476547D01*
X109865894Y-49312666D01*
X109900500Y-49138691D01*
X109900500Y-48961309D01*
X109900500Y-47952976D01*
X109920462Y-47878476D01*
X109921955Y-47875947D01*
X109995512Y-47754270D01*
X110044315Y-47597657D01*
X110050500Y-47529594D01*
X110050500Y-47529553D01*
X110950001Y-47529553D01*
X110956180Y-47597565D01*
X110956182Y-47597573D01*
X111004943Y-47754055D01*
X111004948Y-47754065D01*
X111089748Y-47894343D01*
X111205656Y-48010251D01*
X111345934Y-48095051D01*
X111345945Y-48095056D01*
X111502429Y-48143819D01*
X111570446Y-48149999D01*
X112400000Y-48149999D01*
X112429552Y-48149999D01*
X112429553Y-48149998D01*
X112497565Y-48143819D01*
X112497573Y-48143817D01*
X112654055Y-48095056D01*
X112654065Y-48095051D01*
X112794343Y-48010251D01*
X112910251Y-47894343D01*
X112995051Y-47754065D01*
X112995056Y-47754054D01*
X113043819Y-47597570D01*
X113050000Y-47529553D01*
X113050000Y-46900000D01*
X112400000Y-46900000D01*
X112400000Y-48149999D01*
X111570446Y-48149999D01*
X111599999Y-48149998D01*
X111600000Y-48149998D01*
X111600000Y-46900000D01*
X110950001Y-46900000D01*
X110950001Y-47529553D01*
X110050500Y-47529553D01*
X110050500Y-45470446D01*
X110950000Y-45470446D01*
X110950000Y-46100000D01*
X111600000Y-46100000D01*
X112400000Y-46100000D01*
X113049999Y-46100000D01*
X113049999Y-45470447D01*
X113049995Y-45470406D01*
X113949500Y-45470406D01*
X113949500Y-47529594D01*
X113953211Y-47570431D01*
X113955685Y-47597661D01*
X114004486Y-47754265D01*
X114004486Y-47754266D01*
X114004487Y-47754268D01*
X114004488Y-47754270D01*
X114078012Y-47875895D01*
X114099470Y-47949976D01*
X114099500Y-47952976D01*
X114099500Y-49138691D01*
X114134105Y-49312663D01*
X114134106Y-49312667D01*
X114201986Y-49476546D01*
X114201987Y-49476548D01*
X114300533Y-49624031D01*
X114300536Y-49624035D01*
X114425965Y-49749464D01*
X114425968Y-49749466D01*
X114573451Y-49848012D01*
X114573453Y-49848013D01*
X114737334Y-49915894D01*
X114911309Y-49950500D01*
X115088691Y-49950500D01*
X115262666Y-49915894D01*
X115426547Y-49848013D01*
X115574035Y-49749464D01*
X115699464Y-49624035D01*
X115798013Y-49476547D01*
X115865894Y-49312666D01*
X115900500Y-49138691D01*
X115900500Y-48961309D01*
X115900500Y-47952976D01*
X115920462Y-47878476D01*
X115921955Y-47875947D01*
X115995512Y-47754270D01*
X116044315Y-47597657D01*
X116050500Y-47529594D01*
X116050500Y-46186166D01*
X123199500Y-46186166D01*
X123199500Y-51313833D01*
X123214253Y-51444774D01*
X123214253Y-51444776D01*
X123214254Y-51444777D01*
X123272344Y-51610789D01*
X123365919Y-51759713D01*
X123490287Y-51884081D01*
X123639211Y-51977656D01*
X123805223Y-52035746D01*
X123936166Y-52050500D01*
X131063834Y-52050500D01*
X131194777Y-52035746D01*
X131360789Y-51977656D01*
X131509713Y-51884081D01*
X131634081Y-51759713D01*
X131727656Y-51610789D01*
X131785746Y-51444777D01*
X131800500Y-51313834D01*
X131800500Y-46186166D01*
X131785746Y-46055223D01*
X131727656Y-45889211D01*
X131634081Y-45740287D01*
X131509713Y-45615919D01*
X131360789Y-45522344D01*
X131194777Y-45464254D01*
X131194776Y-45464253D01*
X131194774Y-45464253D01*
X131063834Y-45449500D01*
X123936166Y-45449500D01*
X123805225Y-45464253D01*
X123639210Y-45522344D01*
X123490287Y-45615919D01*
X123365919Y-45740287D01*
X123272344Y-45889210D01*
X123214253Y-46055225D01*
X123199500Y-46186166D01*
X116050500Y-46186166D01*
X116050500Y-45470406D01*
X116044315Y-45402343D01*
X116044314Y-45402340D01*
X116044314Y-45402338D01*
X115995579Y-45245945D01*
X115995512Y-45245730D01*
X115910648Y-45105347D01*
X115794653Y-44989352D01*
X115654270Y-44904488D01*
X115654268Y-44904487D01*
X115654266Y-44904486D01*
X115497661Y-44855685D01*
X115470431Y-44853211D01*
X115429594Y-44849500D01*
X114570406Y-44849500D01*
X114533280Y-44852873D01*
X114502338Y-44855685D01*
X114345734Y-44904486D01*
X114345733Y-44904486D01*
X114205346Y-44989352D01*
X114089352Y-45105346D01*
X114004486Y-45245733D01*
X114004486Y-45245734D01*
X113955685Y-45402338D01*
X113952592Y-45436374D01*
X113949500Y-45470406D01*
X113049995Y-45470406D01*
X113043819Y-45402434D01*
X113043817Y-45402426D01*
X112995056Y-45245944D01*
X112995051Y-45245934D01*
X112910251Y-45105656D01*
X112794343Y-44989748D01*
X112654065Y-44904948D01*
X112654054Y-44904943D01*
X112497570Y-44856180D01*
X112429553Y-44850000D01*
X112400000Y-44850000D01*
X112400000Y-46100000D01*
X111600000Y-46100000D01*
X111600000Y-44850000D01*
X111599999Y-44849999D01*
X111570449Y-44850000D01*
X111570445Y-44850001D01*
X111502433Y-44856180D01*
X111502426Y-44856182D01*
X111345944Y-44904943D01*
X111345934Y-44904948D01*
X111205656Y-44989748D01*
X111089748Y-45105656D01*
X111004948Y-45245934D01*
X111004943Y-45245945D01*
X110956180Y-45402429D01*
X110950000Y-45470446D01*
X110050500Y-45470446D01*
X110050500Y-45470406D01*
X110044315Y-45402343D01*
X110044314Y-45402340D01*
X110044314Y-45402338D01*
X109995579Y-45245945D01*
X109995512Y-45245730D01*
X109910648Y-45105347D01*
X109794653Y-44989352D01*
X109654270Y-44904488D01*
X109654268Y-44904487D01*
X109654266Y-44904486D01*
X109497661Y-44855685D01*
X109470431Y-44853211D01*
X109429594Y-44849500D01*
X108570406Y-44849500D01*
X108533280Y-44852873D01*
X108502338Y-44855685D01*
X108345734Y-44904486D01*
X108345733Y-44904486D01*
X108205346Y-44989352D01*
X108089352Y-45105346D01*
X108004486Y-45245733D01*
X108004486Y-45245734D01*
X107955685Y-45402338D01*
X107952592Y-45436374D01*
X107949500Y-45470406D01*
X107949500Y-47529594D01*
X107953211Y-47570431D01*
X107955685Y-47597661D01*
X108004486Y-47754265D01*
X108004486Y-47754266D01*
X108004487Y-47754268D01*
X108004488Y-47754270D01*
X108078012Y-47875895D01*
X108099470Y-47949976D01*
X108099500Y-47952976D01*
X108099500Y-48569641D01*
X108088158Y-48626660D01*
X108021606Y-48787332D01*
X108021605Y-48787336D01*
X107987000Y-48961308D01*
X107987000Y-49138689D01*
X108018377Y-49296431D01*
X108013333Y-49373394D01*
X107970483Y-49437524D01*
X107901309Y-49471637D01*
X107872240Y-49474500D01*
X107421352Y-49474500D01*
X107336909Y-49484640D01*
X107202526Y-49537635D01*
X107202520Y-49537638D01*
X107087424Y-49624920D01*
X107087420Y-49624924D01*
X107000138Y-49740020D01*
X107000135Y-49740026D01*
X106947140Y-49874409D01*
X106937000Y-49958852D01*
X100215986Y-49958852D01*
X100215986Y-47529553D01*
X104950001Y-47529553D01*
X104956180Y-47597565D01*
X104956182Y-47597573D01*
X105004943Y-47754055D01*
X105004948Y-47754065D01*
X105089748Y-47894343D01*
X105205656Y-48010251D01*
X105345934Y-48095051D01*
X105345945Y-48095056D01*
X105502429Y-48143819D01*
X105570446Y-48149999D01*
X106400000Y-48149999D01*
X106429552Y-48149999D01*
X106429553Y-48149998D01*
X106497565Y-48143819D01*
X106497573Y-48143817D01*
X106654055Y-48095056D01*
X106654065Y-48095051D01*
X106794343Y-48010251D01*
X106910251Y-47894343D01*
X106995051Y-47754065D01*
X106995056Y-47754054D01*
X107043819Y-47597570D01*
X107050000Y-47529553D01*
X107050000Y-46900000D01*
X106400000Y-46900000D01*
X106400000Y-48149999D01*
X105570446Y-48149999D01*
X105599999Y-48149998D01*
X105600000Y-48149998D01*
X105600000Y-46900000D01*
X104950001Y-46900000D01*
X104950001Y-47529553D01*
X100215986Y-47529553D01*
X100215986Y-45470446D01*
X104950000Y-45470446D01*
X104950000Y-46100000D01*
X105600000Y-46100000D01*
X106400000Y-46100000D01*
X107049999Y-46100000D01*
X107049999Y-45470448D01*
X107049998Y-45470446D01*
X107043819Y-45402434D01*
X107043817Y-45402426D01*
X106995056Y-45245944D01*
X106995051Y-45245934D01*
X106910251Y-45105656D01*
X106794343Y-44989748D01*
X106654065Y-44904948D01*
X106654054Y-44904943D01*
X106497570Y-44856180D01*
X106429553Y-44850000D01*
X106400000Y-44850000D01*
X106400000Y-46100000D01*
X105600000Y-46100000D01*
X105600000Y-44850000D01*
X105599999Y-44849999D01*
X105570449Y-44850000D01*
X105570445Y-44850001D01*
X105502433Y-44856180D01*
X105502426Y-44856182D01*
X105345944Y-44904943D01*
X105345934Y-44904948D01*
X105205656Y-44989748D01*
X105089748Y-45105656D01*
X105004948Y-45245934D01*
X105004943Y-45245945D01*
X104956180Y-45402429D01*
X104950000Y-45470446D01*
X100215986Y-45470446D01*
X100215986Y-41529553D01*
X104950001Y-41529553D01*
X104956180Y-41597565D01*
X104956182Y-41597573D01*
X105004943Y-41754055D01*
X105004948Y-41754065D01*
X105089748Y-41894343D01*
X105205656Y-42010251D01*
X105345934Y-42095051D01*
X105345945Y-42095056D01*
X105502429Y-42143819D01*
X105570446Y-42149999D01*
X106400000Y-42149999D01*
X106429552Y-42149999D01*
X106429553Y-42149998D01*
X106497565Y-42143819D01*
X106497573Y-42143817D01*
X106654055Y-42095056D01*
X106654065Y-42095051D01*
X106794343Y-42010251D01*
X106910251Y-41894343D01*
X106995051Y-41754065D01*
X106995056Y-41754054D01*
X107043819Y-41597570D01*
X107050000Y-41529553D01*
X107050000Y-40900000D01*
X106400000Y-40900000D01*
X106400000Y-42149999D01*
X105570446Y-42149999D01*
X105599999Y-42149998D01*
X105600000Y-42149998D01*
X105600000Y-40900000D01*
X104950001Y-40900000D01*
X104950001Y-41529553D01*
X100215986Y-41529553D01*
X100215986Y-39470446D01*
X104950000Y-39470446D01*
X104950000Y-40100000D01*
X105600000Y-40100000D01*
X106400000Y-40100000D01*
X107049999Y-40100000D01*
X107049999Y-39470447D01*
X107049995Y-39470406D01*
X107949500Y-39470406D01*
X107949500Y-41529594D01*
X107953211Y-41570431D01*
X107955685Y-41597661D01*
X108004486Y-41754265D01*
X108004486Y-41754266D01*
X108004487Y-41754268D01*
X108004488Y-41754270D01*
X108078012Y-41875895D01*
X108099470Y-41949976D01*
X108099500Y-41952976D01*
X108099500Y-43138691D01*
X108134105Y-43312663D01*
X108134106Y-43312667D01*
X108201986Y-43476546D01*
X108201987Y-43476548D01*
X108300533Y-43624031D01*
X108300536Y-43624035D01*
X108425965Y-43749464D01*
X108425968Y-43749466D01*
X108573451Y-43848012D01*
X108573453Y-43848013D01*
X108737334Y-43915894D01*
X108911309Y-43950500D01*
X109088691Y-43950500D01*
X109262666Y-43915894D01*
X109426547Y-43848013D01*
X109574035Y-43749464D01*
X109699464Y-43624035D01*
X109798013Y-43476547D01*
X109865894Y-43312666D01*
X109900500Y-43138691D01*
X109900500Y-42961309D01*
X109900500Y-41952976D01*
X109920462Y-41878476D01*
X109921955Y-41875947D01*
X109995512Y-41754270D01*
X110044315Y-41597657D01*
X110050500Y-41529594D01*
X110050500Y-41529553D01*
X110950001Y-41529553D01*
X110956180Y-41597565D01*
X110956182Y-41597573D01*
X111004943Y-41754055D01*
X111004948Y-41754065D01*
X111089748Y-41894343D01*
X111205656Y-42010251D01*
X111345934Y-42095051D01*
X111345945Y-42095056D01*
X111502429Y-42143819D01*
X111570446Y-42149999D01*
X112400000Y-42149999D01*
X112429552Y-42149999D01*
X112429553Y-42149998D01*
X112497565Y-42143819D01*
X112497573Y-42143817D01*
X112654055Y-42095056D01*
X112654065Y-42095051D01*
X112794343Y-42010251D01*
X112910251Y-41894343D01*
X112995051Y-41754065D01*
X112995056Y-41754054D01*
X113043819Y-41597570D01*
X113050000Y-41529553D01*
X113050000Y-40900000D01*
X112400000Y-40900000D01*
X112400000Y-42149999D01*
X111570446Y-42149999D01*
X111599999Y-42149998D01*
X111600000Y-42149998D01*
X111600000Y-40900000D01*
X110950001Y-40900000D01*
X110950001Y-41529553D01*
X110050500Y-41529553D01*
X110050500Y-39470446D01*
X110950000Y-39470446D01*
X110950000Y-40100000D01*
X111600000Y-40100000D01*
X112400000Y-40100000D01*
X113049999Y-40100000D01*
X113049999Y-39470447D01*
X113049995Y-39470406D01*
X113949500Y-39470406D01*
X113949500Y-41529594D01*
X113953211Y-41570431D01*
X113955685Y-41597661D01*
X114004486Y-41754265D01*
X114004486Y-41754266D01*
X114004487Y-41754268D01*
X114004488Y-41754270D01*
X114078012Y-41875895D01*
X114099470Y-41949976D01*
X114099500Y-41952976D01*
X114099500Y-43138691D01*
X114134105Y-43312663D01*
X114134106Y-43312667D01*
X114201986Y-43476546D01*
X114201987Y-43476548D01*
X114300533Y-43624031D01*
X114300536Y-43624035D01*
X114425965Y-43749464D01*
X114425968Y-43749466D01*
X114573451Y-43848012D01*
X114573453Y-43848013D01*
X114737334Y-43915894D01*
X114911309Y-43950500D01*
X115088691Y-43950500D01*
X115262666Y-43915894D01*
X115426547Y-43848013D01*
X115574035Y-43749464D01*
X115699464Y-43624035D01*
X115798013Y-43476547D01*
X115865894Y-43312666D01*
X115900500Y-43138691D01*
X115900500Y-42961309D01*
X115900500Y-41952976D01*
X115920462Y-41878476D01*
X115921955Y-41875947D01*
X115995512Y-41754270D01*
X116044315Y-41597657D01*
X116050500Y-41529594D01*
X116050500Y-41529553D01*
X116950001Y-41529553D01*
X116956180Y-41597565D01*
X116956182Y-41597573D01*
X117004943Y-41754055D01*
X117004948Y-41754065D01*
X117089748Y-41894343D01*
X117205656Y-42010251D01*
X117345934Y-42095051D01*
X117345945Y-42095056D01*
X117502429Y-42143819D01*
X117570446Y-42149999D01*
X118400000Y-42149999D01*
X118429552Y-42149999D01*
X118429553Y-42149998D01*
X118497565Y-42143819D01*
X118497573Y-42143817D01*
X118654055Y-42095056D01*
X118654065Y-42095051D01*
X118794343Y-42010251D01*
X118910251Y-41894343D01*
X118995051Y-41754065D01*
X118995056Y-41754054D01*
X119043819Y-41597570D01*
X119050000Y-41529553D01*
X119050000Y-40900000D01*
X118400000Y-40900000D01*
X118400000Y-42149999D01*
X117570446Y-42149999D01*
X117599999Y-42149998D01*
X117600000Y-42149998D01*
X117600000Y-40900000D01*
X116950001Y-40900000D01*
X116950001Y-41529553D01*
X116050500Y-41529553D01*
X116050500Y-39470446D01*
X116950000Y-39470446D01*
X116950000Y-40100000D01*
X117600000Y-40100000D01*
X118400000Y-40100000D01*
X119049999Y-40100000D01*
X119049999Y-39470447D01*
X119049995Y-39470406D01*
X119949500Y-39470406D01*
X119949500Y-41529594D01*
X119953211Y-41570431D01*
X119955685Y-41597661D01*
X120004486Y-41754265D01*
X120004486Y-41754266D01*
X120004487Y-41754268D01*
X120004488Y-41754270D01*
X120078012Y-41875895D01*
X120099470Y-41949976D01*
X120099500Y-41952976D01*
X120099500Y-43138691D01*
X120134105Y-43312663D01*
X120134106Y-43312667D01*
X120201986Y-43476546D01*
X120201987Y-43476548D01*
X120300533Y-43624031D01*
X120300536Y-43624035D01*
X120425965Y-43749464D01*
X120425968Y-43749466D01*
X120573451Y-43848012D01*
X120573453Y-43848013D01*
X120737334Y-43915894D01*
X120911309Y-43950500D01*
X121088691Y-43950500D01*
X121262666Y-43915894D01*
X121426547Y-43848013D01*
X121574035Y-43749464D01*
X121699464Y-43624035D01*
X121798013Y-43476547D01*
X121865894Y-43312666D01*
X121900500Y-43138691D01*
X121900500Y-42961309D01*
X121900500Y-41952976D01*
X121920462Y-41878476D01*
X121921955Y-41875947D01*
X121995512Y-41754270D01*
X122044315Y-41597657D01*
X122050500Y-41529594D01*
X122050500Y-40313806D01*
X123200000Y-40313806D01*
X123214743Y-40444663D01*
X123272797Y-40610571D01*
X123366309Y-40759396D01*
X123366313Y-40759401D01*
X123490599Y-40883687D01*
X123490603Y-40883690D01*
X123639428Y-40977202D01*
X123805337Y-41035256D01*
X123805336Y-41035256D01*
X123936193Y-41050000D01*
X127100000Y-41050000D01*
X127900000Y-41050000D01*
X131063807Y-41050000D01*
X131194663Y-41035256D01*
X131360571Y-40977202D01*
X131509396Y-40883690D01*
X131509401Y-40883687D01*
X131633687Y-40759401D01*
X131633690Y-40759396D01*
X131727202Y-40610571D01*
X131785256Y-40444663D01*
X131800000Y-40313806D01*
X131800000Y-38150000D01*
X127900000Y-38150000D01*
X127900000Y-41050000D01*
X127100000Y-41050000D01*
X127100000Y-38150000D01*
X123200000Y-38150000D01*
X123200000Y-40313806D01*
X122050500Y-40313806D01*
X122050500Y-39470406D01*
X122044315Y-39402343D01*
X122044314Y-39402340D01*
X122044314Y-39402338D01*
X121995579Y-39245945D01*
X121995512Y-39245730D01*
X121910648Y-39105347D01*
X121794653Y-38989352D01*
X121654270Y-38904488D01*
X121654268Y-38904487D01*
X121654266Y-38904486D01*
X121497661Y-38855685D01*
X121470431Y-38853211D01*
X121429594Y-38849500D01*
X120570406Y-38849500D01*
X120533280Y-38852873D01*
X120502338Y-38855685D01*
X120345734Y-38904486D01*
X120345733Y-38904486D01*
X120205346Y-38989352D01*
X120089352Y-39105346D01*
X120004486Y-39245733D01*
X120004486Y-39245734D01*
X119955685Y-39402338D01*
X119952592Y-39436374D01*
X119949500Y-39470406D01*
X119049995Y-39470406D01*
X119043819Y-39402434D01*
X119043817Y-39402426D01*
X118995056Y-39245944D01*
X118995051Y-39245934D01*
X118910251Y-39105656D01*
X118794343Y-38989748D01*
X118654065Y-38904948D01*
X118654054Y-38904943D01*
X118497570Y-38856180D01*
X118429553Y-38850000D01*
X118400000Y-38850000D01*
X118400000Y-40100000D01*
X117600000Y-40100000D01*
X117600000Y-38850000D01*
X117599999Y-38849999D01*
X117570449Y-38850000D01*
X117570445Y-38850001D01*
X117502433Y-38856180D01*
X117502426Y-38856182D01*
X117345944Y-38904943D01*
X117345934Y-38904948D01*
X117205656Y-38989748D01*
X117089748Y-39105656D01*
X117004948Y-39245934D01*
X117004943Y-39245945D01*
X116956180Y-39402429D01*
X116950000Y-39470446D01*
X116050500Y-39470446D01*
X116050500Y-39470406D01*
X116044315Y-39402343D01*
X116044314Y-39402340D01*
X116044314Y-39402338D01*
X115995579Y-39245945D01*
X115995512Y-39245730D01*
X115910648Y-39105347D01*
X115794653Y-38989352D01*
X115654270Y-38904488D01*
X115654268Y-38904487D01*
X115654266Y-38904486D01*
X115497661Y-38855685D01*
X115470431Y-38853211D01*
X115429594Y-38849500D01*
X114570406Y-38849500D01*
X114533280Y-38852873D01*
X114502338Y-38855685D01*
X114345734Y-38904486D01*
X114345733Y-38904486D01*
X114205346Y-38989352D01*
X114089352Y-39105346D01*
X114004486Y-39245733D01*
X114004486Y-39245734D01*
X113955685Y-39402338D01*
X113952592Y-39436374D01*
X113949500Y-39470406D01*
X113049995Y-39470406D01*
X113043819Y-39402434D01*
X113043817Y-39402426D01*
X112995056Y-39245944D01*
X112995051Y-39245934D01*
X112910251Y-39105656D01*
X112794343Y-38989748D01*
X112654065Y-38904948D01*
X112654054Y-38904943D01*
X112497570Y-38856180D01*
X112429553Y-38850000D01*
X112400000Y-38850000D01*
X112400000Y-40100000D01*
X111600000Y-40100000D01*
X111600000Y-38850000D01*
X111599999Y-38849999D01*
X111570449Y-38850000D01*
X111570445Y-38850001D01*
X111502433Y-38856180D01*
X111502426Y-38856182D01*
X111345944Y-38904943D01*
X111345934Y-38904948D01*
X111205656Y-38989748D01*
X111089748Y-39105656D01*
X111004948Y-39245934D01*
X111004943Y-39245945D01*
X110956180Y-39402429D01*
X110950000Y-39470446D01*
X110050500Y-39470446D01*
X110050500Y-39470406D01*
X110044315Y-39402343D01*
X110044314Y-39402340D01*
X110044314Y-39402338D01*
X109995579Y-39245945D01*
X109995512Y-39245730D01*
X109910648Y-39105347D01*
X109794653Y-38989352D01*
X109654270Y-38904488D01*
X109654268Y-38904487D01*
X109654266Y-38904486D01*
X109497661Y-38855685D01*
X109470431Y-38853211D01*
X109429594Y-38849500D01*
X108570406Y-38849500D01*
X108533280Y-38852873D01*
X108502338Y-38855685D01*
X108345734Y-38904486D01*
X108345733Y-38904486D01*
X108205346Y-38989352D01*
X108089352Y-39105346D01*
X108004486Y-39245733D01*
X108004486Y-39245734D01*
X107955685Y-39402338D01*
X107952592Y-39436374D01*
X107949500Y-39470406D01*
X107049995Y-39470406D01*
X107043819Y-39402434D01*
X107043817Y-39402426D01*
X106995056Y-39245944D01*
X106995051Y-39245934D01*
X106910251Y-39105656D01*
X106794343Y-38989748D01*
X106654065Y-38904948D01*
X106654054Y-38904943D01*
X106497570Y-38856180D01*
X106429553Y-38850000D01*
X106400000Y-38850000D01*
X106400000Y-40100000D01*
X105600000Y-40100000D01*
X105600000Y-38850000D01*
X105599999Y-38849999D01*
X105570449Y-38850000D01*
X105570445Y-38850001D01*
X105502433Y-38856180D01*
X105502426Y-38856182D01*
X105345944Y-38904943D01*
X105345934Y-38904948D01*
X105205656Y-38989748D01*
X105089748Y-39105656D01*
X105004948Y-39245934D01*
X105004943Y-39245945D01*
X104956180Y-39402429D01*
X104950000Y-39470446D01*
X100215986Y-39470446D01*
X100215986Y-35529553D01*
X104950001Y-35529553D01*
X104956180Y-35597565D01*
X104956182Y-35597573D01*
X105004943Y-35754055D01*
X105004948Y-35754065D01*
X105089748Y-35894343D01*
X105205656Y-36010251D01*
X105345934Y-36095051D01*
X105345945Y-36095056D01*
X105502429Y-36143819D01*
X105570446Y-36149999D01*
X106400000Y-36149999D01*
X106429552Y-36149999D01*
X106429553Y-36149998D01*
X106497565Y-36143819D01*
X106497573Y-36143817D01*
X106654055Y-36095056D01*
X106654065Y-36095051D01*
X106794343Y-36010251D01*
X106910251Y-35894343D01*
X106995051Y-35754065D01*
X106995056Y-35754054D01*
X107043819Y-35597570D01*
X107050000Y-35529553D01*
X107050000Y-34900000D01*
X106400000Y-34900000D01*
X106400000Y-36149999D01*
X105570446Y-36149999D01*
X105599999Y-36149998D01*
X105600000Y-36149998D01*
X105600000Y-34900000D01*
X104950001Y-34900000D01*
X104950001Y-35529553D01*
X100215986Y-35529553D01*
X100215986Y-33470446D01*
X104950000Y-33470446D01*
X104950000Y-34100000D01*
X105600000Y-34100000D01*
X106400000Y-34100000D01*
X107049999Y-34100000D01*
X107049999Y-33470447D01*
X107049995Y-33470406D01*
X107949500Y-33470406D01*
X107949500Y-35529594D01*
X107953211Y-35570431D01*
X107955685Y-35597661D01*
X108004486Y-35754265D01*
X108004486Y-35754266D01*
X108004487Y-35754268D01*
X108004488Y-35754270D01*
X108078012Y-35875895D01*
X108099470Y-35949976D01*
X108099500Y-35952976D01*
X108099500Y-37138691D01*
X108134105Y-37312663D01*
X108134106Y-37312667D01*
X108201986Y-37476546D01*
X108201987Y-37476548D01*
X108300533Y-37624031D01*
X108300536Y-37624035D01*
X108425965Y-37749464D01*
X108425968Y-37749466D01*
X108573451Y-37848012D01*
X108573453Y-37848013D01*
X108737334Y-37915894D01*
X108911309Y-37950500D01*
X109088691Y-37950500D01*
X109262666Y-37915894D01*
X109426547Y-37848013D01*
X109574035Y-37749464D01*
X109699464Y-37624035D01*
X109798013Y-37476547D01*
X109865894Y-37312666D01*
X109900500Y-37138691D01*
X109900500Y-36961309D01*
X109900500Y-35952976D01*
X109920462Y-35878476D01*
X109921955Y-35875947D01*
X109995512Y-35754270D01*
X110044315Y-35597657D01*
X110050500Y-35529594D01*
X110050500Y-35529553D01*
X110950001Y-35529553D01*
X110956180Y-35597565D01*
X110956182Y-35597573D01*
X111004943Y-35754055D01*
X111004948Y-35754065D01*
X111089748Y-35894343D01*
X111205656Y-36010251D01*
X111345934Y-36095051D01*
X111345945Y-36095056D01*
X111502429Y-36143819D01*
X111570446Y-36149999D01*
X112400000Y-36149999D01*
X112429552Y-36149999D01*
X112429553Y-36149998D01*
X112497565Y-36143819D01*
X112497573Y-36143817D01*
X112654055Y-36095056D01*
X112654065Y-36095051D01*
X112794343Y-36010251D01*
X112910251Y-35894343D01*
X112995051Y-35754065D01*
X112995056Y-35754054D01*
X113043819Y-35597570D01*
X113050000Y-35529553D01*
X113050000Y-34900000D01*
X112400000Y-34900000D01*
X112400000Y-36149999D01*
X111570446Y-36149999D01*
X111599999Y-36149998D01*
X111600000Y-36149998D01*
X111600000Y-34900000D01*
X110950001Y-34900000D01*
X110950001Y-35529553D01*
X110050500Y-35529553D01*
X110050500Y-33470446D01*
X110950000Y-33470446D01*
X110950000Y-34100000D01*
X111600000Y-34100000D01*
X112400000Y-34100000D01*
X113049999Y-34100000D01*
X113049999Y-33470447D01*
X113049995Y-33470406D01*
X113949500Y-33470406D01*
X113949500Y-35529594D01*
X113953211Y-35570431D01*
X113955685Y-35597661D01*
X114004486Y-35754265D01*
X114004486Y-35754266D01*
X114004487Y-35754268D01*
X114004488Y-35754270D01*
X114078012Y-35875895D01*
X114099470Y-35949976D01*
X114099500Y-35952976D01*
X114099500Y-37138691D01*
X114134105Y-37312663D01*
X114134106Y-37312667D01*
X114201986Y-37476546D01*
X114201987Y-37476548D01*
X114300533Y-37624031D01*
X114300536Y-37624035D01*
X114425965Y-37749464D01*
X114425968Y-37749466D01*
X114573451Y-37848012D01*
X114573453Y-37848013D01*
X114737334Y-37915894D01*
X114911309Y-37950500D01*
X115088691Y-37950500D01*
X115262666Y-37915894D01*
X115426547Y-37848013D01*
X115574035Y-37749464D01*
X115699464Y-37624035D01*
X115798013Y-37476547D01*
X115865894Y-37312666D01*
X115900500Y-37138691D01*
X115900500Y-36961309D01*
X115900500Y-35952976D01*
X115920462Y-35878476D01*
X115921955Y-35875947D01*
X115995512Y-35754270D01*
X116044315Y-35597657D01*
X116050500Y-35529594D01*
X116050500Y-35529553D01*
X116950001Y-35529553D01*
X116956180Y-35597565D01*
X116956182Y-35597573D01*
X117004943Y-35754055D01*
X117004948Y-35754065D01*
X117089748Y-35894343D01*
X117205656Y-36010251D01*
X117345934Y-36095051D01*
X117345945Y-36095056D01*
X117502429Y-36143819D01*
X117570446Y-36149999D01*
X118400000Y-36149999D01*
X118429552Y-36149999D01*
X118429553Y-36149998D01*
X118497565Y-36143819D01*
X118497573Y-36143817D01*
X118654055Y-36095056D01*
X118654065Y-36095051D01*
X118794343Y-36010251D01*
X118910251Y-35894343D01*
X118995051Y-35754065D01*
X118995056Y-35754054D01*
X119043819Y-35597570D01*
X119050000Y-35529553D01*
X119050000Y-34900000D01*
X118400000Y-34900000D01*
X118400000Y-36149999D01*
X117570446Y-36149999D01*
X117599999Y-36149998D01*
X117600000Y-36149998D01*
X117600000Y-34900000D01*
X116950001Y-34900000D01*
X116950001Y-35529553D01*
X116050500Y-35529553D01*
X116050500Y-33470446D01*
X116950000Y-33470446D01*
X116950000Y-34100000D01*
X117600000Y-34100000D01*
X118400000Y-34100000D01*
X119049999Y-34100000D01*
X119049999Y-33470447D01*
X119049995Y-33470406D01*
X119949500Y-33470406D01*
X119949500Y-35529594D01*
X119953211Y-35570431D01*
X119955685Y-35597661D01*
X120004486Y-35754265D01*
X120004486Y-35754266D01*
X120004487Y-35754268D01*
X120004488Y-35754270D01*
X120078012Y-35875895D01*
X120099470Y-35949976D01*
X120099500Y-35952976D01*
X120099500Y-37138691D01*
X120134105Y-37312663D01*
X120134106Y-37312667D01*
X120201986Y-37476546D01*
X120201987Y-37476548D01*
X120300533Y-37624031D01*
X120300536Y-37624035D01*
X120425965Y-37749464D01*
X120425968Y-37749466D01*
X120573451Y-37848012D01*
X120573453Y-37848013D01*
X120737334Y-37915894D01*
X120911309Y-37950500D01*
X121088690Y-37950500D01*
X121088691Y-37950500D01*
X121262666Y-37915894D01*
X121426547Y-37848013D01*
X121574035Y-37749464D01*
X121699464Y-37624035D01*
X121798013Y-37476547D01*
X121865894Y-37312666D01*
X121900500Y-37138691D01*
X121900500Y-36961309D01*
X121900500Y-35952976D01*
X121920462Y-35878476D01*
X121921955Y-35875947D01*
X121995512Y-35754270D01*
X122044315Y-35597657D01*
X122050500Y-35529594D01*
X122050500Y-35186193D01*
X123200000Y-35186193D01*
X123200000Y-37350000D01*
X127100000Y-37350000D01*
X127900000Y-37350000D01*
X131800000Y-37350000D01*
X131800000Y-35186193D01*
X131785256Y-35055336D01*
X131727202Y-34889428D01*
X131633690Y-34740603D01*
X131633687Y-34740599D01*
X131509401Y-34616313D01*
X131509396Y-34616309D01*
X131360571Y-34522797D01*
X131194662Y-34464743D01*
X131194663Y-34464743D01*
X131063807Y-34450000D01*
X127900000Y-34450000D01*
X127900000Y-37350000D01*
X127100000Y-37350000D01*
X127100000Y-34450000D01*
X123936193Y-34450000D01*
X123805336Y-34464743D01*
X123639428Y-34522797D01*
X123490603Y-34616309D01*
X123366309Y-34740603D01*
X123272797Y-34889428D01*
X123214743Y-35055336D01*
X123200000Y-35186193D01*
X122050500Y-35186193D01*
X122050500Y-33470406D01*
X122044315Y-33402343D01*
X122044314Y-33402340D01*
X122044314Y-33402338D01*
X121995579Y-33245945D01*
X121995512Y-33245730D01*
X121910648Y-33105347D01*
X121794653Y-32989352D01*
X121654270Y-32904488D01*
X121654268Y-32904487D01*
X121654266Y-32904486D01*
X121497661Y-32855685D01*
X121470431Y-32853211D01*
X121429594Y-32849500D01*
X120570406Y-32849500D01*
X120533280Y-32852873D01*
X120502338Y-32855685D01*
X120345734Y-32904486D01*
X120345733Y-32904486D01*
X120205346Y-32989352D01*
X120089352Y-33105346D01*
X120004486Y-33245733D01*
X120004486Y-33245734D01*
X119955685Y-33402338D01*
X119952592Y-33436374D01*
X119949500Y-33470406D01*
X119049995Y-33470406D01*
X119043819Y-33402434D01*
X119043817Y-33402426D01*
X118995056Y-33245944D01*
X118995051Y-33245934D01*
X118910251Y-33105656D01*
X118794343Y-32989748D01*
X118654065Y-32904948D01*
X118654054Y-32904943D01*
X118497570Y-32856180D01*
X118429553Y-32850000D01*
X118400000Y-32850000D01*
X118400000Y-34100000D01*
X117600000Y-34100000D01*
X117600000Y-32850000D01*
X117599999Y-32849999D01*
X117570449Y-32850000D01*
X117570445Y-32850001D01*
X117502433Y-32856180D01*
X117502426Y-32856182D01*
X117345944Y-32904943D01*
X117345934Y-32904948D01*
X117205656Y-32989748D01*
X117089748Y-33105656D01*
X117004948Y-33245934D01*
X117004943Y-33245945D01*
X116956180Y-33402429D01*
X116950000Y-33470446D01*
X116050500Y-33470446D01*
X116050500Y-33470406D01*
X116044315Y-33402343D01*
X116044314Y-33402340D01*
X116044314Y-33402338D01*
X115995579Y-33245945D01*
X115995512Y-33245730D01*
X115910648Y-33105347D01*
X115794653Y-32989352D01*
X115654270Y-32904488D01*
X115654268Y-32904487D01*
X115654266Y-32904486D01*
X115497661Y-32855685D01*
X115470431Y-32853211D01*
X115429594Y-32849500D01*
X114570406Y-32849500D01*
X114533280Y-32852873D01*
X114502338Y-32855685D01*
X114345734Y-32904486D01*
X114345733Y-32904486D01*
X114205346Y-32989352D01*
X114089352Y-33105346D01*
X114004486Y-33245733D01*
X114004486Y-33245734D01*
X113955685Y-33402338D01*
X113952592Y-33436374D01*
X113949500Y-33470406D01*
X113049995Y-33470406D01*
X113043819Y-33402434D01*
X113043817Y-33402426D01*
X112995056Y-33245944D01*
X112995051Y-33245934D01*
X112910251Y-33105656D01*
X112794343Y-32989748D01*
X112654065Y-32904948D01*
X112654054Y-32904943D01*
X112497570Y-32856180D01*
X112429553Y-32850000D01*
X112400000Y-32850000D01*
X112400000Y-34100000D01*
X111600000Y-34100000D01*
X111600000Y-32850000D01*
X111599999Y-32849999D01*
X111570449Y-32850000D01*
X111570445Y-32850001D01*
X111502433Y-32856180D01*
X111502426Y-32856182D01*
X111345944Y-32904943D01*
X111345934Y-32904948D01*
X111205656Y-32989748D01*
X111089748Y-33105656D01*
X111004948Y-33245934D01*
X111004943Y-33245945D01*
X110956180Y-33402429D01*
X110950000Y-33470446D01*
X110050500Y-33470446D01*
X110050500Y-33470406D01*
X110044315Y-33402343D01*
X110044314Y-33402340D01*
X110044314Y-33402338D01*
X109995579Y-33245945D01*
X109995512Y-33245730D01*
X109910648Y-33105347D01*
X109794653Y-32989352D01*
X109654270Y-32904488D01*
X109654268Y-32904487D01*
X109654266Y-32904486D01*
X109497661Y-32855685D01*
X109470431Y-32853211D01*
X109429594Y-32849500D01*
X108570406Y-32849500D01*
X108533280Y-32852873D01*
X108502338Y-32855685D01*
X108345734Y-32904486D01*
X108345733Y-32904486D01*
X108205346Y-32989352D01*
X108089352Y-33105346D01*
X108004486Y-33245733D01*
X108004486Y-33245734D01*
X107955685Y-33402338D01*
X107952592Y-33436374D01*
X107949500Y-33470406D01*
X107049995Y-33470406D01*
X107043819Y-33402434D01*
X107043817Y-33402426D01*
X106995056Y-33245944D01*
X106995051Y-33245934D01*
X106910251Y-33105656D01*
X106794343Y-32989748D01*
X106654065Y-32904948D01*
X106654054Y-32904943D01*
X106497570Y-32856180D01*
X106429553Y-32850000D01*
X106400000Y-32850000D01*
X106400000Y-34100000D01*
X105600000Y-34100000D01*
X105600000Y-32850000D01*
X105599999Y-32849999D01*
X105570449Y-32850000D01*
X105570445Y-32850001D01*
X105502433Y-32856180D01*
X105502426Y-32856182D01*
X105345944Y-32904943D01*
X105345934Y-32904948D01*
X105205656Y-32989748D01*
X105089748Y-33105656D01*
X105004948Y-33245934D01*
X105004943Y-33245945D01*
X104956180Y-33402429D01*
X104950000Y-33470446D01*
X100215986Y-33470446D01*
X100215986Y-30649000D01*
X100235948Y-30574500D01*
X100290486Y-30519962D01*
X100364986Y-30500000D01*
X134351000Y-30500000D01*
X134425500Y-30519962D01*
G37*
%TD.AperFunction*%
%TD*%
%TA.AperFunction,Conductor*%
%TO.N,AGND*%
G36*
X77181143Y-73484549D02*
G01*
X77228443Y-73545470D01*
X77232656Y-73558059D01*
X77287635Y-73697473D01*
X77287638Y-73697479D01*
X77334919Y-73759827D01*
X77374922Y-73812578D01*
X77422778Y-73848868D01*
X77465928Y-73881591D01*
X77513228Y-73942513D01*
X77523729Y-74018923D01*
X77494619Y-74090346D01*
X77465927Y-74119038D01*
X77375280Y-74187777D01*
X77375277Y-74187780D01*
X77288075Y-74302773D01*
X77288075Y-74302774D01*
X77254664Y-74387499D01*
X77254665Y-74387500D01*
X77851000Y-74387500D01*
X77925500Y-74407462D01*
X77980038Y-74462000D01*
X78000000Y-74536500D01*
X78000000Y-74787500D01*
X78251000Y-74787500D01*
X78325500Y-74807462D01*
X78380038Y-74862000D01*
X78400000Y-74936500D01*
X78400000Y-75517693D01*
X78509725Y-75474424D01*
X78509726Y-75474424D01*
X78624719Y-75387222D01*
X78624722Y-75387219D01*
X78711924Y-75272226D01*
X78711924Y-75272225D01*
X78764867Y-75137968D01*
X78764868Y-75137966D01*
X78774999Y-75053602D01*
X78775000Y-75053600D01*
X78775000Y-75046896D01*
X78794962Y-74972396D01*
X78849500Y-74917858D01*
X78924000Y-74897896D01*
X78998500Y-74917858D01*
X79029359Y-74941537D01*
X79031410Y-74943588D01*
X79031411Y-74943589D01*
X79143711Y-75026469D01*
X79275451Y-75072567D01*
X79306728Y-75075500D01*
X79676679Y-75075500D01*
X79751179Y-75095462D01*
X79782030Y-75119134D01*
X79793355Y-75130459D01*
X79831921Y-75197250D01*
X79837000Y-75235820D01*
X79837000Y-75964178D01*
X79817038Y-76038678D01*
X79793359Y-76069537D01*
X79750901Y-76111995D01*
X79684106Y-76150559D01*
X79606978Y-76150559D01*
X79590880Y-76145247D01*
X79500590Y-76109640D01*
X79416147Y-76099500D01*
X79416144Y-76099500D01*
X78883856Y-76099500D01*
X78883852Y-76099500D01*
X78799409Y-76109640D01*
X78665026Y-76162635D01*
X78665020Y-76162638D01*
X78549924Y-76249920D01*
X78549920Y-76249924D01*
X78462638Y-76365020D01*
X78462635Y-76365026D01*
X78409640Y-76499409D01*
X78399500Y-76583852D01*
X78399500Y-77416147D01*
X78409640Y-77500590D01*
X78462635Y-77634973D01*
X78462638Y-77634979D01*
X78528605Y-77721968D01*
X78549922Y-77750078D01*
X78640534Y-77818792D01*
X78687832Y-77879711D01*
X78699500Y-77937513D01*
X78699500Y-78075500D01*
X78679538Y-78150000D01*
X78625000Y-78204538D01*
X78550500Y-78224500D01*
X78521352Y-78224500D01*
X78436909Y-78234640D01*
X78302526Y-78287635D01*
X78302520Y-78287638D01*
X78187424Y-78374920D01*
X78187420Y-78374924D01*
X78118723Y-78465514D01*
X78057801Y-78512814D01*
X77981391Y-78523315D01*
X77909968Y-78494205D01*
X77881277Y-78465514D01*
X77837254Y-78407462D01*
X77812578Y-78374922D01*
X77766187Y-78339742D01*
X77697479Y-78287638D01*
X77697473Y-78287635D01*
X77563090Y-78234640D01*
X77478647Y-78224500D01*
X77478644Y-78224500D01*
X76946356Y-78224500D01*
X76946352Y-78224500D01*
X76861909Y-78234640D01*
X76727526Y-78287635D01*
X76727520Y-78287638D01*
X76612424Y-78374920D01*
X76612420Y-78374924D01*
X76525138Y-78490020D01*
X76525135Y-78490026D01*
X76472140Y-78624409D01*
X76462000Y-78708852D01*
X76462000Y-79291147D01*
X76472140Y-79375590D01*
X76525135Y-79509973D01*
X76525138Y-79509979D01*
X76588833Y-79593972D01*
X76612422Y-79625078D01*
X76703034Y-79693792D01*
X76750332Y-79754711D01*
X76762000Y-79812513D01*
X76762000Y-80071811D01*
X76780139Y-80139506D01*
X76780142Y-80139513D01*
X76792701Y-80186389D01*
X76852006Y-80289107D01*
X76852009Y-80289111D01*
X76852011Y-80289114D01*
X76905860Y-80342963D01*
X76944423Y-80409756D01*
X76949500Y-80448320D01*
X76949500Y-80791147D01*
X76959640Y-80875590D01*
X77012635Y-81009973D01*
X77012638Y-81009979D01*
X77066982Y-81081641D01*
X77099922Y-81125078D01*
X77145376Y-81159547D01*
X77215020Y-81212361D01*
X77215023Y-81212362D01*
X77215025Y-81212364D01*
X77282217Y-81238861D01*
X77349409Y-81265359D01*
X77365260Y-81267262D01*
X77433856Y-81275500D01*
X77433857Y-81275500D01*
X77966143Y-81275500D01*
X77966144Y-81275500D01*
X78050590Y-81265359D01*
X78184975Y-81212364D01*
X78300078Y-81125078D01*
X78368779Y-81034482D01*
X78429698Y-80987185D01*
X78506108Y-80976683D01*
X78577532Y-81005793D01*
X78606218Y-81034479D01*
X78674922Y-81125078D01*
X78720376Y-81159547D01*
X78790020Y-81212361D01*
X78790023Y-81212362D01*
X78790025Y-81212364D01*
X78857217Y-81238861D01*
X78924409Y-81265359D01*
X78940260Y-81267262D01*
X79008856Y-81275500D01*
X79008857Y-81275500D01*
X79541143Y-81275500D01*
X79541144Y-81275500D01*
X79625590Y-81265359D01*
X79759975Y-81212364D01*
X79875078Y-81125078D01*
X79948802Y-81027859D01*
X79962749Y-81009468D01*
X80023671Y-80962168D01*
X80081472Y-80950500D01*
X81398126Y-80950500D01*
X81472626Y-80970462D01*
X81503485Y-80994141D01*
X81553458Y-81044114D01*
X81553461Y-81044116D01*
X81668184Y-81120772D01*
X81668186Y-81120773D01*
X81668189Y-81120775D01*
X81795672Y-81173580D01*
X81931007Y-81200500D01*
X82068993Y-81200500D01*
X82204328Y-81173580D01*
X82331811Y-81120775D01*
X82446542Y-81044114D01*
X82544114Y-80946542D01*
X82620775Y-80831811D01*
X82673580Y-80704328D01*
X82673580Y-80704327D01*
X82675342Y-80700074D01*
X82722294Y-80638884D01*
X82793551Y-80609368D01*
X82870019Y-80619435D01*
X82931209Y-80666387D01*
X82960725Y-80737644D01*
X82962000Y-80757093D01*
X82962000Y-80791147D01*
X82972140Y-80875590D01*
X83025135Y-81009973D01*
X83025138Y-81009979D01*
X83079482Y-81081641D01*
X83112422Y-81125078D01*
X83157876Y-81159547D01*
X83227520Y-81212361D01*
X83227523Y-81212362D01*
X83227525Y-81212364D01*
X83294717Y-81238861D01*
X83361909Y-81265359D01*
X83377760Y-81267262D01*
X83446356Y-81275500D01*
X83446357Y-81275500D01*
X83978643Y-81275500D01*
X83978644Y-81275500D01*
X84063090Y-81265359D01*
X84197475Y-81212364D01*
X84312578Y-81125078D01*
X84381279Y-81034482D01*
X84442198Y-80987185D01*
X84518608Y-80976683D01*
X84590032Y-81005793D01*
X84618718Y-81034479D01*
X84687422Y-81125078D01*
X84732876Y-81159547D01*
X84802520Y-81212361D01*
X84802523Y-81212362D01*
X84802525Y-81212364D01*
X84869717Y-81238861D01*
X84936909Y-81265359D01*
X84952760Y-81267262D01*
X85021356Y-81275500D01*
X85021357Y-81275500D01*
X85553643Y-81275500D01*
X85553644Y-81275500D01*
X85638090Y-81265359D01*
X85772475Y-81212364D01*
X85887578Y-81125078D01*
X85899416Y-81109468D01*
X85960337Y-81062168D01*
X86018139Y-81050500D01*
X86322475Y-81050500D01*
X86462485Y-81012984D01*
X86528511Y-80974864D01*
X86588015Y-80940510D01*
X86894641Y-80633882D01*
X86961436Y-80595319D01*
X87038564Y-80595319D01*
X87105359Y-80633883D01*
X87405859Y-80934383D01*
X87444423Y-81001178D01*
X87449500Y-81039742D01*
X87449500Y-82072476D01*
X87487016Y-82212487D01*
X87559488Y-82338011D01*
X87559489Y-82338012D01*
X87559491Y-82338015D01*
X87661985Y-82440509D01*
X87661987Y-82440510D01*
X87661988Y-82440511D01*
X87787512Y-82512983D01*
X87787514Y-82512983D01*
X87787515Y-82512984D01*
X87927525Y-82550500D01*
X100072475Y-82550500D01*
X100212485Y-82512984D01*
X100234108Y-82500500D01*
X100338015Y-82440510D01*
X101064408Y-81714116D01*
X101131201Y-81675554D01*
X101208329Y-81675554D01*
X101275124Y-81714118D01*
X101313688Y-81780913D01*
X101315902Y-81848544D01*
X101299500Y-81931005D01*
X101299500Y-82068993D01*
X101326419Y-82204325D01*
X101326420Y-82204329D01*
X101379224Y-82331809D01*
X101379227Y-82331815D01*
X101451856Y-82440511D01*
X101455886Y-82446542D01*
X101553458Y-82544114D01*
X101553461Y-82544116D01*
X101668184Y-82620772D01*
X101668186Y-82620773D01*
X101668189Y-82620775D01*
X101795672Y-82673580D01*
X101931007Y-82700500D01*
X102068993Y-82700500D01*
X102204328Y-82673580D01*
X102331811Y-82620775D01*
X102446542Y-82544114D01*
X102496515Y-82494141D01*
X102563310Y-82455577D01*
X102601874Y-82450500D01*
X113059306Y-82450500D01*
X113059309Y-82450500D01*
X113149673Y-82426286D01*
X113173887Y-82419799D01*
X113276614Y-82360489D01*
X117745644Y-77891458D01*
X117812436Y-77852897D01*
X117889564Y-77852897D01*
X117956359Y-77891461D01*
X117994923Y-77958256D01*
X118000000Y-77996820D01*
X118000000Y-83851000D01*
X117980038Y-83925500D01*
X117925500Y-83980038D01*
X117851000Y-84000000D01*
X73649000Y-84000000D01*
X73574500Y-83980038D01*
X73519962Y-83925500D01*
X73500000Y-83851000D01*
X73500000Y-78699500D01*
X73519962Y-78625000D01*
X73574500Y-78570462D01*
X73649000Y-78550500D01*
X74072475Y-78550500D01*
X74212485Y-78512984D01*
X74212780Y-78512814D01*
X74294705Y-78465514D01*
X74338015Y-78440509D01*
X74440509Y-78338015D01*
X74506047Y-78224500D01*
X74512983Y-78212487D01*
X74515113Y-78204538D01*
X74550500Y-78072475D01*
X74550500Y-77416102D01*
X75100000Y-77416102D01*
X75110131Y-77500466D01*
X75110132Y-77500468D01*
X75163075Y-77634725D01*
X75163075Y-77634726D01*
X75250277Y-77749719D01*
X75250280Y-77749722D01*
X75365274Y-77836924D01*
X75450000Y-77870335D01*
X75450000Y-77870334D01*
X76250000Y-77870334D01*
X76334725Y-77836924D01*
X76334726Y-77836924D01*
X76449719Y-77749722D01*
X76449722Y-77749719D01*
X76536924Y-77634726D01*
X76536924Y-77634725D01*
X76589867Y-77500468D01*
X76589868Y-77500466D01*
X76599999Y-77416102D01*
X76600000Y-77416100D01*
X76600000Y-77400000D01*
X76250000Y-77400000D01*
X76250000Y-77870334D01*
X75450000Y-77870334D01*
X75450000Y-77400000D01*
X75100000Y-77400000D01*
X75100000Y-77416102D01*
X74550500Y-77416102D01*
X74550500Y-76583897D01*
X75100000Y-76583897D01*
X75100000Y-76600000D01*
X75450000Y-76600000D01*
X76250000Y-76600000D01*
X76600000Y-76600000D01*
X76600000Y-76583899D01*
X76599999Y-76583897D01*
X76589868Y-76499533D01*
X76589867Y-76499531D01*
X76536924Y-76365274D01*
X76536924Y-76365273D01*
X76449722Y-76250280D01*
X76449719Y-76250277D01*
X76334725Y-76163075D01*
X76250000Y-76129664D01*
X76250000Y-76600000D01*
X75450000Y-76600000D01*
X75450000Y-76129664D01*
X75449999Y-76129664D01*
X75365274Y-76163075D01*
X75365273Y-76163075D01*
X75250280Y-76250277D01*
X75250277Y-76250280D01*
X75163075Y-76365273D01*
X75163075Y-76365274D01*
X75110132Y-76499531D01*
X75110131Y-76499533D01*
X75100000Y-76583897D01*
X74550500Y-76583897D01*
X74550500Y-75187500D01*
X77254664Y-75187500D01*
X77288075Y-75272225D01*
X77288075Y-75272226D01*
X77375277Y-75387219D01*
X77375280Y-75387222D01*
X77490274Y-75474424D01*
X77600000Y-75517693D01*
X77600000Y-75187500D01*
X77254664Y-75187500D01*
X74550500Y-75187500D01*
X74550500Y-74002243D01*
X74570462Y-73927743D01*
X74594141Y-73896884D01*
X74671884Y-73819141D01*
X74738679Y-73780577D01*
X74777243Y-73775500D01*
X74978643Y-73775500D01*
X74978644Y-73775500D01*
X75063090Y-73765359D01*
X75197475Y-73712364D01*
X75312578Y-73625078D01*
X75381279Y-73534482D01*
X75442198Y-73487185D01*
X75518608Y-73476683D01*
X75590032Y-73505793D01*
X75618718Y-73534479D01*
X75687422Y-73625078D01*
X75732876Y-73659547D01*
X75802520Y-73712361D01*
X75802523Y-73712362D01*
X75802525Y-73712364D01*
X75869717Y-73738861D01*
X75936909Y-73765359D01*
X75952760Y-73767262D01*
X76021356Y-73775500D01*
X76021357Y-73775500D01*
X76553643Y-73775500D01*
X76553644Y-73775500D01*
X76638090Y-73765359D01*
X76772475Y-73712364D01*
X76887578Y-73625078D01*
X76972388Y-73513239D01*
X77033309Y-73465940D01*
X77109719Y-73455439D01*
X77181143Y-73484549D01*
G37*
%TD.AperFunction*%
%TA.AperFunction,Conductor*%
G36*
X117925500Y-68519962D02*
G01*
X117980038Y-68574500D01*
X118000000Y-68649000D01*
X118000000Y-76301178D01*
X117980038Y-76375678D01*
X117956359Y-76406537D01*
X112857038Y-81505859D01*
X112790243Y-81544423D01*
X112751679Y-81549500D01*
X102601874Y-81549500D01*
X102527374Y-81529538D01*
X102496515Y-81505859D01*
X102446545Y-81455889D01*
X102446542Y-81455886D01*
X102436985Y-81449500D01*
X102331815Y-81379227D01*
X102331809Y-81379224D01*
X102204329Y-81326420D01*
X102204325Y-81326419D01*
X102068993Y-81299500D01*
X101931007Y-81299500D01*
X101931006Y-81299500D01*
X101848544Y-81315902D01*
X101771581Y-81310857D01*
X101707452Y-81268007D01*
X101673340Y-81198832D01*
X101678385Y-81121869D01*
X101714116Y-81064408D01*
X102378525Y-80400000D01*
X103524091Y-80400000D01*
X103525233Y-80403766D01*
X103622725Y-80586161D01*
X103622730Y-80586168D01*
X103753945Y-80746054D01*
X103913831Y-80877269D01*
X103913838Y-80877274D01*
X104096233Y-80974766D01*
X104100000Y-80975908D01*
X104900000Y-80975908D01*
X104903766Y-80974766D01*
X105086161Y-80877274D01*
X105086168Y-80877269D01*
X105246054Y-80746054D01*
X105377269Y-80586168D01*
X105377274Y-80586161D01*
X105474766Y-80403766D01*
X105475909Y-80400000D01*
X104900000Y-80400000D01*
X104900000Y-80975908D01*
X104100000Y-80975908D01*
X104100000Y-80400000D01*
X103524091Y-80400000D01*
X102378525Y-80400000D01*
X102940510Y-79838015D01*
X103012984Y-79712485D01*
X103031687Y-79642686D01*
X103043125Y-79600000D01*
X103524091Y-79600000D01*
X104100000Y-79600000D01*
X104900000Y-79600000D01*
X105475908Y-79600000D01*
X105474766Y-79596233D01*
X105377274Y-79413838D01*
X105377269Y-79413831D01*
X105246054Y-79253945D01*
X105086168Y-79122730D01*
X104903757Y-79025230D01*
X104900000Y-79024089D01*
X104900000Y-79600000D01*
X104100000Y-79600000D01*
X104100000Y-79024089D01*
X104096242Y-79025230D01*
X103913831Y-79122730D01*
X103753945Y-79253945D01*
X103622730Y-79413831D01*
X103622725Y-79413838D01*
X103525233Y-79596233D01*
X103524091Y-79600000D01*
X103043125Y-79600000D01*
X103044740Y-79593972D01*
X103045815Y-79589960D01*
X103045815Y-79589958D01*
X103050499Y-79572481D01*
X103050500Y-79572474D01*
X103050500Y-74193384D01*
X108324500Y-74193384D01*
X108324500Y-75106616D01*
X108330914Y-75177196D01*
X108381522Y-75339606D01*
X108410307Y-75387222D01*
X108469499Y-75485138D01*
X108469528Y-75485185D01*
X108589815Y-75605472D01*
X108735394Y-75693478D01*
X108824829Y-75721346D01*
X108890015Y-75762567D01*
X108925859Y-75830860D01*
X108929500Y-75863599D01*
X108929500Y-76706027D01*
X108909538Y-76780527D01*
X108855000Y-76835065D01*
X108819617Y-76849801D01*
X108810006Y-76852415D01*
X108707235Y-76897793D01*
X108627793Y-76977235D01*
X108582416Y-77080005D01*
X108582416Y-77080006D01*
X108582415Y-77080009D01*
X108579500Y-77105135D01*
X108579500Y-77105136D01*
X108579500Y-77105140D01*
X108579500Y-78894866D01*
X108582414Y-78919989D01*
X108582415Y-78919992D01*
X108627793Y-79022764D01*
X108627794Y-79022765D01*
X108707235Y-79102206D01*
X108810009Y-79147585D01*
X108835135Y-79150500D01*
X110624864Y-79150499D01*
X110624866Y-79150499D01*
X110637427Y-79149042D01*
X110649991Y-79147585D01*
X110752765Y-79102206D01*
X110809010Y-79045961D01*
X111789723Y-79045961D01*
X111789723Y-79045962D01*
X111828548Y-79065745D01*
X112000702Y-79121681D01*
X112000702Y-79121682D01*
X112179497Y-79150000D01*
X112360503Y-79150000D01*
X112539297Y-79121682D01*
X112539297Y-79121681D01*
X112711441Y-79065748D01*
X112711456Y-79065742D01*
X112750275Y-79045962D01*
X112750276Y-79045961D01*
X112270000Y-78565685D01*
X111789723Y-79045961D01*
X110809010Y-79045961D01*
X110832206Y-79022765D01*
X110877585Y-78919991D01*
X110880500Y-78894865D01*
X110880499Y-78385783D01*
X110900461Y-78311286D01*
X110954999Y-78256748D01*
X111029499Y-78236786D01*
X111103999Y-78256748D01*
X111158537Y-78311286D01*
X111171206Y-78339742D01*
X111204249Y-78441440D01*
X111204253Y-78441448D01*
X111224036Y-78480275D01*
X111704313Y-77999999D01*
X111638488Y-77934174D01*
X111770000Y-77934174D01*
X111770000Y-78065826D01*
X111804075Y-78192993D01*
X111869901Y-78307007D01*
X111962993Y-78400099D01*
X112077007Y-78465925D01*
X112204174Y-78500000D01*
X112335826Y-78500000D01*
X112462993Y-78465925D01*
X112577007Y-78400099D01*
X112670099Y-78307007D01*
X112735925Y-78192993D01*
X112770000Y-78065826D01*
X112770000Y-77999999D01*
X112835685Y-77999999D01*
X113315961Y-78480276D01*
X113315962Y-78480275D01*
X113335742Y-78441456D01*
X113335748Y-78441441D01*
X113391681Y-78269297D01*
X113391682Y-78269297D01*
X113420000Y-78090503D01*
X113420000Y-77909496D01*
X113391682Y-77730702D01*
X113335745Y-77558548D01*
X113315962Y-77519723D01*
X113315961Y-77519723D01*
X112835685Y-77999999D01*
X112770000Y-77999999D01*
X112770000Y-77934174D01*
X112735925Y-77807007D01*
X112670099Y-77692993D01*
X112577007Y-77599901D01*
X112462993Y-77534075D01*
X112335826Y-77500000D01*
X112204174Y-77500000D01*
X112077007Y-77534075D01*
X111962993Y-77599901D01*
X111869901Y-77692993D01*
X111804075Y-77807007D01*
X111770000Y-77934174D01*
X111638488Y-77934174D01*
X111224037Y-77519723D01*
X111204255Y-77558547D01*
X111204250Y-77558560D01*
X111171206Y-77660259D01*
X111129199Y-77724944D01*
X111060478Y-77759959D01*
X110983455Y-77755922D01*
X110918770Y-77713915D01*
X110883755Y-77645194D01*
X110880499Y-77614215D01*
X110880499Y-77105133D01*
X110877585Y-77080010D01*
X110877584Y-77080006D01*
X110871354Y-77065896D01*
X110832206Y-76977235D01*
X110809008Y-76954037D01*
X111789723Y-76954037D01*
X112269999Y-77434313D01*
X112750275Y-76954036D01*
X112711448Y-76934253D01*
X112539293Y-76878317D01*
X112360503Y-76850000D01*
X112179497Y-76850000D01*
X112000702Y-76878317D01*
X112000698Y-76878319D01*
X111828563Y-76934248D01*
X111828547Y-76934255D01*
X111789723Y-76954037D01*
X110809008Y-76954037D01*
X110752764Y-76897793D01*
X110649988Y-76852413D01*
X110640374Y-76849797D01*
X110573730Y-76810972D01*
X110535427Y-76744027D01*
X110530500Y-76706026D01*
X110530500Y-75526675D01*
X110550462Y-75452175D01*
X110551989Y-75449591D01*
X110581968Y-75400000D01*
X110618478Y-75339606D01*
X110669086Y-75177196D01*
X110675500Y-75106616D01*
X110675500Y-74193384D01*
X110669086Y-74122804D01*
X110618478Y-73960394D01*
X110530472Y-73814815D01*
X110410185Y-73694528D01*
X110410184Y-73694527D01*
X110320026Y-73640025D01*
X110264606Y-73606522D01*
X110102196Y-73555914D01*
X110031616Y-73549500D01*
X108968384Y-73549500D01*
X108906626Y-73555112D01*
X108897803Y-73555914D01*
X108735396Y-73606521D01*
X108735391Y-73606524D01*
X108589815Y-73694527D01*
X108469527Y-73814815D01*
X108402616Y-73925500D01*
X108392332Y-73942513D01*
X108381524Y-73960391D01*
X108381521Y-73960396D01*
X108330914Y-74122803D01*
X108330914Y-74122804D01*
X108324500Y-74193384D01*
X103050500Y-74193384D01*
X103050500Y-72237484D01*
X103070462Y-72162984D01*
X103125000Y-72108446D01*
X103146054Y-72099224D01*
X103146049Y-72099212D01*
X103154264Y-72095513D01*
X103154270Y-72095512D01*
X103294653Y-72010648D01*
X103410648Y-71894653D01*
X103495512Y-71754270D01*
X103544315Y-71597657D01*
X103550500Y-71529594D01*
X103550500Y-70949500D01*
X103570462Y-70875000D01*
X103625000Y-70820462D01*
X103699500Y-70800500D01*
X105266187Y-70800500D01*
X105340687Y-70820462D01*
X105360706Y-70834318D01*
X105413550Y-70877685D01*
X105413555Y-70877687D01*
X105413557Y-70877689D01*
X105547905Y-70949500D01*
X105596046Y-70975232D01*
X105794063Y-71035299D01*
X105794066Y-71035300D01*
X105927656Y-71048457D01*
X105970066Y-71059081D01*
X105970819Y-71059393D01*
X105970821Y-71059394D01*
X106116503Y-71119738D01*
X106271158Y-71150500D01*
X108373125Y-71150500D01*
X108447625Y-71170462D01*
X108478484Y-71194141D01*
X108589815Y-71305472D01*
X108735394Y-71393478D01*
X108897804Y-71444086D01*
X108968384Y-71450500D01*
X108968391Y-71450500D01*
X110031609Y-71450500D01*
X110031616Y-71450500D01*
X110102196Y-71444086D01*
X110264606Y-71393478D01*
X110410185Y-71305472D01*
X110530472Y-71185185D01*
X110618478Y-71039606D01*
X110669086Y-70877196D01*
X110675500Y-70806616D01*
X110675500Y-69893384D01*
X110669086Y-69822804D01*
X110618478Y-69660394D01*
X110530472Y-69514815D01*
X110410185Y-69394528D01*
X110410184Y-69394527D01*
X110338011Y-69350897D01*
X110264606Y-69306522D01*
X110229786Y-69295672D01*
X110102196Y-69255914D01*
X110031616Y-69249500D01*
X108968384Y-69249500D01*
X108906626Y-69255112D01*
X108897803Y-69255914D01*
X108735396Y-69306521D01*
X108735391Y-69306524D01*
X108589815Y-69394527D01*
X108478484Y-69505859D01*
X108411689Y-69544423D01*
X108373125Y-69549500D01*
X107039659Y-69549500D01*
X106965159Y-69529538D01*
X106910621Y-69475000D01*
X106908252Y-69470737D01*
X106908096Y-69470446D01*
X106887016Y-69431007D01*
X106877689Y-69413557D01*
X106877687Y-69413555D01*
X106877685Y-69413550D01*
X106746410Y-69253590D01*
X106737094Y-69245945D01*
X106642342Y-69168184D01*
X106586450Y-69122315D01*
X106586446Y-69122313D01*
X106586442Y-69122310D01*
X106403955Y-69024768D01*
X106205936Y-68964700D01*
X106205927Y-68964698D01*
X106051613Y-68949500D01*
X106051608Y-68949500D01*
X105948392Y-68949500D01*
X105948387Y-68949500D01*
X105794072Y-68964698D01*
X105794063Y-68964700D01*
X105596044Y-69024768D01*
X105413557Y-69122310D01*
X105413548Y-69122316D01*
X105391971Y-69140024D01*
X105360709Y-69165679D01*
X105290458Y-69197510D01*
X105266187Y-69199500D01*
X103551602Y-69199500D01*
X103477102Y-69179538D01*
X103424091Y-69127584D01*
X103410648Y-69105347D01*
X103294653Y-68989352D01*
X103245334Y-68959538D01*
X103154270Y-68904488D01*
X103154268Y-68904487D01*
X103154266Y-68904486D01*
X103146049Y-68900788D01*
X103146674Y-68899397D01*
X103089976Y-68863538D01*
X103054138Y-68795241D01*
X103050500Y-68762515D01*
X103050500Y-68649000D01*
X103070462Y-68574500D01*
X103125000Y-68519962D01*
X103199500Y-68500000D01*
X117851000Y-68500000D01*
X117925500Y-68519962D01*
G37*
%TD.AperFunction*%
%TA.AperFunction,Conductor*%
G36*
X101875000Y-68519962D02*
G01*
X101929538Y-68574500D01*
X101949500Y-68649000D01*
X101949500Y-68762515D01*
X101929538Y-68837015D01*
X101875000Y-68891553D01*
X101853945Y-68900775D01*
X101853951Y-68900788D01*
X101845733Y-68904486D01*
X101705346Y-68989352D01*
X101589352Y-69105346D01*
X101504486Y-69245733D01*
X101504486Y-69245734D01*
X101455685Y-69402338D01*
X101454666Y-69413557D01*
X101449500Y-69470406D01*
X101449500Y-71529594D01*
X101451686Y-71553647D01*
X101455685Y-71597661D01*
X101504486Y-71754265D01*
X101504486Y-71754266D01*
X101504487Y-71754268D01*
X101504488Y-71754270D01*
X101589352Y-71894653D01*
X101705347Y-72010648D01*
X101845730Y-72095512D01*
X101845732Y-72095512D01*
X101845733Y-72095513D01*
X101853951Y-72099212D01*
X101853324Y-72100604D01*
X101910012Y-72136448D01*
X101945858Y-72204740D01*
X101949500Y-72237484D01*
X101949500Y-79210257D01*
X101929538Y-79284757D01*
X101905859Y-79315616D01*
X99815616Y-81405859D01*
X99748821Y-81444423D01*
X99710257Y-81449500D01*
X97834821Y-81449500D01*
X97760321Y-81429538D01*
X97705783Y-81375000D01*
X97685821Y-81300500D01*
X97705783Y-81226000D01*
X97729462Y-81195141D01*
X97842962Y-81081641D01*
X97909757Y-81043077D01*
X97948321Y-81038000D01*
X98291143Y-81038000D01*
X98291144Y-81038000D01*
X98375590Y-81027859D01*
X98509975Y-80974864D01*
X98625078Y-80887578D01*
X98693792Y-80796965D01*
X98754711Y-80749668D01*
X98812513Y-80738000D01*
X98846809Y-80738000D01*
X98942032Y-80712485D01*
X98956777Y-80708534D01*
X98961388Y-80707299D01*
X98961388Y-80707298D01*
X99064114Y-80647989D01*
X99217962Y-80494141D01*
X99284757Y-80455577D01*
X99323321Y-80450500D01*
X99559309Y-80450500D01*
X99673886Y-80419799D01*
X99776613Y-80360489D01*
X99860489Y-80276613D01*
X99919799Y-80173886D01*
X99950500Y-80059309D01*
X99950500Y-79593972D01*
X99970462Y-79519472D01*
X100009468Y-79475249D01*
X100062126Y-79435316D01*
X100125078Y-79387578D01*
X100212364Y-79272475D01*
X100265359Y-79138090D01*
X100275500Y-79053644D01*
X100275500Y-78521356D01*
X100265903Y-78441440D01*
X100265359Y-78436909D01*
X100230889Y-78349500D01*
X100212364Y-78302525D01*
X100212362Y-78302523D01*
X100212361Y-78302520D01*
X100149333Y-78219407D01*
X100125078Y-78187422D01*
X100034482Y-78118720D01*
X99987185Y-78057802D01*
X99976683Y-77981392D01*
X100005793Y-77909968D01*
X100034479Y-77881281D01*
X100125078Y-77812578D01*
X100212364Y-77697475D01*
X100265359Y-77563090D01*
X100275500Y-77478644D01*
X100275500Y-76946356D01*
X100265359Y-76861910D01*
X100260662Y-76850000D01*
X100221030Y-76749500D01*
X100212364Y-76727525D01*
X100212362Y-76727523D01*
X100212361Y-76727520D01*
X100153032Y-76649285D01*
X100125078Y-76612422D01*
X100087465Y-76583899D01*
X100009979Y-76525138D01*
X100009973Y-76525135D01*
X99875590Y-76472140D01*
X99791147Y-76462000D01*
X99791144Y-76462000D01*
X99208856Y-76462000D01*
X99208852Y-76462000D01*
X99124409Y-76472140D01*
X98990026Y-76525135D01*
X98990020Y-76525138D01*
X98874924Y-76612420D01*
X98874923Y-76612421D01*
X98874922Y-76612422D01*
X98806207Y-76703034D01*
X98745289Y-76750332D01*
X98687487Y-76762000D01*
X97312513Y-76762000D01*
X97238013Y-76742038D01*
X97193792Y-76703035D01*
X97125078Y-76612422D01*
X97087465Y-76583899D01*
X97009979Y-76525138D01*
X97009973Y-76525135D01*
X96875590Y-76472140D01*
X96791147Y-76462000D01*
X96791144Y-76462000D01*
X96208856Y-76462000D01*
X96208852Y-76462000D01*
X96124409Y-76472140D01*
X95990026Y-76525135D01*
X95990020Y-76525138D01*
X95874924Y-76612420D01*
X95874919Y-76612425D01*
X95868721Y-76620599D01*
X95807798Y-76667897D01*
X95731388Y-76678397D01*
X95659965Y-76649285D01*
X95631279Y-76620599D01*
X95625080Y-76612425D01*
X95625078Y-76612422D01*
X95587465Y-76583899D01*
X95509979Y-76525138D01*
X95509973Y-76525135D01*
X95375590Y-76472140D01*
X95291147Y-76462000D01*
X95291144Y-76462000D01*
X94708856Y-76462000D01*
X94708852Y-76462000D01*
X94624409Y-76472140D01*
X94490026Y-76525135D01*
X94490020Y-76525138D01*
X94374924Y-76612420D01*
X94374919Y-76612425D01*
X94368721Y-76620599D01*
X94307798Y-76667897D01*
X94231388Y-76678397D01*
X94159965Y-76649285D01*
X94131279Y-76620599D01*
X94125080Y-76612425D01*
X94125078Y-76612422D01*
X94087465Y-76583899D01*
X94009979Y-76525138D01*
X94009973Y-76525135D01*
X93875590Y-76472140D01*
X93791147Y-76462000D01*
X93791144Y-76462000D01*
X93208856Y-76462000D01*
X93208852Y-76462000D01*
X93124409Y-76472140D01*
X92990026Y-76525135D01*
X92990020Y-76525138D01*
X92874924Y-76612420D01*
X92874920Y-76612424D01*
X92815689Y-76690532D01*
X92754768Y-76737832D01*
X92696966Y-76749500D01*
X92099500Y-76749500D01*
X92025000Y-76729538D01*
X91970462Y-76675000D01*
X91950500Y-76600500D01*
X91950500Y-76514366D01*
X91950499Y-76514353D01*
X91939866Y-76441376D01*
X91939864Y-76441370D01*
X91884827Y-76328790D01*
X91796209Y-76240172D01*
X91683629Y-76185135D01*
X91683623Y-76185133D01*
X91610646Y-76174500D01*
X91610636Y-76174500D01*
X91389364Y-76174500D01*
X91389353Y-76174500D01*
X91334210Y-76182535D01*
X91257610Y-76173522D01*
X91195779Y-76127417D01*
X91165285Y-76056574D01*
X91174298Y-75979974D01*
X91207367Y-75929735D01*
X91642962Y-75494141D01*
X91709757Y-75455577D01*
X91748321Y-75450500D01*
X96087393Y-75450500D01*
X96161893Y-75470462D01*
X96216431Y-75525000D01*
X96235118Y-75580052D01*
X96238973Y-75609337D01*
X96238991Y-75609471D01*
X96295719Y-75746427D01*
X96308104Y-75762567D01*
X96385964Y-75864036D01*
X96503571Y-75954279D01*
X96503572Y-75954279D01*
X96503573Y-75954280D01*
X96640528Y-76011009D01*
X96640533Y-76011010D01*
X96680260Y-76016239D01*
X96750599Y-76025500D01*
X97349400Y-76025499D01*
X97459472Y-76011009D01*
X97596429Y-75954279D01*
X97714036Y-75864036D01*
X97804279Y-75746429D01*
X97807771Y-75738000D01*
X97859787Y-75612422D01*
X97861009Y-75609472D01*
X97861009Y-75609470D01*
X97862612Y-75605601D01*
X97909564Y-75544411D01*
X97980821Y-75514895D01*
X98057289Y-75524962D01*
X98118479Y-75571914D01*
X98137928Y-75605600D01*
X98196156Y-75746176D01*
X98286319Y-75863679D01*
X98286320Y-75863680D01*
X98403823Y-75953843D01*
X98540656Y-76010521D01*
X98540659Y-76010522D01*
X98549999Y-76011751D01*
X99350000Y-76011751D01*
X99359340Y-76010522D01*
X99359343Y-76010521D01*
X99496176Y-75953843D01*
X99613679Y-75863680D01*
X99613680Y-75863679D01*
X99703843Y-75746176D01*
X99760523Y-75609337D01*
X99774999Y-75499375D01*
X99775000Y-75499370D01*
X99775000Y-75400000D01*
X99350000Y-75400000D01*
X99350000Y-76011751D01*
X98549999Y-76011751D01*
X98550000Y-76011750D01*
X98550000Y-74600000D01*
X99350000Y-74600000D01*
X99775000Y-74600000D01*
X99775000Y-74500630D01*
X99774999Y-74500624D01*
X99760523Y-74390662D01*
X99703843Y-74253823D01*
X99613680Y-74136320D01*
X99613679Y-74136319D01*
X99496176Y-74046156D01*
X99359342Y-73989478D01*
X99350000Y-73988248D01*
X99350000Y-74600000D01*
X98550000Y-74600000D01*
X98550000Y-73988248D01*
X98540657Y-73989478D01*
X98403823Y-74046156D01*
X98286320Y-74136319D01*
X98286319Y-74136320D01*
X98196156Y-74253823D01*
X98137928Y-74394400D01*
X98090975Y-74455590D01*
X98019718Y-74485105D01*
X97943250Y-74475038D01*
X97882060Y-74428085D01*
X97862612Y-74394399D01*
X97859754Y-74387500D01*
X97828721Y-74312578D01*
X97804281Y-74253574D01*
X97787518Y-74231728D01*
X97714036Y-74135964D01*
X97596429Y-74045721D01*
X97596428Y-74045720D01*
X97596426Y-74045719D01*
X97459471Y-73988990D01*
X97459466Y-73988989D01*
X97349403Y-73974500D01*
X96750603Y-73974500D01*
X96640528Y-73988991D01*
X96503572Y-74045719D01*
X96385964Y-74135964D01*
X96295719Y-74253573D01*
X96258416Y-74343631D01*
X96211463Y-74404821D01*
X96140206Y-74434336D01*
X96063738Y-74424269D01*
X96032110Y-74400000D01*
X95436500Y-74400000D01*
X95362000Y-74380038D01*
X95307462Y-74325500D01*
X95287500Y-74251000D01*
X95287500Y-74000000D01*
X95036500Y-74000000D01*
X94962000Y-73980038D01*
X94907462Y-73925500D01*
X94887500Y-73851000D01*
X94887500Y-73600000D01*
X95687500Y-73600000D01*
X96017694Y-73600000D01*
X96017694Y-73599999D01*
X95974424Y-73490273D01*
X95974421Y-73490269D01*
X95887222Y-73375280D01*
X95887219Y-73375277D01*
X95772225Y-73288075D01*
X95687500Y-73254664D01*
X95687500Y-73600000D01*
X94887500Y-73600000D01*
X94887500Y-73254664D01*
X94887499Y-73254664D01*
X94802774Y-73288075D01*
X94802773Y-73288075D01*
X94687780Y-73375277D01*
X94687777Y-73375280D01*
X94619038Y-73465927D01*
X94558116Y-73513227D01*
X94481707Y-73523730D01*
X94410283Y-73494620D01*
X94381591Y-73465928D01*
X94348868Y-73422778D01*
X94312578Y-73374922D01*
X94288383Y-73356574D01*
X94197479Y-73287638D01*
X94197473Y-73287635D01*
X94063090Y-73234640D01*
X93978647Y-73224500D01*
X93978644Y-73224500D01*
X93446356Y-73224500D01*
X93446352Y-73224500D01*
X93361909Y-73234640D01*
X93227526Y-73287635D01*
X93227520Y-73287638D01*
X93112424Y-73374920D01*
X93112420Y-73374924D01*
X93024751Y-73490532D01*
X92963829Y-73537832D01*
X92906028Y-73549500D01*
X92099000Y-73549500D01*
X92024500Y-73529538D01*
X91969962Y-73475000D01*
X91950000Y-73400500D01*
X91950000Y-72950000D01*
X91649000Y-72950000D01*
X91574500Y-72930038D01*
X91519962Y-72875500D01*
X91500000Y-72801000D01*
X91500000Y-72799000D01*
X91519962Y-72724500D01*
X91574500Y-72669962D01*
X91649000Y-72650000D01*
X91950000Y-72650000D01*
X91950000Y-72114414D01*
X91949999Y-72114402D01*
X91939380Y-72041519D01*
X91884414Y-71929084D01*
X91795915Y-71840585D01*
X91683481Y-71785619D01*
X91669337Y-71783559D01*
X91598494Y-71753063D01*
X91552390Y-71691232D01*
X91543378Y-71614632D01*
X91573874Y-71543789D01*
X91589153Y-71529553D01*
X98450001Y-71529553D01*
X98456180Y-71597565D01*
X98456182Y-71597573D01*
X98504943Y-71754055D01*
X98504948Y-71754065D01*
X98589748Y-71894343D01*
X98705656Y-72010251D01*
X98845934Y-72095051D01*
X98845945Y-72095056D01*
X99002429Y-72143819D01*
X99070446Y-72149999D01*
X99900000Y-72149999D01*
X99929552Y-72149999D01*
X99929553Y-72149998D01*
X99997565Y-72143819D01*
X99997573Y-72143817D01*
X100154055Y-72095056D01*
X100154065Y-72095051D01*
X100294343Y-72010251D01*
X100410251Y-71894343D01*
X100495051Y-71754065D01*
X100495056Y-71754054D01*
X100543819Y-71597570D01*
X100550000Y-71529553D01*
X100550000Y-70900000D01*
X99900000Y-70900000D01*
X99900000Y-72149999D01*
X99070446Y-72149999D01*
X99099999Y-72149998D01*
X99100000Y-72149998D01*
X99100000Y-70900000D01*
X98450001Y-70900000D01*
X98450001Y-71529553D01*
X91589153Y-71529553D01*
X91600000Y-71519447D01*
X91600000Y-71517693D01*
X92400000Y-71517693D01*
X92509725Y-71474424D01*
X92509726Y-71474424D01*
X92624719Y-71387222D01*
X92624722Y-71387219D01*
X92711924Y-71272226D01*
X92711924Y-71272225D01*
X92745335Y-71187500D01*
X92400000Y-71187500D01*
X92400000Y-71517693D01*
X91600000Y-71517693D01*
X91600000Y-70936500D01*
X91619962Y-70862000D01*
X91674500Y-70807462D01*
X91749000Y-70787500D01*
X92000000Y-70787500D01*
X92000000Y-70536500D01*
X92019962Y-70462000D01*
X92074500Y-70407462D01*
X92149000Y-70387500D01*
X92745335Y-70387500D01*
X92745335Y-70387499D01*
X92711924Y-70302774D01*
X92711924Y-70302773D01*
X92624722Y-70187780D01*
X92624719Y-70187777D01*
X92534072Y-70119038D01*
X92486772Y-70058117D01*
X92476269Y-69981707D01*
X92505379Y-69910283D01*
X92534065Y-69881595D01*
X92625078Y-69812578D01*
X92712364Y-69697475D01*
X92765359Y-69563090D01*
X92773436Y-69495829D01*
X92780773Y-69470446D01*
X98450000Y-69470446D01*
X98450000Y-70100000D01*
X99100000Y-70100000D01*
X99900000Y-70100000D01*
X100549999Y-70100000D01*
X100549999Y-69470448D01*
X100549998Y-69470446D01*
X100543819Y-69402434D01*
X100543817Y-69402426D01*
X100495056Y-69245944D01*
X100495051Y-69245934D01*
X100410251Y-69105656D01*
X100294343Y-68989748D01*
X100154065Y-68904948D01*
X100154054Y-68904943D01*
X99997570Y-68856180D01*
X99929553Y-68850000D01*
X99900000Y-68850000D01*
X99900000Y-70100000D01*
X99100000Y-70100000D01*
X99100000Y-68850000D01*
X99099999Y-68849999D01*
X99070449Y-68850000D01*
X99070445Y-68850001D01*
X99002433Y-68856180D01*
X99002426Y-68856182D01*
X98845944Y-68904943D01*
X98845934Y-68904948D01*
X98705656Y-68989748D01*
X98589748Y-69105656D01*
X98504948Y-69245934D01*
X98504943Y-69245945D01*
X98456180Y-69402429D01*
X98450000Y-69470446D01*
X92780773Y-69470446D01*
X92786772Y-69449693D01*
X92789332Y-69444298D01*
X92800484Y-69424985D01*
X92838000Y-69284975D01*
X92838000Y-69140025D01*
X92800484Y-69000015D01*
X92792333Y-68985898D01*
X92773435Y-68929164D01*
X92772707Y-68923104D01*
X92765359Y-68861910D01*
X92765358Y-68861908D01*
X92726162Y-68762515D01*
X92712364Y-68727525D01*
X92712362Y-68727522D01*
X92709270Y-68722022D01*
X92690160Y-68647299D01*
X92710971Y-68573032D01*
X92766128Y-68519120D01*
X92839150Y-68500000D01*
X101800500Y-68500000D01*
X101875000Y-68519962D01*
G37*
%TD.AperFunction*%
%TA.AperFunction,Conductor*%
G36*
X92752507Y-77670462D02*
G01*
X92796730Y-77709468D01*
X92808509Y-77725000D01*
X92874922Y-77812578D01*
X92907027Y-77836924D01*
X92965928Y-77881591D01*
X93013228Y-77942513D01*
X93023729Y-78018923D01*
X92994619Y-78090346D01*
X92965927Y-78119038D01*
X92875280Y-78187777D01*
X92875277Y-78187780D01*
X92788075Y-78302773D01*
X92788075Y-78302774D01*
X92754664Y-78387499D01*
X92754665Y-78387500D01*
X93351000Y-78387500D01*
X93425500Y-78407462D01*
X93480038Y-78462000D01*
X93500000Y-78536500D01*
X93500000Y-78787500D01*
X93751000Y-78787500D01*
X93825500Y-78807462D01*
X93880038Y-78862000D01*
X93900000Y-78936500D01*
X93900000Y-79517693D01*
X94009725Y-79474424D01*
X94009726Y-79474424D01*
X94124719Y-79387222D01*
X94130958Y-79378995D01*
X94191878Y-79331692D01*
X94268287Y-79321187D01*
X94339712Y-79350293D01*
X94368407Y-79378987D01*
X94368723Y-79379403D01*
X94374921Y-79387577D01*
X94382133Y-79394789D01*
X94379673Y-79397248D01*
X94415520Y-79443428D01*
X94426014Y-79519839D01*
X94402073Y-79583992D01*
X94379226Y-79618185D01*
X94379224Y-79618190D01*
X94326420Y-79745670D01*
X94326419Y-79745674D01*
X94299500Y-79881006D01*
X94299500Y-80018993D01*
X94326419Y-80154325D01*
X94326420Y-80154329D01*
X94349006Y-80208856D01*
X94379225Y-80281811D01*
X94403218Y-80317719D01*
X94428011Y-80390753D01*
X94412965Y-80466399D01*
X94362112Y-80524388D01*
X94289077Y-80549181D01*
X94279330Y-80549500D01*
X93248321Y-80549500D01*
X93173821Y-80529538D01*
X93142962Y-80505859D01*
X91824603Y-79187500D01*
X92754664Y-79187500D01*
X92788075Y-79272225D01*
X92788075Y-79272226D01*
X92875277Y-79387219D01*
X92875280Y-79387222D01*
X92990274Y-79474424D01*
X93100000Y-79517693D01*
X93100000Y-79187500D01*
X92754664Y-79187500D01*
X91824603Y-79187500D01*
X91494141Y-78857038D01*
X91455577Y-78790243D01*
X91450500Y-78751679D01*
X91450500Y-78374500D01*
X91470462Y-78300000D01*
X91525000Y-78245462D01*
X91599500Y-78225500D01*
X91610633Y-78225500D01*
X91610636Y-78225500D01*
X91610639Y-78225499D01*
X91610646Y-78225499D01*
X91655206Y-78219006D01*
X91683625Y-78214866D01*
X91796211Y-78159826D01*
X91884826Y-78071211D01*
X91939866Y-77958625D01*
X91948427Y-77899864D01*
X91950499Y-77885646D01*
X91950500Y-77885633D01*
X91950500Y-77799500D01*
X91970462Y-77725000D01*
X92025000Y-77670462D01*
X92099500Y-77650500D01*
X92678007Y-77650500D01*
X92752507Y-77670462D01*
G37*
%TD.AperFunction*%
%TA.AperFunction,Conductor*%
G36*
X80449779Y-76869345D02*
G01*
X80465929Y-76881591D01*
X80513228Y-76942512D01*
X80523730Y-77018922D01*
X80494620Y-77090346D01*
X80465927Y-77119038D01*
X80375280Y-77187777D01*
X80375277Y-77187780D01*
X80288075Y-77302773D01*
X80288075Y-77302774D01*
X80254664Y-77387499D01*
X80254665Y-77387500D01*
X80851000Y-77387500D01*
X80925500Y-77407462D01*
X80980038Y-77462000D01*
X81000000Y-77536500D01*
X81000000Y-77787500D01*
X81251000Y-77787500D01*
X81325500Y-77807462D01*
X81380038Y-77862000D01*
X81400000Y-77936500D01*
X81400000Y-78517694D01*
X81419076Y-78530678D01*
X81422465Y-78530291D01*
X81493209Y-78561018D01*
X81539111Y-78623000D01*
X81549500Y-78677663D01*
X81549500Y-79059310D01*
X81551225Y-79065748D01*
X81573934Y-79150499D01*
X81580202Y-79173889D01*
X81639506Y-79276606D01*
X81639509Y-79276610D01*
X81639511Y-79276613D01*
X81723387Y-79360489D01*
X81723389Y-79360490D01*
X81723393Y-79360493D01*
X81826110Y-79419797D01*
X81826111Y-79419797D01*
X81826114Y-79419799D01*
X81940691Y-79450500D01*
X82059309Y-79450500D01*
X82906028Y-79450500D01*
X82980528Y-79470462D01*
X83024751Y-79509468D01*
X83053320Y-79547141D01*
X83112422Y-79625078D01*
X83120596Y-79631277D01*
X83167895Y-79692196D01*
X83178398Y-79768606D01*
X83149288Y-79840030D01*
X83120604Y-79868716D01*
X83112428Y-79874916D01*
X83112420Y-79874924D01*
X83025138Y-79990020D01*
X83025135Y-79990026D01*
X82972140Y-80124409D01*
X82962000Y-80208852D01*
X82962000Y-80242906D01*
X82942038Y-80317406D01*
X82887500Y-80371944D01*
X82813000Y-80391906D01*
X82738500Y-80371944D01*
X82683962Y-80317406D01*
X82675342Y-80299926D01*
X82673580Y-80295672D01*
X82620775Y-80168189D01*
X82611513Y-80154328D01*
X82544116Y-80053461D01*
X82544114Y-80053458D01*
X82446542Y-79955886D01*
X82436985Y-79949500D01*
X82331815Y-79879227D01*
X82331809Y-79879224D01*
X82204329Y-79826420D01*
X82204325Y-79826419D01*
X82068993Y-79799500D01*
X81931007Y-79799500D01*
X81795674Y-79826419D01*
X81795670Y-79826420D01*
X81668190Y-79879224D01*
X81668184Y-79879227D01*
X81553461Y-79955883D01*
X81553454Y-79955889D01*
X81503485Y-80005859D01*
X81436690Y-80044423D01*
X81398126Y-80049500D01*
X80081472Y-80049500D01*
X80006972Y-80029538D01*
X79962749Y-79990532D01*
X79879692Y-79881007D01*
X79875078Y-79874922D01*
X79850883Y-79856574D01*
X79759979Y-79787638D01*
X79759973Y-79787635D01*
X79625591Y-79734641D01*
X79587465Y-79730062D01*
X79515877Y-79701358D01*
X79468232Y-79640706D01*
X79457296Y-79564357D01*
X79471876Y-79519752D01*
X79471125Y-79519456D01*
X79523132Y-79387578D01*
X79527859Y-79375590D01*
X79538000Y-79291144D01*
X79538000Y-78906387D01*
X79557962Y-78831887D01*
X79557964Y-78831885D01*
X79569797Y-78811390D01*
X79569798Y-78811388D01*
X79579116Y-78776613D01*
X79600500Y-78696809D01*
X79600500Y-78187500D01*
X80254664Y-78187500D01*
X80288075Y-78272225D01*
X80288075Y-78272226D01*
X80375277Y-78387219D01*
X80375280Y-78387222D01*
X80490274Y-78474424D01*
X80600000Y-78517693D01*
X80600000Y-78187500D01*
X80254664Y-78187500D01*
X79600500Y-78187500D01*
X79600500Y-77937513D01*
X79620462Y-77863013D01*
X79659464Y-77818792D01*
X79750078Y-77750078D01*
X79837364Y-77634975D01*
X79890359Y-77500590D01*
X79900500Y-77416144D01*
X79900500Y-77298320D01*
X79920462Y-77223820D01*
X79944138Y-77192964D01*
X80254391Y-76882710D01*
X80321186Y-76844147D01*
X80398314Y-76844147D01*
X80449779Y-76869345D01*
G37*
%TD.AperFunction*%
%TA.AperFunction,Conductor*%
G36*
X87735930Y-68519962D02*
G01*
X87790468Y-68574500D01*
X87810430Y-68649000D01*
X87791304Y-68722033D01*
X87788075Y-68727775D01*
X87754664Y-68812499D01*
X87754665Y-68812500D01*
X89245335Y-68812500D01*
X89245335Y-68812499D01*
X89211924Y-68727775D01*
X89208696Y-68722033D01*
X89189580Y-68647311D01*
X89210385Y-68573042D01*
X89265537Y-68519126D01*
X89338570Y-68500000D01*
X90447258Y-68500000D01*
X90521758Y-68519962D01*
X90552617Y-68543641D01*
X90554117Y-68545141D01*
X90592681Y-68611936D01*
X90592681Y-68689064D01*
X90554117Y-68755859D01*
X90487322Y-68794423D01*
X90448758Y-68799500D01*
X90431007Y-68799500D01*
X90295674Y-68826419D01*
X90295670Y-68826420D01*
X90168190Y-68879224D01*
X90168184Y-68879227D01*
X90053461Y-68955883D01*
X90053454Y-68955889D01*
X89955889Y-69053454D01*
X89955883Y-69053461D01*
X89879227Y-69168184D01*
X89879224Y-69168190D01*
X89826420Y-69295670D01*
X89826419Y-69295674D01*
X89799500Y-69431006D01*
X89799500Y-69568993D01*
X89826419Y-69704325D01*
X89826420Y-69704329D01*
X89879224Y-69831809D01*
X89879227Y-69831815D01*
X89955883Y-69946538D01*
X89955889Y-69946545D01*
X90005859Y-69996515D01*
X90016601Y-70015121D01*
X90031401Y-70030698D01*
X90035971Y-70048671D01*
X90044423Y-70063310D01*
X90044423Y-70081908D01*
X90049500Y-70101874D01*
X90049500Y-70340178D01*
X90029538Y-70414678D01*
X89975000Y-70469216D01*
X89900500Y-70489178D01*
X89826000Y-70469216D01*
X89795143Y-70445539D01*
X89776615Y-70427012D01*
X89776609Y-70427007D01*
X89673890Y-70367702D01*
X89673887Y-70367701D01*
X89649673Y-70361213D01*
X89559309Y-70337000D01*
X89312513Y-70337000D01*
X89238013Y-70317038D01*
X89193792Y-70278035D01*
X89125078Y-70187422D01*
X89099604Y-70168105D01*
X89034071Y-70118408D01*
X88986771Y-70057486D01*
X88976270Y-69981076D01*
X89005380Y-69909653D01*
X89034073Y-69880960D01*
X89124721Y-69812220D01*
X89124722Y-69812219D01*
X89211924Y-69697226D01*
X89211924Y-69697225D01*
X89245335Y-69612500D01*
X87754664Y-69612500D01*
X87788075Y-69697225D01*
X87788075Y-69697226D01*
X87875277Y-69812219D01*
X87875280Y-69812222D01*
X87965927Y-69880961D01*
X88013227Y-69941882D01*
X88023730Y-70018291D01*
X87994620Y-70089716D01*
X87965929Y-70118408D01*
X87874922Y-70187422D01*
X87874920Y-70187424D01*
X87787638Y-70302520D01*
X87787635Y-70302526D01*
X87734640Y-70436909D01*
X87724500Y-70521352D01*
X87724500Y-71053647D01*
X87734640Y-71138090D01*
X87787635Y-71272473D01*
X87787638Y-71272479D01*
X87832446Y-71331566D01*
X87874922Y-71387578D01*
X87885494Y-71395595D01*
X87990020Y-71474861D01*
X87990023Y-71474862D01*
X87990025Y-71474864D01*
X88046809Y-71497257D01*
X88124409Y-71527859D01*
X88134894Y-71529118D01*
X88208856Y-71538000D01*
X88208857Y-71538000D01*
X88791143Y-71538000D01*
X88791144Y-71538000D01*
X88875590Y-71527859D01*
X89009975Y-71474864D01*
X89125078Y-71387578D01*
X89167555Y-71331563D01*
X89228473Y-71284266D01*
X89304882Y-71273763D01*
X89376307Y-71302873D01*
X89391635Y-71316238D01*
X89505859Y-71430462D01*
X89544423Y-71497257D01*
X89549500Y-71535821D01*
X89549500Y-71625500D01*
X89529538Y-71700000D01*
X89475000Y-71754538D01*
X89400500Y-71774500D01*
X89389353Y-71774500D01*
X89316376Y-71785133D01*
X89316370Y-71785135D01*
X89203790Y-71840172D01*
X89115172Y-71928790D01*
X89060135Y-72041370D01*
X89060133Y-72041376D01*
X89049500Y-72114353D01*
X89049500Y-72200500D01*
X89029538Y-72275000D01*
X88975000Y-72329538D01*
X88900500Y-72349500D01*
X88353191Y-72349500D01*
X88337806Y-72353622D01*
X88260678Y-72353620D01*
X88193883Y-72315055D01*
X88161586Y-72266717D01*
X88159626Y-72261986D01*
X88120775Y-72168189D01*
X88104491Y-72143819D01*
X88044116Y-72053461D01*
X88044114Y-72053458D01*
X87946542Y-71955886D01*
X87946538Y-71955883D01*
X87831815Y-71879227D01*
X87831809Y-71879224D01*
X87704329Y-71826420D01*
X87704325Y-71826419D01*
X87568993Y-71799500D01*
X87498321Y-71799500D01*
X87423821Y-71779538D01*
X87392962Y-71755859D01*
X86819141Y-71182038D01*
X86780577Y-71115243D01*
X86775500Y-71076679D01*
X86775500Y-71021357D01*
X86775500Y-71021356D01*
X86766871Y-70949500D01*
X86765359Y-70936909D01*
X86713977Y-70806616D01*
X86712364Y-70802525D01*
X86712362Y-70802523D01*
X86712361Y-70802520D01*
X86634537Y-70699896D01*
X86625078Y-70687422D01*
X86599604Y-70668105D01*
X86534071Y-70618408D01*
X86486771Y-70557486D01*
X86476270Y-70481076D01*
X86505380Y-70409653D01*
X86534073Y-70380960D01*
X86624721Y-70312220D01*
X86624722Y-70312219D01*
X86711924Y-70197226D01*
X86711924Y-70197225D01*
X86745335Y-70112500D01*
X85254664Y-70112500D01*
X85288075Y-70197225D01*
X85288075Y-70197226D01*
X85375277Y-70312219D01*
X85375280Y-70312222D01*
X85465927Y-70380961D01*
X85513227Y-70441882D01*
X85523730Y-70518291D01*
X85494620Y-70589716D01*
X85465929Y-70618408D01*
X85374922Y-70687422D01*
X85374920Y-70687424D01*
X85287638Y-70802520D01*
X85287635Y-70802526D01*
X85234640Y-70936909D01*
X85224500Y-71021352D01*
X85224500Y-71553647D01*
X85234640Y-71638090D01*
X85287635Y-71772473D01*
X85287638Y-71772479D01*
X85338974Y-71840174D01*
X85374922Y-71887578D01*
X85383843Y-71894343D01*
X85490020Y-71974861D01*
X85490023Y-71974862D01*
X85490025Y-71974864D01*
X85552629Y-71999552D01*
X85624409Y-72027859D01*
X85640260Y-72029762D01*
X85708856Y-72038000D01*
X85708857Y-72038000D01*
X86291140Y-72038000D01*
X86291144Y-72038000D01*
X86317219Y-72034868D01*
X86393564Y-72045803D01*
X86440343Y-72077446D01*
X86755859Y-72392962D01*
X86794423Y-72459757D01*
X86799500Y-72498321D01*
X86799500Y-72568993D01*
X86826419Y-72704325D01*
X86826420Y-72704329D01*
X86879224Y-72831809D01*
X86879227Y-72831815D01*
X86924245Y-72899188D01*
X86949038Y-72972223D01*
X86933992Y-73047869D01*
X86890393Y-73100690D01*
X86874922Y-73112422D01*
X86874919Y-73112425D01*
X86868407Y-73121013D01*
X86807484Y-73168311D01*
X86731073Y-73178811D01*
X86659651Y-73149699D01*
X86630961Y-73121008D01*
X86624720Y-73112778D01*
X86624719Y-73112777D01*
X86509730Y-73025578D01*
X86509726Y-73025575D01*
X86400000Y-72982305D01*
X86400000Y-73563500D01*
X86380038Y-73638000D01*
X86325500Y-73692538D01*
X86251000Y-73712500D01*
X86000000Y-73712500D01*
X86000000Y-73963500D01*
X85980038Y-74038000D01*
X85925500Y-74092538D01*
X85851000Y-74112500D01*
X85254664Y-74112500D01*
X85288075Y-74197225D01*
X85288075Y-74197226D01*
X85375277Y-74312219D01*
X85375280Y-74312222D01*
X85465927Y-74380961D01*
X85513227Y-74441882D01*
X85523730Y-74518291D01*
X85494620Y-74589716D01*
X85465929Y-74618408D01*
X85374922Y-74687422D01*
X85374920Y-74687424D01*
X85287638Y-74802520D01*
X85287635Y-74802526D01*
X85234640Y-74936909D01*
X85224500Y-75021352D01*
X85224500Y-75553647D01*
X85234640Y-75638090D01*
X85287635Y-75772473D01*
X85287638Y-75772479D01*
X85346965Y-75850711D01*
X85374922Y-75887578D01*
X85393517Y-75901679D01*
X85490020Y-75974861D01*
X85490023Y-75974862D01*
X85490025Y-75974864D01*
X85521449Y-75987256D01*
X85624409Y-76027859D01*
X85643204Y-76030116D01*
X85714793Y-76058818D01*
X85762439Y-76119469D01*
X85773376Y-76195818D01*
X85744674Y-76267407D01*
X85715471Y-76296776D01*
X85644104Y-76350897D01*
X85612421Y-76374923D01*
X85612420Y-76374924D01*
X85524751Y-76490532D01*
X85463829Y-76537832D01*
X85406028Y-76549500D01*
X84248321Y-76549500D01*
X84173821Y-76529538D01*
X84142962Y-76505859D01*
X83644141Y-76007038D01*
X83605577Y-75940243D01*
X83600500Y-75901679D01*
X83600500Y-73312499D01*
X85254664Y-73312499D01*
X85254665Y-73312500D01*
X85600000Y-73312500D01*
X85600000Y-72982305D01*
X85599999Y-72982305D01*
X85490273Y-73025575D01*
X85490269Y-73025578D01*
X85375280Y-73112777D01*
X85375277Y-73112780D01*
X85288075Y-73227773D01*
X85288075Y-73227774D01*
X85254664Y-73312499D01*
X83600500Y-73312499D01*
X83600500Y-73061403D01*
X83600499Y-73061401D01*
X83597310Y-73049500D01*
X83569799Y-72946826D01*
X83569799Y-72946825D01*
X83510490Y-72844098D01*
X83144141Y-72477749D01*
X83105577Y-72410954D01*
X83100500Y-72372390D01*
X83100500Y-72331736D01*
X83100499Y-72331718D01*
X83097567Y-72300453D01*
X83097567Y-72300451D01*
X83051469Y-72168711D01*
X83006992Y-72108446D01*
X82979614Y-72071349D01*
X82951437Y-71999552D01*
X82950500Y-71982871D01*
X82950500Y-71593972D01*
X82970462Y-71519472D01*
X83009468Y-71475249D01*
X83043275Y-71449611D01*
X83125078Y-71387578D01*
X83212364Y-71272475D01*
X83265359Y-71138090D01*
X83275500Y-71053644D01*
X83275500Y-70521356D01*
X83265359Y-70436910D01*
X83261455Y-70427011D01*
X83235508Y-70361213D01*
X83212364Y-70302525D01*
X83212362Y-70302523D01*
X83212361Y-70302520D01*
X83159547Y-70232876D01*
X83125078Y-70187422D01*
X83099604Y-70168105D01*
X83034071Y-70118408D01*
X82986771Y-70057486D01*
X82976270Y-69981076D01*
X83005380Y-69909653D01*
X83034073Y-69880960D01*
X83124721Y-69812220D01*
X83124722Y-69812219D01*
X83211924Y-69697226D01*
X83211924Y-69697225D01*
X83245335Y-69612500D01*
X82649000Y-69612500D01*
X82574500Y-69592538D01*
X82519962Y-69538000D01*
X82500000Y-69463500D01*
X82500000Y-69312499D01*
X85254664Y-69312499D01*
X85254665Y-69312500D01*
X85600000Y-69312500D01*
X86400000Y-69312500D01*
X86745335Y-69312500D01*
X86745335Y-69312499D01*
X86711924Y-69227774D01*
X86711924Y-69227773D01*
X86624722Y-69112780D01*
X86624719Y-69112777D01*
X86509730Y-69025578D01*
X86509726Y-69025575D01*
X86400000Y-68982305D01*
X86400000Y-69312500D01*
X85600000Y-69312500D01*
X85600000Y-68982305D01*
X85599999Y-68982305D01*
X85490273Y-69025575D01*
X85490269Y-69025578D01*
X85375280Y-69112777D01*
X85375277Y-69112780D01*
X85288075Y-69227773D01*
X85288075Y-69227774D01*
X85254664Y-69312499D01*
X82500000Y-69312499D01*
X82500000Y-68961500D01*
X82519962Y-68887000D01*
X82574500Y-68832462D01*
X82649000Y-68812500D01*
X83245335Y-68812500D01*
X83245335Y-68812499D01*
X83211924Y-68727775D01*
X83208696Y-68722033D01*
X83189580Y-68647311D01*
X83210385Y-68573042D01*
X83265537Y-68519126D01*
X83338570Y-68500000D01*
X87661430Y-68500000D01*
X87735930Y-68519962D01*
G37*
%TD.AperFunction*%
%TA.AperFunction,Conductor*%
G36*
X81499000Y-70430783D02*
G01*
X81529859Y-70454462D01*
X81680859Y-70605462D01*
X81719423Y-70672257D01*
X81724500Y-70710821D01*
X81724500Y-71053647D01*
X81734640Y-71138090D01*
X81787635Y-71272473D01*
X81787638Y-71272479D01*
X81832446Y-71331566D01*
X81874922Y-71387578D01*
X81885494Y-71395595D01*
X81990532Y-71475249D01*
X82037832Y-71536171D01*
X82049500Y-71593972D01*
X82049500Y-71775500D01*
X82029538Y-71850000D01*
X81975000Y-71904538D01*
X81900500Y-71924500D01*
X81806718Y-71924500D01*
X81775453Y-71927432D01*
X81643713Y-71973530D01*
X81643711Y-71973531D01*
X81531411Y-72056410D01*
X81531410Y-72056411D01*
X81448531Y-72168711D01*
X81448530Y-72168713D01*
X81402432Y-72300453D01*
X81399500Y-72331718D01*
X81399500Y-72768281D01*
X81402432Y-72799546D01*
X81448530Y-72931286D01*
X81448533Y-72931292D01*
X81452704Y-72936944D01*
X81466217Y-72971376D01*
X81480482Y-73005516D01*
X81480268Y-73007179D01*
X81480881Y-73008741D01*
X81475364Y-73045329D01*
X81470650Y-73082014D01*
X81469535Y-73083993D01*
X81469383Y-73085008D01*
X81467880Y-73086934D01*
X81452710Y-73113889D01*
X81448980Y-73118943D01*
X81448978Y-73118947D01*
X81429364Y-73175000D01*
X81794429Y-73175000D01*
X81803253Y-73175413D01*
X81803257Y-73175337D01*
X81806720Y-73175499D01*
X81806728Y-73175500D01*
X82101000Y-73175500D01*
X82175500Y-73195462D01*
X82230038Y-73250000D01*
X82250000Y-73324500D01*
X82250000Y-73675500D01*
X82230038Y-73750000D01*
X82175500Y-73804538D01*
X82101000Y-73824500D01*
X81806728Y-73824500D01*
X81806719Y-73824500D01*
X81803257Y-73824663D01*
X81803253Y-73824586D01*
X81794429Y-73825000D01*
X81429364Y-73825000D01*
X81448979Y-73881055D01*
X81452700Y-73886097D01*
X81480880Y-73957893D01*
X81469386Y-74034159D01*
X81452706Y-74063052D01*
X81448534Y-74068704D01*
X81448530Y-74068712D01*
X81402432Y-74200453D01*
X81399500Y-74231718D01*
X81399500Y-74668281D01*
X81402432Y-74699546D01*
X81402432Y-74699548D01*
X81402433Y-74699549D01*
X81448531Y-74831289D01*
X81473548Y-74865186D01*
X81529896Y-74941537D01*
X81531411Y-74943589D01*
X81643711Y-75026469D01*
X81775451Y-75072567D01*
X81806728Y-75075500D01*
X81975499Y-75075500D01*
X82049999Y-75095462D01*
X82104537Y-75150000D01*
X82124499Y-75224500D01*
X82124499Y-76340178D01*
X82104537Y-76414678D01*
X82049999Y-76469216D01*
X81975499Y-76489178D01*
X81900999Y-76469216D01*
X81870140Y-76445537D01*
X81819141Y-76394538D01*
X81780577Y-76327743D01*
X81775500Y-76289179D01*
X81775500Y-75946357D01*
X81775500Y-75946356D01*
X81765572Y-75863680D01*
X81765359Y-75861909D01*
X81721096Y-75749668D01*
X81712364Y-75727525D01*
X81712362Y-75727523D01*
X81712361Y-75727520D01*
X81644543Y-75638090D01*
X81625078Y-75612422D01*
X81571661Y-75571914D01*
X81509979Y-75525138D01*
X81509973Y-75525135D01*
X81375590Y-75472140D01*
X81291147Y-75462000D01*
X81291144Y-75462000D01*
X80887000Y-75462000D01*
X80812500Y-75442038D01*
X80757962Y-75387500D01*
X80738000Y-75313000D01*
X80738000Y-74928191D01*
X80737999Y-74928189D01*
X80736216Y-74921536D01*
X80712035Y-74831289D01*
X80707299Y-74813613D01*
X80647990Y-74710886D01*
X80644141Y-74707037D01*
X80605577Y-74640242D01*
X80600500Y-74601678D01*
X80600500Y-74231736D01*
X80600499Y-74231718D01*
X80597567Y-74200453D01*
X80597567Y-74200451D01*
X80551469Y-74068711D01*
X80547607Y-74063478D01*
X80519430Y-73991683D01*
X80530925Y-73915417D01*
X80547608Y-73886520D01*
X80551469Y-73881289D01*
X80597567Y-73749549D01*
X80600500Y-73718272D01*
X80600500Y-73677609D01*
X80620462Y-73603109D01*
X80644141Y-73572250D01*
X80770035Y-73446356D01*
X81010490Y-73205902D01*
X81069799Y-73103175D01*
X81075469Y-73082014D01*
X81078025Y-73072476D01*
X81078025Y-73072473D01*
X81084618Y-73047869D01*
X81100500Y-72988597D01*
X81100500Y-71470095D01*
X81120462Y-71395595D01*
X81130777Y-71380063D01*
X81212361Y-71272479D01*
X81212361Y-71272478D01*
X81212364Y-71272475D01*
X81265359Y-71138090D01*
X81275500Y-71053644D01*
X81275500Y-70559821D01*
X81295462Y-70485321D01*
X81350000Y-70430783D01*
X81424500Y-70410821D01*
X81499000Y-70430783D01*
G37*
%TD.AperFunction*%
%TA.AperFunction,Conductor*%
G36*
X76235930Y-68519962D02*
G01*
X76290468Y-68574500D01*
X76310430Y-68649000D01*
X76291304Y-68722033D01*
X76288075Y-68727775D01*
X76254664Y-68812499D01*
X76254665Y-68812500D01*
X77745335Y-68812500D01*
X77745335Y-68812499D01*
X77711924Y-68727775D01*
X77708696Y-68722033D01*
X77689580Y-68647311D01*
X77710385Y-68573042D01*
X77765537Y-68519126D01*
X77838570Y-68500000D01*
X79660850Y-68500000D01*
X79735350Y-68519962D01*
X79789888Y-68574500D01*
X79809850Y-68649000D01*
X79790730Y-68722022D01*
X79787636Y-68727524D01*
X79734640Y-68861909D01*
X79724500Y-68946352D01*
X79724500Y-69478647D01*
X79734640Y-69563090D01*
X79787635Y-69697473D01*
X79787638Y-69697479D01*
X79856574Y-69788383D01*
X79874922Y-69812578D01*
X79900290Y-69831815D01*
X79965514Y-69881277D01*
X80012814Y-69942199D01*
X80023315Y-70018609D01*
X79994205Y-70090032D01*
X79965514Y-70118723D01*
X79874924Y-70187420D01*
X79874920Y-70187424D01*
X79787638Y-70302520D01*
X79787635Y-70302526D01*
X79734640Y-70436909D01*
X79724500Y-70521352D01*
X79724500Y-71053647D01*
X79734640Y-71138090D01*
X79787635Y-71272473D01*
X79787638Y-71272479D01*
X79832446Y-71331566D01*
X79874922Y-71387578D01*
X79885494Y-71395595D01*
X79990020Y-71474861D01*
X79990023Y-71474862D01*
X79990025Y-71474864D01*
X80105161Y-71520268D01*
X80117111Y-71529118D01*
X80131273Y-71533672D01*
X80147602Y-71551697D01*
X80167144Y-71566169D01*
X80173069Y-71579809D01*
X80183055Y-71590833D01*
X80189574Y-71617807D01*
X80197872Y-71636911D01*
X80196689Y-71647251D01*
X80199500Y-71658879D01*
X80199500Y-71775500D01*
X80179538Y-71850000D01*
X80125000Y-71904538D01*
X80050500Y-71924500D01*
X79823321Y-71924500D01*
X79819669Y-71923521D01*
X79815973Y-71924319D01*
X79782638Y-71913599D01*
X79748821Y-71904538D01*
X79744752Y-71901415D01*
X79742548Y-71900707D01*
X79739628Y-71897484D01*
X79717962Y-71880859D01*
X79007565Y-71170462D01*
X78264114Y-70427011D01*
X78264111Y-70427009D01*
X78264107Y-70427006D01*
X78161390Y-70367702D01*
X78161387Y-70367701D01*
X78137173Y-70361213D01*
X78046809Y-70337000D01*
X77812513Y-70337000D01*
X77738013Y-70317038D01*
X77693792Y-70278035D01*
X77625078Y-70187422D01*
X77599604Y-70168105D01*
X77534071Y-70118408D01*
X77486771Y-70057486D01*
X77476270Y-69981076D01*
X77505380Y-69909653D01*
X77534073Y-69880960D01*
X77624721Y-69812220D01*
X77624722Y-69812219D01*
X77711924Y-69697226D01*
X77711924Y-69697225D01*
X77745335Y-69612500D01*
X76254664Y-69612500D01*
X76288075Y-69697225D01*
X76288075Y-69697226D01*
X76375277Y-69812219D01*
X76375280Y-69812222D01*
X76465927Y-69880961D01*
X76513227Y-69941882D01*
X76523730Y-70018291D01*
X76494620Y-70089716D01*
X76465929Y-70118408D01*
X76374922Y-70187422D01*
X76374920Y-70187424D01*
X76287638Y-70302520D01*
X76287635Y-70302526D01*
X76234640Y-70436909D01*
X76224500Y-70521352D01*
X76224500Y-70864179D01*
X76204538Y-70938679D01*
X76180859Y-70969538D01*
X75927008Y-71223389D01*
X75867701Y-71326111D01*
X75867702Y-71326111D01*
X75867701Y-71326115D01*
X75837000Y-71440689D01*
X75837000Y-72187486D01*
X75817038Y-72261986D01*
X75778032Y-72306209D01*
X75689017Y-72373713D01*
X75687421Y-72374923D01*
X75687420Y-72374924D01*
X75618723Y-72465514D01*
X75557801Y-72512814D01*
X75481391Y-72523315D01*
X75409968Y-72494205D01*
X75381277Y-72465514D01*
X75316581Y-72380201D01*
X75312578Y-72374922D01*
X75279054Y-72349500D01*
X75197479Y-72287638D01*
X75197473Y-72287635D01*
X75063090Y-72234640D01*
X74978647Y-72224500D01*
X74978644Y-72224500D01*
X74446356Y-72224500D01*
X74446352Y-72224500D01*
X74361909Y-72234640D01*
X74227526Y-72287635D01*
X74227520Y-72287638D01*
X74112424Y-72374920D01*
X74112420Y-72374924D01*
X74025138Y-72490020D01*
X74025135Y-72490026D01*
X73972140Y-72624409D01*
X73962000Y-72708852D01*
X73962000Y-72910257D01*
X73942038Y-72984757D01*
X73918359Y-73015616D01*
X73754359Y-73179616D01*
X73687564Y-73218180D01*
X73610436Y-73218180D01*
X73543641Y-73179616D01*
X73505077Y-73112821D01*
X73500000Y-73074257D01*
X73500000Y-68649000D01*
X73519962Y-68574500D01*
X73574500Y-68519962D01*
X73649000Y-68500000D01*
X76161430Y-68500000D01*
X76235930Y-68519962D01*
G37*
%TD.AperFunction*%
%TD*%
%TA.AperFunction,Conductor*%
%TO.N,VCELL*%
G36*
X60925500Y-30519962D02*
G01*
X60980038Y-30574500D01*
X61000000Y-30649000D01*
X61000000Y-62351000D01*
X60980038Y-62425500D01*
X60925500Y-62480038D01*
X60851000Y-62500000D01*
X25649000Y-62500000D01*
X25574500Y-62480038D01*
X25519962Y-62425500D01*
X25500000Y-62351000D01*
X25500000Y-60570406D01*
X45349500Y-60570406D01*
X45349500Y-61429594D01*
X45353211Y-61470431D01*
X45355685Y-61497661D01*
X45404486Y-61654265D01*
X45404486Y-61654266D01*
X45404487Y-61654268D01*
X45404488Y-61654270D01*
X45489352Y-61794653D01*
X45605347Y-61910648D01*
X45745730Y-61995512D01*
X45745732Y-61995512D01*
X45745733Y-61995513D01*
X45902338Y-62044314D01*
X45902340Y-62044314D01*
X45902343Y-62044315D01*
X45970406Y-62050500D01*
X45970412Y-62050500D01*
X48029588Y-62050500D01*
X48029594Y-62050500D01*
X48097657Y-62044315D01*
X48097659Y-62044314D01*
X48097661Y-62044314D01*
X48145634Y-62029364D01*
X48254270Y-61995512D01*
X48394653Y-61910648D01*
X48510648Y-61794653D01*
X48595512Y-61654270D01*
X48644315Y-61497657D01*
X48650500Y-61429594D01*
X48650500Y-60570406D01*
X48644315Y-60502343D01*
X48644314Y-60502340D01*
X48644314Y-60502338D01*
X48595513Y-60345734D01*
X48595513Y-60345733D01*
X48595512Y-60345732D01*
X48595512Y-60345730D01*
X48510648Y-60205347D01*
X48394653Y-60089352D01*
X48254270Y-60004488D01*
X48254268Y-60004487D01*
X48254266Y-60004486D01*
X48097661Y-59955685D01*
X48070431Y-59953211D01*
X48029594Y-59949500D01*
X48029588Y-59949500D01*
X47949500Y-59949500D01*
X47875000Y-59929538D01*
X47820462Y-59875000D01*
X47800500Y-59800500D01*
X47800500Y-59566519D01*
X47820462Y-59492019D01*
X47844141Y-59461160D01*
X47910648Y-59394653D01*
X47995512Y-59254270D01*
X48044315Y-59097657D01*
X48050500Y-59029594D01*
X48050500Y-56970406D01*
X48044315Y-56902343D01*
X48044314Y-56902340D01*
X48044314Y-56902338D01*
X47995513Y-56745734D01*
X47995513Y-56745733D01*
X47995512Y-56745732D01*
X47995512Y-56745730D01*
X47910648Y-56605347D01*
X47844141Y-56538840D01*
X47805577Y-56472045D01*
X47800500Y-56433481D01*
X47800500Y-55066519D01*
X47820462Y-54992019D01*
X47844141Y-54961160D01*
X47910648Y-54894653D01*
X47995512Y-54754270D01*
X48044315Y-54597657D01*
X48050500Y-54529594D01*
X48050500Y-52470406D01*
X48044315Y-52402343D01*
X48044314Y-52402340D01*
X48044314Y-52402338D01*
X47995513Y-52245734D01*
X47995513Y-52245733D01*
X47995512Y-52245732D01*
X47995512Y-52245730D01*
X47910648Y-52105347D01*
X47844141Y-52038840D01*
X47805577Y-51972045D01*
X47800500Y-51933481D01*
X47800500Y-50566519D01*
X47820462Y-50492019D01*
X47844141Y-50461160D01*
X47910648Y-50394653D01*
X47995512Y-50254270D01*
X48044315Y-50097657D01*
X48050500Y-50029594D01*
X48050500Y-47970406D01*
X48044315Y-47902343D01*
X48044314Y-47902340D01*
X48044314Y-47902338D01*
X47995513Y-47745734D01*
X47995513Y-47745733D01*
X47995512Y-47745732D01*
X47995512Y-47745730D01*
X47910648Y-47605347D01*
X47794653Y-47489352D01*
X47654270Y-47404488D01*
X47654268Y-47404487D01*
X47654266Y-47404486D01*
X47497661Y-47355685D01*
X47470431Y-47353211D01*
X47429594Y-47349500D01*
X46570406Y-47349500D01*
X46533280Y-47352873D01*
X46502338Y-47355685D01*
X46345734Y-47404486D01*
X46345733Y-47404486D01*
X46205346Y-47489352D01*
X46089352Y-47605346D01*
X46004486Y-47745733D01*
X46004486Y-47745734D01*
X45955685Y-47902338D01*
X45955685Y-47902343D01*
X45949500Y-47970406D01*
X45949500Y-50029594D01*
X45953211Y-50070431D01*
X45955685Y-50097661D01*
X46004486Y-50254265D01*
X46004486Y-50254266D01*
X46089352Y-50394653D01*
X46155859Y-50461160D01*
X46194423Y-50527955D01*
X46199500Y-50566519D01*
X46199500Y-51933481D01*
X46179538Y-52007981D01*
X46155859Y-52038840D01*
X46089352Y-52105346D01*
X46004486Y-52245733D01*
X46004486Y-52245734D01*
X45955685Y-52402338D01*
X45955685Y-52402343D01*
X45949500Y-52470406D01*
X45949500Y-54529594D01*
X45953211Y-54570431D01*
X45955685Y-54597661D01*
X46004486Y-54754265D01*
X46004486Y-54754266D01*
X46089352Y-54894653D01*
X46155859Y-54961160D01*
X46194423Y-55027955D01*
X46199500Y-55066519D01*
X46199500Y-56433481D01*
X46179538Y-56507981D01*
X46155859Y-56538840D01*
X46089352Y-56605346D01*
X46004486Y-56745733D01*
X46004486Y-56745734D01*
X45955685Y-56902338D01*
X45955685Y-56902343D01*
X45949500Y-56970406D01*
X45949500Y-59029594D01*
X45953211Y-59070431D01*
X45955685Y-59097661D01*
X46004486Y-59254265D01*
X46004486Y-59254266D01*
X46089352Y-59394653D01*
X46155859Y-59461160D01*
X46194423Y-59527955D01*
X46199500Y-59566519D01*
X46199500Y-59800500D01*
X46179538Y-59875000D01*
X46125000Y-59929538D01*
X46050500Y-59949500D01*
X45970406Y-59949500D01*
X45933280Y-59952873D01*
X45902338Y-59955685D01*
X45745734Y-60004486D01*
X45745733Y-60004486D01*
X45605346Y-60089352D01*
X45489352Y-60205346D01*
X45404486Y-60345733D01*
X45404486Y-60345734D01*
X45355685Y-60502338D01*
X45355685Y-60502343D01*
X45349500Y-60570406D01*
X25500000Y-60570406D01*
X25500000Y-43409454D01*
X30119500Y-43409454D01*
X30119500Y-43590546D01*
X30147829Y-43769409D01*
X30203789Y-43941639D01*
X30286004Y-44102994D01*
X30392447Y-44249501D01*
X30520499Y-44377553D01*
X30667006Y-44483996D01*
X30828361Y-44566211D01*
X31000591Y-44622171D01*
X31179454Y-44650500D01*
X31179458Y-44650500D01*
X31360542Y-44650500D01*
X31360546Y-44650500D01*
X31539409Y-44622171D01*
X31711639Y-44566211D01*
X31872994Y-44483996D01*
X32019501Y-44377553D01*
X32147553Y-44249501D01*
X32253996Y-44102994D01*
X32336211Y-43941639D01*
X32392171Y-43769409D01*
X32420500Y-43590546D01*
X32420500Y-43409454D01*
X32392171Y-43230591D01*
X32336211Y-43058361D01*
X32253996Y-42897006D01*
X32147553Y-42750499D01*
X32019501Y-42622447D01*
X31872994Y-42516004D01*
X31711639Y-42433789D01*
X31539409Y-42377829D01*
X31360546Y-42349500D01*
X31179454Y-42349500D01*
X31000591Y-42377829D01*
X30828360Y-42433789D01*
X30667004Y-42516005D01*
X30667003Y-42516005D01*
X30520500Y-42622446D01*
X30520497Y-42622448D01*
X30392448Y-42750497D01*
X30392446Y-42750500D01*
X30286005Y-42897003D01*
X30286005Y-42897004D01*
X30203789Y-43058360D01*
X30203789Y-43058361D01*
X30147829Y-43230591D01*
X30119500Y-43409454D01*
X25500000Y-43409454D01*
X25500000Y-41970406D01*
X37949500Y-41970406D01*
X37949500Y-44029594D01*
X37953211Y-44070431D01*
X37955685Y-44097661D01*
X38004486Y-44254265D01*
X38004486Y-44254266D01*
X38004487Y-44254268D01*
X38004488Y-44254270D01*
X38078012Y-44375895D01*
X38099470Y-44449976D01*
X38099500Y-44452976D01*
X38099500Y-45638691D01*
X38134105Y-45812663D01*
X38134106Y-45812667D01*
X38201986Y-45976546D01*
X38201987Y-45976548D01*
X38300533Y-46124031D01*
X38300536Y-46124035D01*
X38425965Y-46249464D01*
X38425968Y-46249466D01*
X38573451Y-46348012D01*
X38573453Y-46348013D01*
X38737334Y-46415894D01*
X38911309Y-46450500D01*
X39088691Y-46450500D01*
X39262666Y-46415894D01*
X39426547Y-46348013D01*
X39574035Y-46249464D01*
X39699464Y-46124035D01*
X39798013Y-45976547D01*
X39865894Y-45812666D01*
X39900500Y-45638691D01*
X39900500Y-45461309D01*
X39900500Y-44452976D01*
X39920462Y-44378476D01*
X39921955Y-44375947D01*
X39995512Y-44254270D01*
X40029364Y-44145634D01*
X40044314Y-44097661D01*
X40044314Y-44097659D01*
X40044315Y-44097657D01*
X40050500Y-44029594D01*
X40050500Y-41970406D01*
X43449500Y-41970406D01*
X43449500Y-44029594D01*
X43453211Y-44070431D01*
X43455685Y-44097661D01*
X43504486Y-44254265D01*
X43504486Y-44254266D01*
X43504487Y-44254268D01*
X43504488Y-44254270D01*
X43578012Y-44375895D01*
X43599470Y-44449976D01*
X43599500Y-44452976D01*
X43599500Y-45638691D01*
X43634105Y-45812663D01*
X43634106Y-45812667D01*
X43701986Y-45976546D01*
X43701987Y-45976548D01*
X43800533Y-46124031D01*
X43800536Y-46124035D01*
X43925965Y-46249464D01*
X43925968Y-46249466D01*
X44073451Y-46348012D01*
X44073453Y-46348013D01*
X44237334Y-46415894D01*
X44411309Y-46450500D01*
X44588691Y-46450500D01*
X44762666Y-46415894D01*
X44926547Y-46348013D01*
X45074035Y-46249464D01*
X45199464Y-46124035D01*
X45298013Y-45976547D01*
X45365894Y-45812666D01*
X45400500Y-45638691D01*
X45400500Y-45461309D01*
X45400500Y-44452976D01*
X45420462Y-44378476D01*
X45421955Y-44375947D01*
X45495512Y-44254270D01*
X45529364Y-44145634D01*
X45544314Y-44097661D01*
X45544314Y-44097659D01*
X45544315Y-44097657D01*
X45550500Y-44029594D01*
X45550500Y-41970406D01*
X48949500Y-41970406D01*
X48949500Y-44029594D01*
X48953211Y-44070431D01*
X48955685Y-44097661D01*
X49004486Y-44254265D01*
X49004486Y-44254266D01*
X49004487Y-44254268D01*
X49004488Y-44254270D01*
X49078012Y-44375895D01*
X49099470Y-44449976D01*
X49099500Y-44452976D01*
X49099500Y-45638691D01*
X49134105Y-45812663D01*
X49134106Y-45812667D01*
X49201986Y-45976546D01*
X49201987Y-45976548D01*
X49300533Y-46124031D01*
X49300536Y-46124035D01*
X49425965Y-46249464D01*
X49425968Y-46249466D01*
X49573451Y-46348012D01*
X49573453Y-46348013D01*
X49737334Y-46415894D01*
X49911309Y-46450500D01*
X50088691Y-46450500D01*
X50262666Y-46415894D01*
X50426547Y-46348013D01*
X50574035Y-46249464D01*
X50699464Y-46124035D01*
X50798013Y-45976547D01*
X50865894Y-45812666D01*
X50900500Y-45638691D01*
X50900500Y-45461309D01*
X50900500Y-44452976D01*
X50920462Y-44378476D01*
X50921955Y-44375947D01*
X50995512Y-44254270D01*
X51029364Y-44145634D01*
X51044314Y-44097661D01*
X51044314Y-44097659D01*
X51044315Y-44097657D01*
X51050500Y-44029594D01*
X51050500Y-41970406D01*
X51044315Y-41902343D01*
X51044314Y-41902340D01*
X51044314Y-41902338D01*
X50995513Y-41745734D01*
X50995513Y-41745733D01*
X50995512Y-41745732D01*
X50995512Y-41745730D01*
X50910648Y-41605347D01*
X50794653Y-41489352D01*
X50654270Y-41404488D01*
X50654268Y-41404487D01*
X50654266Y-41404486D01*
X50497661Y-41355685D01*
X50470431Y-41353211D01*
X50429594Y-41349500D01*
X49570406Y-41349500D01*
X49533280Y-41352873D01*
X49502338Y-41355685D01*
X49345734Y-41404486D01*
X49345733Y-41404486D01*
X49205346Y-41489352D01*
X49089352Y-41605346D01*
X49004486Y-41745733D01*
X49004486Y-41745734D01*
X48955685Y-41902338D01*
X48955685Y-41902343D01*
X48949500Y-41970406D01*
X45550500Y-41970406D01*
X45544315Y-41902343D01*
X45544314Y-41902340D01*
X45544314Y-41902338D01*
X45495513Y-41745734D01*
X45495513Y-41745733D01*
X45495512Y-41745732D01*
X45495512Y-41745730D01*
X45410648Y-41605347D01*
X45294653Y-41489352D01*
X45154270Y-41404488D01*
X45154268Y-41404487D01*
X45154266Y-41404486D01*
X44997661Y-41355685D01*
X44970431Y-41353211D01*
X44929594Y-41349500D01*
X44070406Y-41349500D01*
X44033280Y-41352873D01*
X44002338Y-41355685D01*
X43845734Y-41404486D01*
X43845733Y-41404486D01*
X43705346Y-41489352D01*
X43589352Y-41605346D01*
X43504486Y-41745733D01*
X43504486Y-41745734D01*
X43455685Y-41902338D01*
X43455685Y-41902343D01*
X43449500Y-41970406D01*
X40050500Y-41970406D01*
X40044315Y-41902343D01*
X40044314Y-41902340D01*
X40044314Y-41902338D01*
X39995513Y-41745734D01*
X39995513Y-41745733D01*
X39995512Y-41745732D01*
X39995512Y-41745730D01*
X39910648Y-41605347D01*
X39794653Y-41489352D01*
X39654270Y-41404488D01*
X39654268Y-41404487D01*
X39654266Y-41404486D01*
X39497661Y-41355685D01*
X39470431Y-41353211D01*
X39429594Y-41349500D01*
X38570406Y-41349500D01*
X38533280Y-41352873D01*
X38502338Y-41355685D01*
X38345734Y-41404486D01*
X38345733Y-41404486D01*
X38205346Y-41489352D01*
X38089352Y-41605346D01*
X38004486Y-41745733D01*
X38004486Y-41745734D01*
X37955685Y-41902338D01*
X37955685Y-41902343D01*
X37949500Y-41970406D01*
X25500000Y-41970406D01*
X25500000Y-40149000D01*
X25519962Y-40074500D01*
X25574500Y-40019962D01*
X25649000Y-40000000D01*
X34000000Y-40000000D01*
X34000000Y-35470406D01*
X37949500Y-35470406D01*
X37949500Y-37529594D01*
X37953211Y-37570431D01*
X37955685Y-37597661D01*
X38004486Y-37754265D01*
X38004486Y-37754266D01*
X38004487Y-37754268D01*
X38004488Y-37754270D01*
X38078012Y-37875895D01*
X38099470Y-37949976D01*
X38099500Y-37952976D01*
X38099500Y-39138691D01*
X38134105Y-39312663D01*
X38134106Y-39312667D01*
X38201986Y-39476546D01*
X38201987Y-39476548D01*
X38300533Y-39624031D01*
X38300536Y-39624035D01*
X38425965Y-39749464D01*
X38425968Y-39749466D01*
X38573451Y-39848012D01*
X38573453Y-39848013D01*
X38737334Y-39915894D01*
X38911309Y-39950500D01*
X39088691Y-39950500D01*
X39262666Y-39915894D01*
X39426547Y-39848013D01*
X39574035Y-39749464D01*
X39699464Y-39624035D01*
X39798013Y-39476547D01*
X39865894Y-39312666D01*
X39900500Y-39138691D01*
X39900500Y-38961309D01*
X39900500Y-37952976D01*
X39920462Y-37878476D01*
X39921955Y-37875947D01*
X39995512Y-37754270D01*
X40029364Y-37645634D01*
X40044314Y-37597661D01*
X40044314Y-37597659D01*
X40044315Y-37597657D01*
X40050500Y-37529594D01*
X40050500Y-35470406D01*
X43449500Y-35470406D01*
X43449500Y-37529594D01*
X43453211Y-37570431D01*
X43455685Y-37597661D01*
X43504486Y-37754265D01*
X43504486Y-37754266D01*
X43504487Y-37754268D01*
X43504488Y-37754270D01*
X43578012Y-37875895D01*
X43599470Y-37949976D01*
X43599500Y-37952976D01*
X43599500Y-39138691D01*
X43634105Y-39312663D01*
X43634106Y-39312667D01*
X43701986Y-39476546D01*
X43701987Y-39476548D01*
X43800533Y-39624031D01*
X43800536Y-39624035D01*
X43925965Y-39749464D01*
X43925968Y-39749466D01*
X44073451Y-39848012D01*
X44073453Y-39848013D01*
X44237334Y-39915894D01*
X44411309Y-39950500D01*
X44588691Y-39950500D01*
X44762666Y-39915894D01*
X44926547Y-39848013D01*
X45074035Y-39749464D01*
X45199464Y-39624035D01*
X45298013Y-39476547D01*
X45365894Y-39312666D01*
X45400500Y-39138691D01*
X45400500Y-38961309D01*
X45400500Y-37952976D01*
X45420462Y-37878476D01*
X45421955Y-37875947D01*
X45495512Y-37754270D01*
X45529364Y-37645634D01*
X45544314Y-37597661D01*
X45544314Y-37597659D01*
X45544315Y-37597657D01*
X45550500Y-37529594D01*
X45550500Y-35470406D01*
X48949500Y-35470406D01*
X48949500Y-37529594D01*
X48953211Y-37570431D01*
X48955685Y-37597661D01*
X49004486Y-37754265D01*
X49004486Y-37754266D01*
X49004487Y-37754268D01*
X49004488Y-37754270D01*
X49078012Y-37875895D01*
X49099470Y-37949976D01*
X49099500Y-37952976D01*
X49099500Y-39138691D01*
X49134105Y-39312663D01*
X49134106Y-39312667D01*
X49201986Y-39476546D01*
X49201987Y-39476548D01*
X49300533Y-39624031D01*
X49300536Y-39624035D01*
X49425965Y-39749464D01*
X49425968Y-39749466D01*
X49573451Y-39848012D01*
X49573453Y-39848013D01*
X49737334Y-39915894D01*
X49911309Y-39950500D01*
X50088691Y-39950500D01*
X50262666Y-39915894D01*
X50426547Y-39848013D01*
X50574035Y-39749464D01*
X50699464Y-39624035D01*
X50798013Y-39476547D01*
X50865894Y-39312666D01*
X50900500Y-39138691D01*
X50900500Y-38961309D01*
X50900500Y-37952976D01*
X50920462Y-37878476D01*
X50921955Y-37875947D01*
X50995512Y-37754270D01*
X51029364Y-37645634D01*
X51044314Y-37597661D01*
X51044314Y-37597659D01*
X51044315Y-37597657D01*
X51050500Y-37529594D01*
X51050500Y-35470406D01*
X51044315Y-35402343D01*
X51044314Y-35402340D01*
X51044314Y-35402338D01*
X50995513Y-35245734D01*
X50995513Y-35245733D01*
X50995512Y-35245732D01*
X50995512Y-35245730D01*
X50910648Y-35105347D01*
X50794653Y-34989352D01*
X50654270Y-34904488D01*
X50654268Y-34904487D01*
X50654266Y-34904486D01*
X50497661Y-34855685D01*
X50470431Y-34853211D01*
X50429594Y-34849500D01*
X49570406Y-34849500D01*
X49533280Y-34852873D01*
X49502338Y-34855685D01*
X49345734Y-34904486D01*
X49345733Y-34904486D01*
X49205346Y-34989352D01*
X49089352Y-35105346D01*
X49004486Y-35245733D01*
X49004486Y-35245734D01*
X48955685Y-35402338D01*
X48955685Y-35402343D01*
X48949500Y-35470406D01*
X45550500Y-35470406D01*
X45544315Y-35402343D01*
X45544314Y-35402340D01*
X45544314Y-35402338D01*
X45495513Y-35245734D01*
X45495513Y-35245733D01*
X45495512Y-35245732D01*
X45495512Y-35245730D01*
X45410648Y-35105347D01*
X45294653Y-34989352D01*
X45154270Y-34904488D01*
X45154268Y-34904487D01*
X45154266Y-34904486D01*
X44997661Y-34855685D01*
X44970431Y-34853211D01*
X44929594Y-34849500D01*
X44070406Y-34849500D01*
X44033280Y-34852873D01*
X44002338Y-34855685D01*
X43845734Y-34904486D01*
X43845733Y-34904486D01*
X43705346Y-34989352D01*
X43589352Y-35105346D01*
X43504486Y-35245733D01*
X43504486Y-35245734D01*
X43455685Y-35402338D01*
X43455685Y-35402343D01*
X43449500Y-35470406D01*
X40050500Y-35470406D01*
X40044315Y-35402343D01*
X40044314Y-35402340D01*
X40044314Y-35402338D01*
X39995513Y-35245734D01*
X39995513Y-35245733D01*
X39995512Y-35245732D01*
X39995512Y-35245730D01*
X39910648Y-35105347D01*
X39794653Y-34989352D01*
X39654270Y-34904488D01*
X39654268Y-34904487D01*
X39654266Y-34904486D01*
X39497661Y-34855685D01*
X39470431Y-34853211D01*
X39429594Y-34849500D01*
X38570406Y-34849500D01*
X38533280Y-34852873D01*
X38502338Y-34855685D01*
X38345734Y-34904486D01*
X38345733Y-34904486D01*
X38205346Y-34989352D01*
X38089352Y-35105346D01*
X38004486Y-35245733D01*
X38004486Y-35245734D01*
X37955685Y-35402338D01*
X37955685Y-35402343D01*
X37949500Y-35470406D01*
X34000000Y-35470406D01*
X34000000Y-30649000D01*
X34019962Y-30574500D01*
X34074500Y-30519962D01*
X34149000Y-30500000D01*
X60851000Y-30500000D01*
X60925500Y-30519962D01*
G37*
%TD.AperFunction*%
%TD*%
%TA.AperFunction,Conductor*%
%TO.N,PGND*%
G36*
X81620000Y-56825462D02*
G01*
X81674538Y-56880000D01*
X81694500Y-56954500D01*
X81694500Y-57444058D01*
X81674538Y-57518558D01*
X81634793Y-57563339D01*
X81536741Y-57636739D01*
X81536738Y-57636743D01*
X81536736Y-57636744D01*
X81453943Y-57747344D01*
X81453940Y-57747349D01*
X81405651Y-57876813D01*
X81405650Y-57876817D01*
X81399500Y-57934017D01*
X81399500Y-58783286D01*
X81394422Y-58821855D01*
X81390276Y-58837326D01*
X81351709Y-58904119D01*
X81284915Y-58942681D01*
X81275905Y-58945095D01*
X81227435Y-58948349D01*
X81227339Y-58949819D01*
X81222486Y-58949500D01*
X81222480Y-58949500D01*
X81222474Y-58949500D01*
X81222473Y-58949500D01*
X81077522Y-58949500D01*
X80939676Y-58986436D01*
X80937657Y-58986944D01*
X80937510Y-58987018D01*
X80858957Y-59032368D01*
X80851905Y-59036190D01*
X80844760Y-59039817D01*
X80837499Y-59043260D01*
X80827240Y-59047789D01*
X80827236Y-59047792D01*
X80822803Y-59050828D01*
X80822276Y-59051237D01*
X80815661Y-59056666D01*
X80811995Y-59059479D01*
X80811989Y-59059484D01*
X80059490Y-59811983D01*
X79994731Y-59924151D01*
X79971052Y-59955010D01*
X79959725Y-59966337D01*
X79892930Y-60004901D01*
X79815805Y-60004902D01*
X79810142Y-60003384D01*
X79743347Y-59964822D01*
X79358011Y-59579486D01*
X79334331Y-59548625D01*
X79320460Y-59524599D01*
X79300499Y-59450101D01*
X79300499Y-59255135D01*
X79300499Y-59255133D01*
X79297585Y-59230010D01*
X79297584Y-59230008D01*
X79297582Y-59230004D01*
X79297421Y-59229463D01*
X79296143Y-59226745D01*
X79252206Y-59127235D01*
X79172763Y-59047792D01*
X79172761Y-59047791D01*
X79070001Y-59002418D01*
X79069992Y-59002415D01*
X79069978Y-59002412D01*
X79069508Y-59002359D01*
X79069175Y-59002320D01*
X79044865Y-58999500D01*
X79044860Y-58999500D01*
X78836935Y-58999500D01*
X78807869Y-58996637D01*
X78775321Y-58990163D01*
X78764664Y-58987509D01*
X78764642Y-58987594D01*
X78622475Y-58949500D01*
X78477525Y-58949500D01*
X78477519Y-58949500D01*
X78333600Y-58988063D01*
X78324106Y-58990277D01*
X78311262Y-58992831D01*
X78292129Y-58996637D01*
X78263064Y-58999500D01*
X78055132Y-58999500D01*
X78048038Y-59000322D01*
X78030011Y-59002413D01*
X78029999Y-59002417D01*
X77927237Y-59047791D01*
X77847791Y-59127237D01*
X77802418Y-59229996D01*
X77802415Y-59230007D01*
X77801641Y-59234777D01*
X77801422Y-59238568D01*
X77799500Y-59255134D01*
X77799500Y-59744863D01*
X77802413Y-59769987D01*
X77802417Y-59769999D01*
X77847791Y-59872761D01*
X77847793Y-59872764D01*
X77847794Y-59872765D01*
X77927235Y-59952206D01*
X78030009Y-59997585D01*
X78055135Y-60000500D01*
X78140639Y-60000499D01*
X78179204Y-60005576D01*
X78206000Y-60012756D01*
X78272795Y-60051320D01*
X78891987Y-60670512D01*
X78915664Y-60701369D01*
X78929536Y-60725395D01*
X78949500Y-60799894D01*
X78949500Y-67190640D01*
X78944423Y-67229204D01*
X78937243Y-67256000D01*
X78898679Y-67322795D01*
X78559490Y-67661983D01*
X78559482Y-67661993D01*
X78558109Y-67664371D01*
X78558109Y-67664374D01*
X78487018Y-67787508D01*
X78487017Y-67787510D01*
X78487017Y-67787511D01*
X78461795Y-67881641D01*
X78449500Y-67927524D01*
X78449500Y-68045500D01*
X78429538Y-68120000D01*
X78375000Y-68174538D01*
X78300500Y-68194500D01*
X77838570Y-68194500D01*
X77799872Y-68199483D01*
X77761171Y-68204466D01*
X77688144Y-68223591D01*
X77688130Y-68223595D01*
X77645317Y-68238274D01*
X77645314Y-68238275D01*
X77645314Y-68238276D01*
X77551978Y-68300671D01*
X77496859Y-68354555D01*
X77496820Y-68354593D01*
X77465840Y-68389933D01*
X77460420Y-68398050D01*
X77457709Y-68396239D01*
X77418327Y-68441148D01*
X77345293Y-68465942D01*
X77317781Y-68465198D01*
X77291152Y-68462000D01*
X77291147Y-68462000D01*
X77291144Y-68462000D01*
X76708856Y-68462000D01*
X76708852Y-68462000D01*
X76677048Y-68465819D01*
X76600699Y-68454880D01*
X76540049Y-68407232D01*
X76536362Y-68402088D01*
X76533578Y-68398024D01*
X76506489Y-68358479D01*
X76451951Y-68303941D01*
X76416258Y-68273361D01*
X76347615Y-68240490D01*
X76314999Y-68224871D01*
X76240505Y-68204910D01*
X76240485Y-68204906D01*
X76161437Y-68194500D01*
X76161430Y-68194500D01*
X73649000Y-68194500D01*
X73648992Y-68194500D01*
X73569944Y-68204906D01*
X73569924Y-68204910D01*
X73495432Y-68224870D01*
X73495412Y-68224876D01*
X73451106Y-68240490D01*
X73451099Y-68240493D01*
X73358476Y-68303943D01*
X73303942Y-68358477D01*
X73273361Y-68394172D01*
X73224871Y-68495430D01*
X73204910Y-68569924D01*
X73204906Y-68569944D01*
X73194500Y-68648992D01*
X73194500Y-68649000D01*
X73194500Y-73074257D01*
X73197114Y-73114132D01*
X73197115Y-73114139D01*
X73202190Y-73152696D01*
X73203190Y-73159674D01*
X73203192Y-73159681D01*
X73240507Y-73265574D01*
X73279061Y-73332352D01*
X73279066Y-73332360D01*
X73279070Y-73332366D01*
X73305632Y-73371142D01*
X73390891Y-73444187D01*
X73390894Y-73444188D01*
X73390899Y-73444193D01*
X73396519Y-73448172D01*
X73395343Y-73449832D01*
X73442609Y-73497089D01*
X73462578Y-73571587D01*
X73457501Y-73610165D01*
X73449500Y-73640022D01*
X73449500Y-77280883D01*
X73444422Y-77319452D01*
X73440276Y-77334923D01*
X73401709Y-77401716D01*
X73334925Y-77440275D01*
X73319455Y-77444421D01*
X73280884Y-77449500D01*
X26219116Y-77449500D01*
X26180549Y-77444422D01*
X26170627Y-77441763D01*
X26165076Y-77440276D01*
X26098283Y-77401709D01*
X26059721Y-77334914D01*
X26055576Y-77319443D01*
X26050500Y-77280883D01*
X26050500Y-62954500D01*
X26070462Y-62880000D01*
X26125000Y-62825462D01*
X26199500Y-62805500D01*
X60851000Y-62805500D01*
X60867906Y-62803274D01*
X60930055Y-62795093D01*
X60930059Y-62795092D01*
X60930068Y-62795091D01*
X61004568Y-62775129D01*
X61004573Y-62775126D01*
X61004587Y-62775123D01*
X61025726Y-62767673D01*
X61048898Y-62759508D01*
X61141521Y-62696059D01*
X61196059Y-62641521D01*
X61226639Y-62605828D01*
X61275129Y-62504568D01*
X61295091Y-62430068D01*
X61298804Y-62401868D01*
X61305499Y-62351007D01*
X61305500Y-62351000D01*
X61305500Y-57418414D01*
X61325462Y-57343914D01*
X61380000Y-57289376D01*
X61454500Y-57269414D01*
X61493070Y-57274493D01*
X61530821Y-57284610D01*
X61530847Y-57284618D01*
X61535519Y-57285868D01*
X61535526Y-57285871D01*
X61539245Y-57286867D01*
X61541046Y-57287349D01*
X61541046Y-57287350D01*
X61550968Y-57290009D01*
X61590169Y-57297808D01*
X61590174Y-57297808D01*
X61590181Y-57297810D01*
X61614889Y-57301062D01*
X61628736Y-57302886D01*
X61668616Y-57305500D01*
X77312091Y-57305500D01*
X77312099Y-57305500D01*
X77383191Y-57297113D01*
X77450636Y-57280975D01*
X77487718Y-57269569D01*
X77583623Y-57211199D01*
X77641018Y-57159676D01*
X77673474Y-57125682D01*
X77727345Y-57027180D01*
X77751289Y-56953863D01*
X77759703Y-56919279D01*
X77796710Y-56851609D01*
X77862594Y-56811509D01*
X77904480Y-56805500D01*
X81545500Y-56805500D01*
X81620000Y-56825462D01*
G37*
%TD.AperFunction*%
%TA.AperFunction,Conductor*%
G36*
X87114906Y-57325462D02*
G01*
X87169444Y-57380000D01*
X87189406Y-57454500D01*
X87169444Y-57529000D01*
X87117488Y-57582012D01*
X87105346Y-57589351D01*
X86989352Y-57705345D01*
X86904414Y-57845852D01*
X86903811Y-57847896D01*
X86855684Y-58002338D01*
X86855249Y-58005200D01*
X86855074Y-58009066D01*
X86849500Y-58070406D01*
X86849500Y-58929594D01*
X86850909Y-58945095D01*
X86853211Y-58970433D01*
X86853210Y-58970433D01*
X86855684Y-58997657D01*
X86855685Y-58997662D01*
X86902927Y-59149262D01*
X86904066Y-59153429D01*
X86904466Y-59154228D01*
X86904467Y-59154228D01*
X86904481Y-59154257D01*
X86904486Y-59154265D01*
X86904486Y-59154266D01*
X86904487Y-59154268D01*
X86904488Y-59154270D01*
X86989352Y-59294653D01*
X87105347Y-59410648D01*
X87245730Y-59495512D01*
X87245732Y-59495512D01*
X87245733Y-59495513D01*
X87245734Y-59495513D01*
X87246488Y-59495969D01*
X87247875Y-59496181D01*
X87327492Y-59520990D01*
X87400996Y-59543895D01*
X87402951Y-59544525D01*
X87404564Y-59544721D01*
X87409055Y-59544925D01*
X87418867Y-59545816D01*
X87470406Y-59550500D01*
X87780884Y-59550500D01*
X87819447Y-59555577D01*
X87834917Y-59559722D01*
X87901712Y-59598285D01*
X87940276Y-59665076D01*
X87941712Y-59670435D01*
X87942762Y-59674355D01*
X87944422Y-59680547D01*
X87949500Y-59719116D01*
X87949500Y-59780883D01*
X87944422Y-59819452D01*
X87940276Y-59834923D01*
X87901709Y-59901716D01*
X87834925Y-59940275D01*
X87819455Y-59944421D01*
X87780884Y-59949500D01*
X87470402Y-59949500D01*
X87433275Y-59952873D01*
X87433274Y-59952872D01*
X87402338Y-59955684D01*
X87247896Y-60003812D01*
X87245848Y-60004416D01*
X87105345Y-60089352D01*
X86989352Y-60205345D01*
X86904414Y-60345852D01*
X86903811Y-60347896D01*
X86855684Y-60502338D01*
X86855249Y-60505200D01*
X86855074Y-60509066D01*
X86849500Y-60570406D01*
X86849500Y-61429594D01*
X86852150Y-61458763D01*
X86853211Y-61470433D01*
X86853210Y-61470433D01*
X86855684Y-61497657D01*
X86855685Y-61497662D01*
X86902927Y-61649262D01*
X86904066Y-61653429D01*
X86904466Y-61654228D01*
X86904467Y-61654228D01*
X86904481Y-61654257D01*
X86904486Y-61654265D01*
X86904486Y-61654266D01*
X86904487Y-61654268D01*
X86904488Y-61654270D01*
X86989352Y-61794653D01*
X87105347Y-61910648D01*
X87245730Y-61995512D01*
X87245731Y-61995512D01*
X87245847Y-61995582D01*
X87247875Y-61996181D01*
X87327492Y-62020990D01*
X87400996Y-62043895D01*
X87402951Y-62044525D01*
X87404564Y-62044721D01*
X87409055Y-62044925D01*
X87418867Y-62045816D01*
X87470406Y-62050500D01*
X87470412Y-62050500D01*
X89529587Y-62050500D01*
X89529588Y-62050500D01*
X89529594Y-62050500D01*
X89590953Y-62044924D01*
X89595435Y-62044721D01*
X89597017Y-62044528D01*
X89599480Y-62043795D01*
X89606537Y-62041788D01*
X89609172Y-62040727D01*
X89645633Y-62029365D01*
X89685629Y-62016901D01*
X89754270Y-61995512D01*
X89894653Y-61910648D01*
X90010648Y-61794653D01*
X90095512Y-61654270D01*
X90140728Y-61509164D01*
X90141792Y-61506523D01*
X90143796Y-61499480D01*
X90144529Y-61497017D01*
X90144720Y-61495442D01*
X90144924Y-61490953D01*
X90150500Y-61429594D01*
X90150500Y-60570406D01*
X90144925Y-60509055D01*
X90144721Y-60504564D01*
X90144525Y-60502947D01*
X90143881Y-60500949D01*
X90130920Y-60459358D01*
X90105469Y-60377682D01*
X90102260Y-60367385D01*
X90100969Y-60358906D01*
X90098963Y-60354063D01*
X90095277Y-60343381D01*
X90093157Y-60339190D01*
X90086156Y-60330254D01*
X90010648Y-60205347D01*
X89894653Y-60089352D01*
X89754270Y-60004488D01*
X89754268Y-60004487D01*
X89754266Y-60004486D01*
X89754264Y-60004485D01*
X89754260Y-60004483D01*
X89597666Y-59955686D01*
X89597663Y-59955685D01*
X89597661Y-59955685D01*
X89570431Y-59953211D01*
X89570429Y-59953210D01*
X89542151Y-59950641D01*
X89529594Y-59949500D01*
X89529590Y-59949500D01*
X89219116Y-59949500D01*
X89180549Y-59944422D01*
X89170627Y-59941763D01*
X89165076Y-59940276D01*
X89098283Y-59901709D01*
X89059721Y-59834914D01*
X89055576Y-59819443D01*
X89050500Y-59780883D01*
X89050500Y-59719116D01*
X89055576Y-59680556D01*
X89057065Y-59675000D01*
X89059721Y-59665083D01*
X89098283Y-59598289D01*
X89165075Y-59559723D01*
X89180556Y-59555576D01*
X89219116Y-59550500D01*
X89529587Y-59550500D01*
X89529588Y-59550500D01*
X89529594Y-59550500D01*
X89590953Y-59544924D01*
X89595434Y-59544721D01*
X89597019Y-59544528D01*
X89599454Y-59543803D01*
X89606529Y-59541790D01*
X89609163Y-59540729D01*
X89669351Y-59521974D01*
X89754270Y-59495512D01*
X89894653Y-59410648D01*
X90010648Y-59294653D01*
X90095512Y-59154270D01*
X90140729Y-59009164D01*
X90141792Y-59006523D01*
X90143798Y-58999473D01*
X90144527Y-58997024D01*
X90144721Y-58995431D01*
X90144924Y-58990953D01*
X90150500Y-58929594D01*
X90150500Y-58070406D01*
X90144925Y-58009055D01*
X90144721Y-58004564D01*
X90144525Y-58002947D01*
X90143881Y-58000949D01*
X90102260Y-57867385D01*
X90100969Y-57858906D01*
X90098963Y-57854063D01*
X90095277Y-57843381D01*
X90093157Y-57839190D01*
X90086156Y-57830254D01*
X90010648Y-57705347D01*
X89894653Y-57589352D01*
X89894652Y-57589351D01*
X89882510Y-57582011D01*
X89829082Y-57526385D01*
X89810624Y-57451498D01*
X89832083Y-57377416D01*
X89887709Y-57323988D01*
X89959594Y-57305500D01*
X91150500Y-57305500D01*
X91225000Y-57325462D01*
X91279538Y-57380000D01*
X91299500Y-57454500D01*
X91299500Y-57568993D01*
X91326416Y-57704313D01*
X91326418Y-57704323D01*
X91326419Y-57704327D01*
X91326421Y-57704333D01*
X91379216Y-57831792D01*
X91379222Y-57831805D01*
X91379230Y-57831820D01*
X91413492Y-57883097D01*
X91430694Y-57917977D01*
X91441591Y-57950078D01*
X91449500Y-57997974D01*
X91449500Y-58622481D01*
X91466804Y-58687059D01*
X91471162Y-58711007D01*
X91473781Y-58737577D01*
X91474500Y-58752193D01*
X91474500Y-59349401D01*
X91482563Y-59410645D01*
X91482563Y-59410647D01*
X91482564Y-59410647D01*
X91488991Y-59459473D01*
X91502471Y-59492014D01*
X91502471Y-59492018D01*
X91502473Y-59492018D01*
X91502473Y-59492019D01*
X91545719Y-59596427D01*
X91552740Y-59605577D01*
X91557549Y-59611843D01*
X91557551Y-59611846D01*
X91582465Y-59644314D01*
X91635964Y-59714036D01*
X91723081Y-59780883D01*
X91745826Y-59798336D01*
X91749503Y-59801560D01*
X91749514Y-59801568D01*
X91753494Y-59804420D01*
X91758063Y-59806140D01*
X91890528Y-59861009D01*
X91890533Y-59861010D01*
X91930260Y-59866239D01*
X92000599Y-59875500D01*
X92999400Y-59875499D01*
X93109472Y-59861009D01*
X93246089Y-59804420D01*
X93246427Y-59804280D01*
X93246427Y-59804279D01*
X93246429Y-59804279D01*
X93364036Y-59714036D01*
X93394485Y-59674353D01*
X93421982Y-59646856D01*
X93440054Y-59632989D01*
X93501690Y-59605063D01*
X93510246Y-59603361D01*
X93539309Y-59600500D01*
X93955750Y-59600500D01*
X93994314Y-59605577D01*
X94016307Y-59611470D01*
X94075981Y-59643365D01*
X94082537Y-59649114D01*
X94102507Y-59670435D01*
X94135962Y-59714034D01*
X94135966Y-59714038D01*
X94186760Y-59753013D01*
X94186761Y-59753014D01*
X94208883Y-59769989D01*
X94248645Y-59800500D01*
X94253573Y-59804281D01*
X94375622Y-59854835D01*
X94409308Y-59874283D01*
X94410894Y-59875500D01*
X94420315Y-59882729D01*
X94467266Y-59943920D01*
X94477332Y-60020388D01*
X94447815Y-60091645D01*
X94447814Y-60091646D01*
X94445551Y-60094595D01*
X94384363Y-60141544D01*
X94253572Y-60195718D01*
X94135966Y-60285962D01*
X94135962Y-60285966D01*
X94045718Y-60403573D01*
X94045717Y-60403573D01*
X93988990Y-60540526D01*
X93988987Y-60540543D01*
X93974500Y-60650587D01*
X93974500Y-61249403D01*
X93988990Y-61359469D01*
X93988990Y-61359471D01*
X94045717Y-61496425D01*
X94053466Y-61506523D01*
X94079787Y-61540825D01*
X94135964Y-61614036D01*
X94252763Y-61703659D01*
X94253574Y-61704281D01*
X94339402Y-61739832D01*
X94373076Y-61759273D01*
X94387033Y-61769983D01*
X94433984Y-61831165D01*
X94436673Y-61837657D01*
X94438155Y-61841233D01*
X94449500Y-61898261D01*
X94449500Y-62772475D01*
X94449500Y-62772477D01*
X94449501Y-62772480D01*
X94458677Y-62806727D01*
X94458678Y-62806727D01*
X94487016Y-62912485D01*
X94487017Y-62912486D01*
X94559490Y-63038015D01*
X94866987Y-63345512D01*
X94890664Y-63376369D01*
X94904536Y-63400395D01*
X94924500Y-63474894D01*
X94924500Y-63693285D01*
X94926781Y-63717604D01*
X94927077Y-63723948D01*
X94928811Y-63728487D01*
X94973531Y-63856289D01*
X95005693Y-63899867D01*
X95046205Y-63954761D01*
X95056411Y-63968589D01*
X95168711Y-64051469D01*
X95300451Y-64097567D01*
X95331728Y-64100500D01*
X95331736Y-64100500D01*
X95768264Y-64100500D01*
X95768272Y-64100500D01*
X95799549Y-64097567D01*
X95931289Y-64051469D01*
X95931294Y-64051465D01*
X95937161Y-64048364D01*
X95952348Y-64041395D01*
X95971159Y-64034012D01*
X96047794Y-64025380D01*
X96055948Y-64026609D01*
X96107851Y-64048107D01*
X96108834Y-64046249D01*
X96118708Y-64051467D01*
X96118711Y-64051469D01*
X96250451Y-64097567D01*
X96281728Y-64100500D01*
X96281736Y-64100500D01*
X96718264Y-64100500D01*
X96718272Y-64100500D01*
X96749549Y-64097567D01*
X96881289Y-64051469D01*
X96881294Y-64051465D01*
X96887161Y-64048364D01*
X96902348Y-64041395D01*
X96921159Y-64034012D01*
X96997794Y-64025380D01*
X97005948Y-64026609D01*
X97057851Y-64048107D01*
X97058834Y-64046249D01*
X97068708Y-64051467D01*
X97068711Y-64051469D01*
X97200451Y-64097567D01*
X97231728Y-64100500D01*
X97231736Y-64100500D01*
X97668264Y-64100500D01*
X97668272Y-64100500D01*
X97699549Y-64097567D01*
X97831289Y-64051469D01*
X97943589Y-63968589D01*
X98011330Y-63876801D01*
X98038304Y-63848798D01*
X98055542Y-63835051D01*
X98118016Y-63805684D01*
X98119688Y-63805335D01*
X98127822Y-63803639D01*
X98158244Y-63800500D01*
X99289272Y-63800500D01*
X99327836Y-63805577D01*
X99358170Y-63813705D01*
X99409637Y-63838904D01*
X99490025Y-63899864D01*
X99490031Y-63899867D01*
X99557210Y-63926359D01*
X99557214Y-63926359D01*
X99557217Y-63926361D01*
X99624409Y-63952859D01*
X99640260Y-63954762D01*
X99708856Y-63963000D01*
X99708857Y-63963000D01*
X100291143Y-63963000D01*
X100291144Y-63963000D01*
X100375590Y-63952859D01*
X100509975Y-63899864D01*
X100625078Y-63812578D01*
X100625079Y-63812574D01*
X100631495Y-63807710D01*
X100647031Y-63797394D01*
X100672031Y-63782961D01*
X100746528Y-63763000D01*
X101129580Y-63763000D01*
X101155344Y-63767526D01*
X101168143Y-63768077D01*
X101198284Y-63776153D01*
X101215629Y-63784706D01*
X101238971Y-63793168D01*
X101239902Y-63793791D01*
X101253570Y-63804279D01*
X101390528Y-63861009D01*
X101390533Y-63861010D01*
X101430260Y-63866239D01*
X101500599Y-63875500D01*
X102499400Y-63875499D01*
X102609472Y-63861009D01*
X102743037Y-63805684D01*
X102746427Y-63804280D01*
X102746427Y-63804279D01*
X102746429Y-63804279D01*
X102864036Y-63714036D01*
X102894485Y-63674353D01*
X102921982Y-63646856D01*
X102940054Y-63632989D01*
X103001690Y-63605063D01*
X103010246Y-63603361D01*
X103039309Y-63600500D01*
X103240641Y-63600500D01*
X103279200Y-63605575D01*
X103305999Y-63612756D01*
X103372792Y-63651318D01*
X103372795Y-63651320D01*
X103883463Y-64161988D01*
X104352245Y-64630769D01*
X104375925Y-64661631D01*
X104383933Y-64675502D01*
X104403894Y-64750002D01*
X104383930Y-64824502D01*
X104383929Y-64824503D01*
X104375920Y-64838374D01*
X104352244Y-64869229D01*
X102059489Y-67161984D01*
X102035043Y-67204328D01*
X102020681Y-67229204D01*
X101993308Y-67276613D01*
X101993308Y-67276614D01*
X101987017Y-67287509D01*
X101987015Y-67287517D01*
X101949500Y-67427522D01*
X101949500Y-68045500D01*
X101929538Y-68120000D01*
X101875000Y-68174538D01*
X101800500Y-68194500D01*
X92839152Y-68194500D01*
X92839150Y-68194500D01*
X92821018Y-68196834D01*
X92761776Y-68204461D01*
X92761768Y-68204462D01*
X92688746Y-68223582D01*
X92688732Y-68223586D01*
X92645931Y-68238258D01*
X92552585Y-68300648D01*
X92497433Y-68354555D01*
X92466441Y-68389903D01*
X92461017Y-68398024D01*
X92458335Y-68396232D01*
X92418845Y-68441238D01*
X92345804Y-68466011D01*
X92318337Y-68465265D01*
X92291147Y-68462000D01*
X92291144Y-68462000D01*
X92291142Y-68462000D01*
X92109358Y-68462000D01*
X92070794Y-68456923D01*
X92063169Y-68454880D01*
X92043998Y-68449743D01*
X91977203Y-68411179D01*
X90595071Y-67029046D01*
X90497030Y-66931005D01*
X96799500Y-66931005D01*
X96799500Y-67068993D01*
X96826416Y-67204313D01*
X96826420Y-67204329D01*
X96872516Y-67315616D01*
X96879224Y-67331809D01*
X96879227Y-67331815D01*
X96943179Y-67427525D01*
X96951650Y-67440203D01*
X96955885Y-67446541D01*
X96955892Y-67446549D01*
X97053454Y-67544111D01*
X97053461Y-67544116D01*
X97168188Y-67620775D01*
X97258330Y-67658112D01*
X97295672Y-67673580D01*
X97431007Y-67700500D01*
X97568993Y-67700500D01*
X97704328Y-67673580D01*
X97831811Y-67620775D01*
X97946542Y-67544114D01*
X98044114Y-67446542D01*
X98120775Y-67331811D01*
X98173580Y-67204328D01*
X98200500Y-67068993D01*
X98200500Y-66931007D01*
X98173580Y-66795672D01*
X98140398Y-66715564D01*
X98120776Y-66668191D01*
X98120771Y-66668184D01*
X98096096Y-66631254D01*
X98072573Y-66596049D01*
X98072569Y-66596045D01*
X98072568Y-66596043D01*
X98044116Y-66553461D01*
X98044114Y-66553458D01*
X98044112Y-66553456D01*
X98044030Y-66553332D01*
X98040032Y-66547335D01*
X98040261Y-66547181D01*
X98033440Y-66537320D01*
X98023144Y-66519487D01*
X98022302Y-66518029D01*
X98002341Y-66443530D01*
X98002341Y-66440334D01*
X98017092Y-66375694D01*
X98021596Y-66366343D01*
X98021594Y-66366342D01*
X98024866Y-66359549D01*
X98027497Y-66354348D01*
X98028720Y-66352043D01*
X98030183Y-66348511D01*
X98033827Y-66340943D01*
X98033739Y-66339358D01*
X98038952Y-66320615D01*
X98072567Y-66224549D01*
X98072567Y-66224547D01*
X98075108Y-66197456D01*
X98075500Y-66193272D01*
X98075500Y-65306728D01*
X98072567Y-65275451D01*
X98026469Y-65143711D01*
X97943589Y-65031411D01*
X97943588Y-65031410D01*
X97943587Y-65031409D01*
X97935089Y-65025138D01*
X97935089Y-65025137D01*
X97935083Y-65025133D01*
X97914168Y-65009697D01*
X97831288Y-64948530D01*
X97736836Y-64915480D01*
X97703487Y-64903811D01*
X97698948Y-64902077D01*
X97692605Y-64901781D01*
X97668285Y-64899500D01*
X97668281Y-64899500D01*
X97668272Y-64899500D01*
X97231728Y-64899500D01*
X97231718Y-64899500D01*
X97231708Y-64899500D01*
X97200457Y-64902430D01*
X97068711Y-64948530D01*
X97068709Y-64948532D01*
X96956413Y-65031408D01*
X96956408Y-65031413D01*
X96926105Y-65072474D01*
X96873531Y-65143711D01*
X96873530Y-65143713D01*
X96849466Y-65212485D01*
X96827430Y-65275457D01*
X96824500Y-65306708D01*
X96824500Y-66193285D01*
X96826781Y-66217604D01*
X96827077Y-66223948D01*
X96828811Y-66228487D01*
X96873530Y-66356287D01*
X96873532Y-66356291D01*
X96912088Y-66408532D01*
X96930906Y-66442580D01*
X96937331Y-66458952D01*
X96945965Y-66535589D01*
X96944558Y-66544925D01*
X96921111Y-66605500D01*
X96879227Y-66668183D01*
X96879227Y-66668184D01*
X96879220Y-66668198D01*
X96826420Y-66795669D01*
X96826416Y-66795685D01*
X96799500Y-66931005D01*
X90497030Y-66931005D01*
X90125514Y-66559489D01*
X90030102Y-66504404D01*
X90030100Y-66504402D01*
X89999989Y-66487017D01*
X89986692Y-66483454D01*
X89938479Y-66470535D01*
X89938463Y-66470530D01*
X89859977Y-66449500D01*
X89859975Y-66449500D01*
X84997276Y-66449500D01*
X84958708Y-66444422D01*
X84935475Y-66438196D01*
X84877649Y-66407893D01*
X84872735Y-66403724D01*
X84853951Y-66384630D01*
X84830691Y-66356288D01*
X84830690Y-66356287D01*
X84824308Y-66348511D01*
X84746410Y-66253590D01*
X84746408Y-66253588D01*
X84586430Y-66122298D01*
X84586222Y-66122164D01*
X84584686Y-66121370D01*
X84403958Y-66024769D01*
X84205937Y-65964700D01*
X84205928Y-65964698D01*
X84205922Y-65964697D01*
X84119041Y-65956140D01*
X84051613Y-65949500D01*
X84051609Y-65949500D01*
X83948391Y-65949500D01*
X83948387Y-65949500D01*
X83887599Y-65955486D01*
X83794076Y-65964697D01*
X83794070Y-65964698D01*
X83794061Y-65964700D01*
X83596042Y-66024768D01*
X83413565Y-66122305D01*
X83413560Y-66122308D01*
X83413557Y-66122310D01*
X83413547Y-66122317D01*
X83413544Y-66122319D01*
X83413533Y-66122327D01*
X83253598Y-66253582D01*
X83253591Y-66253588D01*
X83253588Y-66253591D01*
X83253582Y-66253598D01*
X83122321Y-66413541D01*
X83122316Y-66413547D01*
X83122311Y-66413555D01*
X83122304Y-66413567D01*
X83024782Y-66596018D01*
X83024765Y-66596051D01*
X83019781Y-66612483D01*
X83003728Y-66647911D01*
X82994440Y-66662847D01*
X82938161Y-66715563D01*
X82930982Y-66719400D01*
X82860735Y-66737000D01*
X82255990Y-66737000D01*
X82217426Y-66731923D01*
X82190630Y-66724743D01*
X82129869Y-66689662D01*
X82128910Y-66690763D01*
X82125073Y-66687417D01*
X82072977Y-66647911D01*
X82050115Y-66630574D01*
X82022457Y-66603229D01*
X82012632Y-66590574D01*
X81982713Y-66519487D01*
X81992341Y-66442977D01*
X81993418Y-66440334D01*
X81994438Y-66437830D01*
X82027061Y-66388700D01*
X82027286Y-66388475D01*
X82042598Y-66375124D01*
X82125078Y-66312578D01*
X82212364Y-66197475D01*
X82265359Y-66063090D01*
X82275500Y-65978644D01*
X82275500Y-65446356D01*
X82265359Y-65361910D01*
X82265357Y-65361907D01*
X82265357Y-65361903D01*
X82251491Y-65326743D01*
X82251489Y-65326739D01*
X82238862Y-65294719D01*
X82231264Y-65275453D01*
X82213820Y-65231219D01*
X82212372Y-65227234D01*
X82209566Y-65223259D01*
X82209561Y-65223251D01*
X82206208Y-65219406D01*
X82148805Y-65143710D01*
X82148805Y-65143709D01*
X82148802Y-65143707D01*
X82125080Y-65112424D01*
X82125077Y-65112421D01*
X82100884Y-65094075D01*
X82100883Y-65094074D01*
X82072398Y-65072473D01*
X82009979Y-65025138D01*
X82009973Y-65025135D01*
X82009963Y-65025131D01*
X82009956Y-65025128D01*
X81875594Y-64972141D01*
X81875587Y-64972139D01*
X81791149Y-64962000D01*
X81791147Y-64962000D01*
X81791144Y-64962000D01*
X81609358Y-64962000D01*
X81570794Y-64956923D01*
X81543998Y-64949743D01*
X81477203Y-64911179D01*
X81108012Y-64541987D01*
X81084332Y-64511126D01*
X81070461Y-64487100D01*
X81050500Y-64412602D01*
X81050500Y-60459358D01*
X81055576Y-60420799D01*
X81060191Y-60403573D01*
X81062756Y-60394001D01*
X81101317Y-60327207D01*
X81131276Y-60297247D01*
X81162122Y-60273578D01*
X81174146Y-60266636D01*
X81248641Y-60246676D01*
X81323141Y-60266638D01*
X81377679Y-60321176D01*
X81377680Y-60321178D01*
X81379539Y-60324398D01*
X81399500Y-60398896D01*
X81399500Y-61065947D01*
X81399502Y-61065970D01*
X81405761Y-61124202D01*
X81407977Y-61129419D01*
X81453939Y-61252647D01*
X81453940Y-61252649D01*
X81453942Y-61252652D01*
X81533905Y-61359472D01*
X81536738Y-61363256D01*
X81536743Y-61363261D01*
X81536751Y-61363267D01*
X81645441Y-61444631D01*
X81649230Y-61447563D01*
X81652255Y-61449983D01*
X81654923Y-61451728D01*
X81664826Y-61459141D01*
X81706968Y-61486938D01*
X81736061Y-61536324D01*
X81740492Y-61548898D01*
X81803941Y-61641521D01*
X81858479Y-61696059D01*
X81894172Y-61726639D01*
X81995432Y-61775129D01*
X82052323Y-61790372D01*
X82069924Y-61795089D01*
X82069926Y-61795089D01*
X82069932Y-61795091D01*
X82069937Y-61795091D01*
X82069944Y-61795093D01*
X82148992Y-61805499D01*
X82149000Y-61805500D01*
X85351000Y-61805500D01*
X85367906Y-61803274D01*
X85430055Y-61795093D01*
X85430059Y-61795092D01*
X85430068Y-61795091D01*
X85504568Y-61775129D01*
X85504573Y-61775126D01*
X85504587Y-61775123D01*
X85525726Y-61767673D01*
X85548898Y-61759508D01*
X85641521Y-61696059D01*
X85696059Y-61641521D01*
X85726639Y-61605828D01*
X85775129Y-61504568D01*
X85795091Y-61430068D01*
X85795154Y-61429594D01*
X85805499Y-61351007D01*
X85805500Y-61351000D01*
X85805500Y-57454500D01*
X85825462Y-57380000D01*
X85880000Y-57325462D01*
X85954500Y-57305500D01*
X87040406Y-57305500D01*
X87114906Y-57325462D01*
G37*
%TD.AperFunction*%
%TA.AperFunction,Conductor*%
G36*
X107925500Y-49799962D02*
G01*
X107980038Y-49854500D01*
X108000000Y-49929000D01*
X108000000Y-50662961D01*
X107997841Y-50671016D01*
X107999106Y-50679260D01*
X107987975Y-50707837D01*
X107980038Y-50737461D01*
X107976297Y-50743594D01*
X107935388Y-50807163D01*
X107935386Y-50807165D01*
X107906284Y-50878571D01*
X107906275Y-50878594D01*
X107891939Y-50923345D01*
X107891272Y-50927036D01*
X107889670Y-50930431D01*
X107888959Y-50932651D01*
X107888666Y-50932557D01*
X107858361Y-50996790D01*
X107794983Y-51040743D01*
X107744654Y-51049500D01*
X107676637Y-51049500D01*
X107668581Y-51047341D01*
X107660338Y-51048606D01*
X107631760Y-51037475D01*
X107602137Y-51029538D01*
X107596239Y-51023640D01*
X107588469Y-51020614D01*
X107569285Y-50996686D01*
X107547599Y-50975000D01*
X107545440Y-50966944D01*
X107540224Y-50960438D01*
X107529024Y-50920784D01*
X107527969Y-50913105D01*
X107518006Y-50867169D01*
X107466622Y-50767347D01*
X107419322Y-50706425D01*
X107362612Y-50650356D01*
X107322298Y-50619784D01*
X107322294Y-50619781D01*
X107321644Y-50619288D01*
X107293097Y-50590707D01*
X107281303Y-50575154D01*
X107261418Y-50539789D01*
X107252885Y-50518151D01*
X107242500Y-50463497D01*
X107242500Y-49986499D01*
X107252886Y-49931845D01*
X107261417Y-49910210D01*
X107281300Y-49874848D01*
X107293102Y-49859285D01*
X107321785Y-49830602D01*
X107337348Y-49818800D01*
X107372710Y-49798917D01*
X107394345Y-49790386D01*
X107448999Y-49780000D01*
X107851000Y-49780000D01*
X107925500Y-49799962D01*
G37*
%TD.AperFunction*%
%TA.AperFunction,Conductor*%
G36*
X39452963Y-41661745D02*
G01*
X39510698Y-41679736D01*
X39543442Y-41694474D01*
X39589380Y-41722244D01*
X39617654Y-41744395D01*
X39655602Y-41782343D01*
X39677754Y-41810618D01*
X39705520Y-41856548D01*
X39720262Y-41889303D01*
X39738253Y-41947036D01*
X39745000Y-41991365D01*
X39745000Y-44008635D01*
X39738259Y-44052941D01*
X39737699Y-44054741D01*
X39737697Y-44054748D01*
X39720265Y-44110689D01*
X39705524Y-44143441D01*
X39660483Y-44217948D01*
X39658964Y-44220492D01*
X39657386Y-44223166D01*
X39625370Y-44299411D01*
X39625369Y-44299413D01*
X39605410Y-44373900D01*
X39605406Y-44373920D01*
X39595000Y-44452968D01*
X39595000Y-45593924D01*
X39592137Y-45622995D01*
X39574996Y-45709162D01*
X39566517Y-45737111D01*
X39532895Y-45818281D01*
X39519127Y-45844040D01*
X39470320Y-45917086D01*
X39451789Y-45939666D01*
X39389666Y-46001789D01*
X39367086Y-46020320D01*
X39294040Y-46069127D01*
X39268281Y-46082895D01*
X39187111Y-46116517D01*
X39159162Y-46124996D01*
X39107679Y-46135237D01*
X39072991Y-46142137D01*
X39043925Y-46145000D01*
X38956075Y-46145000D01*
X38927006Y-46142137D01*
X38884501Y-46133682D01*
X38840835Y-46124996D01*
X38812886Y-46116517D01*
X38731721Y-46082898D01*
X38705959Y-46069128D01*
X38632908Y-46020316D01*
X38610330Y-46001787D01*
X38548207Y-45939664D01*
X38529678Y-45917086D01*
X38480870Y-45844041D01*
X38480869Y-45844040D01*
X38480869Y-45844039D01*
X38467100Y-45818279D01*
X38433481Y-45737114D01*
X38425002Y-45709162D01*
X38407863Y-45622993D01*
X38405000Y-45593926D01*
X38405000Y-44452955D01*
X38404997Y-44452466D01*
X38404985Y-44449921D01*
X38404955Y-44446921D01*
X38392908Y-44364980D01*
X38371450Y-44290899D01*
X38341783Y-44223168D01*
X38339455Y-44217852D01*
X38339450Y-44217843D01*
X38294477Y-44143447D01*
X38279736Y-44110693D01*
X38261747Y-44052965D01*
X38255000Y-44008637D01*
X38255000Y-41991359D01*
X38261745Y-41947037D01*
X38279738Y-41889296D01*
X38294476Y-41856552D01*
X38322244Y-41810618D01*
X38344392Y-41782346D01*
X38382346Y-41744392D01*
X38410614Y-41722246D01*
X38456553Y-41694474D01*
X38489295Y-41679738D01*
X38547033Y-41661745D01*
X38591359Y-41655000D01*
X39408639Y-41655000D01*
X39452963Y-41661745D01*
G37*
%TD.AperFunction*%
%TA.AperFunction,Conductor*%
G36*
X44952963Y-41661745D02*
G01*
X45010698Y-41679736D01*
X45043442Y-41694474D01*
X45089380Y-41722244D01*
X45117654Y-41744395D01*
X45155602Y-41782343D01*
X45177754Y-41810618D01*
X45205520Y-41856548D01*
X45220262Y-41889303D01*
X45238253Y-41947036D01*
X45245000Y-41991365D01*
X45245000Y-44008635D01*
X45238259Y-44052941D01*
X45237699Y-44054741D01*
X45237697Y-44054748D01*
X45220265Y-44110689D01*
X45205524Y-44143441D01*
X45160483Y-44217948D01*
X45158964Y-44220492D01*
X45157386Y-44223166D01*
X45125370Y-44299411D01*
X45125369Y-44299413D01*
X45105410Y-44373900D01*
X45105406Y-44373920D01*
X45095000Y-44452968D01*
X45095000Y-45593924D01*
X45092137Y-45622995D01*
X45074996Y-45709162D01*
X45066517Y-45737111D01*
X45032895Y-45818281D01*
X45019127Y-45844040D01*
X44970320Y-45917086D01*
X44951789Y-45939666D01*
X44889666Y-46001789D01*
X44867086Y-46020320D01*
X44794040Y-46069127D01*
X44768281Y-46082895D01*
X44687111Y-46116517D01*
X44659162Y-46124996D01*
X44607679Y-46135237D01*
X44572991Y-46142137D01*
X44543925Y-46145000D01*
X44456075Y-46145000D01*
X44427006Y-46142137D01*
X44384501Y-46133682D01*
X44340835Y-46124996D01*
X44312886Y-46116517D01*
X44231721Y-46082898D01*
X44205959Y-46069128D01*
X44132908Y-46020316D01*
X44110330Y-46001787D01*
X44048207Y-45939664D01*
X44029678Y-45917086D01*
X43980870Y-45844041D01*
X43980869Y-45844040D01*
X43980869Y-45844039D01*
X43967100Y-45818279D01*
X43933481Y-45737114D01*
X43925002Y-45709162D01*
X43907863Y-45622993D01*
X43905000Y-45593926D01*
X43905000Y-44452955D01*
X43904997Y-44452466D01*
X43904985Y-44449921D01*
X43904955Y-44446921D01*
X43892908Y-44364980D01*
X43871450Y-44290899D01*
X43841783Y-44223168D01*
X43839455Y-44217852D01*
X43839450Y-44217843D01*
X43794477Y-44143447D01*
X43779736Y-44110693D01*
X43761747Y-44052965D01*
X43755000Y-44008637D01*
X43755000Y-41991359D01*
X43761745Y-41947037D01*
X43779738Y-41889296D01*
X43794476Y-41856552D01*
X43822244Y-41810618D01*
X43844392Y-41782346D01*
X43882346Y-41744392D01*
X43910614Y-41722246D01*
X43956553Y-41694474D01*
X43989295Y-41679738D01*
X44047033Y-41661745D01*
X44091359Y-41655000D01*
X44908639Y-41655000D01*
X44952963Y-41661745D01*
G37*
%TD.AperFunction*%
%TA.AperFunction,Conductor*%
G36*
X50452963Y-41661745D02*
G01*
X50510698Y-41679736D01*
X50543442Y-41694474D01*
X50589380Y-41722244D01*
X50617654Y-41744395D01*
X50655602Y-41782343D01*
X50677754Y-41810618D01*
X50705520Y-41856548D01*
X50720262Y-41889303D01*
X50738253Y-41947036D01*
X50745000Y-41991365D01*
X50745000Y-44008635D01*
X50738259Y-44052941D01*
X50737699Y-44054741D01*
X50737697Y-44054748D01*
X50720265Y-44110689D01*
X50705524Y-44143441D01*
X50660483Y-44217948D01*
X50658964Y-44220492D01*
X50657386Y-44223166D01*
X50625370Y-44299411D01*
X50625369Y-44299413D01*
X50605410Y-44373900D01*
X50605406Y-44373920D01*
X50595000Y-44452968D01*
X50595000Y-45593924D01*
X50592137Y-45622995D01*
X50574996Y-45709162D01*
X50566517Y-45737111D01*
X50532895Y-45818281D01*
X50519127Y-45844040D01*
X50470320Y-45917086D01*
X50451789Y-45939666D01*
X50389666Y-46001789D01*
X50367086Y-46020320D01*
X50294040Y-46069127D01*
X50268281Y-46082895D01*
X50187111Y-46116517D01*
X50159162Y-46124996D01*
X50107679Y-46135237D01*
X50072991Y-46142137D01*
X50043925Y-46145000D01*
X49956075Y-46145000D01*
X49927006Y-46142137D01*
X49884501Y-46133682D01*
X49840835Y-46124996D01*
X49812886Y-46116517D01*
X49731721Y-46082898D01*
X49705959Y-46069128D01*
X49632908Y-46020316D01*
X49610330Y-46001787D01*
X49548207Y-45939664D01*
X49529678Y-45917086D01*
X49480870Y-45844041D01*
X49480869Y-45844040D01*
X49480869Y-45844039D01*
X49467100Y-45818279D01*
X49433481Y-45737114D01*
X49425002Y-45709162D01*
X49407863Y-45622993D01*
X49405000Y-45593926D01*
X49405000Y-44452955D01*
X49404997Y-44452466D01*
X49404985Y-44449921D01*
X49404955Y-44446921D01*
X49392908Y-44364980D01*
X49371450Y-44290899D01*
X49341783Y-44223168D01*
X49339455Y-44217852D01*
X49339450Y-44217843D01*
X49294477Y-44143447D01*
X49279736Y-44110693D01*
X49261747Y-44052965D01*
X49255000Y-44008637D01*
X49255000Y-41991359D01*
X49261745Y-41947037D01*
X49279738Y-41889296D01*
X49294476Y-41856552D01*
X49322244Y-41810618D01*
X49344392Y-41782346D01*
X49382346Y-41744392D01*
X49410614Y-41722246D01*
X49456553Y-41694474D01*
X49489295Y-41679738D01*
X49547033Y-41661745D01*
X49591359Y-41655000D01*
X50408639Y-41655000D01*
X50452963Y-41661745D01*
G37*
%TD.AperFunction*%
%TA.AperFunction,Conductor*%
G36*
X31348080Y-42656834D02*
G01*
X31376971Y-42661409D01*
X31456295Y-42673972D01*
X31479027Y-42679431D01*
X31583213Y-42713283D01*
X31604814Y-42722230D01*
X31654638Y-42747616D01*
X31702430Y-42771967D01*
X31722357Y-42784178D01*
X31788848Y-42832487D01*
X31810997Y-42848579D01*
X31828775Y-42863763D01*
X31906235Y-42941223D01*
X31921419Y-42959001D01*
X31985816Y-43047635D01*
X31998033Y-43067572D01*
X32047768Y-43165184D01*
X32056715Y-43186785D01*
X32090569Y-43290977D01*
X32096027Y-43313710D01*
X32113165Y-43421911D01*
X32115000Y-43445221D01*
X32115000Y-43554777D01*
X32113165Y-43578087D01*
X32096027Y-43686288D01*
X32090569Y-43709021D01*
X32056715Y-43813213D01*
X32047768Y-43834814D01*
X31998033Y-43932426D01*
X31985816Y-43952363D01*
X31921419Y-44040997D01*
X31906235Y-44058775D01*
X31828775Y-44136235D01*
X31810997Y-44151419D01*
X31722363Y-44215816D01*
X31702426Y-44228033D01*
X31604814Y-44277768D01*
X31583213Y-44286715D01*
X31479021Y-44320569D01*
X31456288Y-44326027D01*
X31402188Y-44334596D01*
X31348085Y-44343165D01*
X31324778Y-44345000D01*
X31215229Y-44345000D01*
X31191920Y-44343165D01*
X31083705Y-44326025D01*
X31060971Y-44320567D01*
X30956785Y-44286715D01*
X30935184Y-44277768D01*
X30837572Y-44228033D01*
X30817638Y-44215818D01*
X30777909Y-44186953D01*
X30729001Y-44151419D01*
X30711223Y-44136235D01*
X30633763Y-44058775D01*
X30618579Y-44040997D01*
X30595068Y-44008637D01*
X30554178Y-43952357D01*
X30541965Y-43932426D01*
X30492230Y-43834814D01*
X30483283Y-43813213D01*
X30449431Y-43709027D01*
X30443972Y-43686291D01*
X30426834Y-43578079D01*
X30425000Y-43554772D01*
X30425000Y-43445226D01*
X30426834Y-43421918D01*
X30443973Y-43313701D01*
X30449426Y-43290983D01*
X30483288Y-43186766D01*
X30492223Y-43165196D01*
X30541974Y-43067556D01*
X30554184Y-43047631D01*
X30618580Y-42958998D01*
X30633753Y-42941232D01*
X30711232Y-42863753D01*
X30728998Y-42848580D01*
X30817631Y-42784184D01*
X30837556Y-42771973D01*
X30935188Y-42722227D01*
X30956777Y-42713284D01*
X31060980Y-42679427D01*
X31083700Y-42673973D01*
X31169146Y-42660440D01*
X31191920Y-42656834D01*
X31215227Y-42655000D01*
X31324773Y-42655000D01*
X31348080Y-42656834D01*
G37*
%TD.AperFunction*%
%TA.AperFunction,Conductor*%
G36*
X39452963Y-35161745D02*
G01*
X39510698Y-35179736D01*
X39543442Y-35194474D01*
X39589380Y-35222244D01*
X39617654Y-35244395D01*
X39655602Y-35282343D01*
X39677754Y-35310618D01*
X39705520Y-35356548D01*
X39720262Y-35389303D01*
X39738253Y-35447036D01*
X39745000Y-35491365D01*
X39745000Y-37508635D01*
X39738259Y-37552941D01*
X39737699Y-37554741D01*
X39737697Y-37554748D01*
X39720265Y-37610689D01*
X39705524Y-37643441D01*
X39660483Y-37717948D01*
X39658964Y-37720492D01*
X39657386Y-37723166D01*
X39625370Y-37799411D01*
X39625369Y-37799413D01*
X39605410Y-37873900D01*
X39605406Y-37873920D01*
X39595000Y-37952968D01*
X39595000Y-39093924D01*
X39592137Y-39122995D01*
X39574996Y-39209162D01*
X39566517Y-39237111D01*
X39532895Y-39318281D01*
X39519127Y-39344040D01*
X39470320Y-39417086D01*
X39451789Y-39439666D01*
X39389666Y-39501789D01*
X39367086Y-39520320D01*
X39294040Y-39569127D01*
X39268281Y-39582895D01*
X39187111Y-39616517D01*
X39159162Y-39624996D01*
X39107679Y-39635237D01*
X39072991Y-39642137D01*
X39043925Y-39645000D01*
X38956075Y-39645000D01*
X38927006Y-39642137D01*
X38884501Y-39633682D01*
X38840835Y-39624996D01*
X38812886Y-39616517D01*
X38731721Y-39582898D01*
X38705959Y-39569128D01*
X38632908Y-39520316D01*
X38610330Y-39501787D01*
X38548207Y-39439664D01*
X38529678Y-39417086D01*
X38480870Y-39344041D01*
X38480869Y-39344040D01*
X38480869Y-39344039D01*
X38467100Y-39318279D01*
X38433481Y-39237114D01*
X38425002Y-39209162D01*
X38407863Y-39122993D01*
X38405000Y-39093926D01*
X38405000Y-37952955D01*
X38404997Y-37952466D01*
X38404985Y-37949921D01*
X38404955Y-37946921D01*
X38392908Y-37864980D01*
X38371450Y-37790899D01*
X38341783Y-37723168D01*
X38339455Y-37717852D01*
X38339450Y-37717843D01*
X38294477Y-37643447D01*
X38279736Y-37610693D01*
X38261747Y-37552965D01*
X38255000Y-37508637D01*
X38255000Y-35491359D01*
X38261745Y-35447037D01*
X38279738Y-35389296D01*
X38294476Y-35356552D01*
X38322244Y-35310618D01*
X38344392Y-35282346D01*
X38382346Y-35244392D01*
X38410614Y-35222246D01*
X38456553Y-35194474D01*
X38489295Y-35179738D01*
X38547033Y-35161745D01*
X38591359Y-35155000D01*
X39408639Y-35155000D01*
X39452963Y-35161745D01*
G37*
%TD.AperFunction*%
%TA.AperFunction,Conductor*%
G36*
X44952963Y-35161745D02*
G01*
X45010698Y-35179736D01*
X45043442Y-35194474D01*
X45089380Y-35222244D01*
X45117654Y-35244395D01*
X45155602Y-35282343D01*
X45177754Y-35310618D01*
X45205520Y-35356548D01*
X45220262Y-35389303D01*
X45238253Y-35447036D01*
X45245000Y-35491365D01*
X45245000Y-37508635D01*
X45238259Y-37552941D01*
X45237699Y-37554741D01*
X45237697Y-37554748D01*
X45220265Y-37610689D01*
X45205524Y-37643441D01*
X45160483Y-37717948D01*
X45158964Y-37720492D01*
X45157386Y-37723166D01*
X45125370Y-37799411D01*
X45125369Y-37799413D01*
X45105410Y-37873900D01*
X45105406Y-37873920D01*
X45095000Y-37952968D01*
X45095000Y-39093924D01*
X45092137Y-39122995D01*
X45074996Y-39209162D01*
X45066517Y-39237111D01*
X45032895Y-39318281D01*
X45019127Y-39344040D01*
X44970320Y-39417086D01*
X44951789Y-39439666D01*
X44889666Y-39501789D01*
X44867086Y-39520320D01*
X44794040Y-39569127D01*
X44768281Y-39582895D01*
X44687111Y-39616517D01*
X44659162Y-39624996D01*
X44607679Y-39635237D01*
X44572991Y-39642137D01*
X44543925Y-39645000D01*
X44456075Y-39645000D01*
X44427006Y-39642137D01*
X44384501Y-39633682D01*
X44340835Y-39624996D01*
X44312886Y-39616517D01*
X44231721Y-39582898D01*
X44205959Y-39569128D01*
X44132908Y-39520316D01*
X44110330Y-39501787D01*
X44048207Y-39439664D01*
X44029678Y-39417086D01*
X43980870Y-39344041D01*
X43980869Y-39344040D01*
X43980869Y-39344039D01*
X43967100Y-39318279D01*
X43933481Y-39237114D01*
X43925002Y-39209162D01*
X43907863Y-39122993D01*
X43905000Y-39093926D01*
X43905000Y-37952955D01*
X43904997Y-37952466D01*
X43904985Y-37949921D01*
X43904955Y-37946921D01*
X43892908Y-37864980D01*
X43871450Y-37790899D01*
X43841783Y-37723168D01*
X43839455Y-37717852D01*
X43839450Y-37717843D01*
X43794477Y-37643447D01*
X43779736Y-37610693D01*
X43761747Y-37552965D01*
X43755000Y-37508637D01*
X43755000Y-35491359D01*
X43761745Y-35447037D01*
X43779738Y-35389296D01*
X43794476Y-35356552D01*
X43822244Y-35310618D01*
X43844392Y-35282346D01*
X43882346Y-35244392D01*
X43910614Y-35222246D01*
X43956553Y-35194474D01*
X43989295Y-35179738D01*
X44047033Y-35161745D01*
X44091359Y-35155000D01*
X44908639Y-35155000D01*
X44952963Y-35161745D01*
G37*
%TD.AperFunction*%
%TA.AperFunction,Conductor*%
G36*
X50452963Y-35161745D02*
G01*
X50510698Y-35179736D01*
X50543442Y-35194474D01*
X50589380Y-35222244D01*
X50617654Y-35244395D01*
X50655602Y-35282343D01*
X50677754Y-35310618D01*
X50705520Y-35356548D01*
X50720262Y-35389303D01*
X50738253Y-35447036D01*
X50745000Y-35491365D01*
X50745000Y-37508635D01*
X50738259Y-37552941D01*
X50737699Y-37554741D01*
X50737697Y-37554748D01*
X50720265Y-37610689D01*
X50705524Y-37643441D01*
X50660483Y-37717948D01*
X50658964Y-37720492D01*
X50657386Y-37723166D01*
X50625370Y-37799411D01*
X50625369Y-37799413D01*
X50605410Y-37873900D01*
X50605406Y-37873920D01*
X50595000Y-37952968D01*
X50595000Y-39093924D01*
X50592137Y-39122995D01*
X50574996Y-39209162D01*
X50566517Y-39237111D01*
X50532895Y-39318281D01*
X50519127Y-39344040D01*
X50470320Y-39417086D01*
X50451789Y-39439666D01*
X50389666Y-39501789D01*
X50367086Y-39520320D01*
X50294040Y-39569127D01*
X50268281Y-39582895D01*
X50187111Y-39616517D01*
X50159162Y-39624996D01*
X50107679Y-39635237D01*
X50072991Y-39642137D01*
X50043925Y-39645000D01*
X49956075Y-39645000D01*
X49927006Y-39642137D01*
X49884501Y-39633682D01*
X49840835Y-39624996D01*
X49812886Y-39616517D01*
X49731721Y-39582898D01*
X49705959Y-39569128D01*
X49632908Y-39520316D01*
X49610330Y-39501787D01*
X49548207Y-39439664D01*
X49529678Y-39417086D01*
X49480870Y-39344041D01*
X49480869Y-39344040D01*
X49480869Y-39344039D01*
X49467100Y-39318279D01*
X49433481Y-39237114D01*
X49425002Y-39209162D01*
X49407863Y-39122993D01*
X49405000Y-39093926D01*
X49405000Y-37952955D01*
X49404997Y-37952466D01*
X49404985Y-37949921D01*
X49404955Y-37946921D01*
X49392908Y-37864980D01*
X49371450Y-37790899D01*
X49341783Y-37723168D01*
X49339455Y-37717852D01*
X49339450Y-37717843D01*
X49294477Y-37643447D01*
X49279736Y-37610693D01*
X49261747Y-37552965D01*
X49255000Y-37508637D01*
X49255000Y-35491359D01*
X49261745Y-35447037D01*
X49279738Y-35389296D01*
X49294476Y-35356552D01*
X49322244Y-35310618D01*
X49344392Y-35282346D01*
X49382346Y-35244392D01*
X49410614Y-35222246D01*
X49456553Y-35194474D01*
X49489295Y-35179738D01*
X49547033Y-35161745D01*
X49591359Y-35155000D01*
X50408639Y-35155000D01*
X50452963Y-35161745D01*
G37*
%TD.AperFunction*%
%TD*%
%TA.AperFunction,Conductor*%
%TO.N,/SW*%
G36*
X99835986Y-30519962D02*
G01*
X99890524Y-30574500D01*
X99910486Y-30649000D01*
X99910486Y-41590500D01*
X99890524Y-41665000D01*
X99835986Y-41719538D01*
X99761486Y-41739500D01*
X97897648Y-41739500D01*
X97729163Y-41766185D01*
X97729160Y-41766185D01*
X97695462Y-41771523D01*
X97500782Y-41834779D01*
X97500777Y-41834781D01*
X97318384Y-41927715D01*
X97152792Y-42048023D01*
X97152785Y-42048029D01*
X97008029Y-42192785D01*
X97008023Y-42192792D01*
X96887715Y-42358384D01*
X96794781Y-42540775D01*
X96731522Y-42735469D01*
X96717013Y-42827073D01*
X96699500Y-42937648D01*
X96699500Y-42937652D01*
X96699500Y-43142353D01*
X96725187Y-43304531D01*
X96725187Y-43304533D01*
X96725188Y-43304533D01*
X96731523Y-43344536D01*
X96731525Y-43344544D01*
X96794778Y-43539212D01*
X96794782Y-43539224D01*
X96884480Y-43715266D01*
X96887715Y-43721614D01*
X97008023Y-43887206D01*
X97008027Y-43887210D01*
X97008028Y-43887212D01*
X97008035Y-43887220D01*
X97152779Y-44031964D01*
X97152785Y-44031969D01*
X97152792Y-44031975D01*
X97208400Y-44072376D01*
X97318387Y-44152285D01*
X97318390Y-44152287D01*
X97500781Y-44245220D01*
X97695466Y-44308477D01*
X97897648Y-44340500D01*
X97897653Y-44340500D01*
X99761486Y-44340500D01*
X99835986Y-44360462D01*
X99890524Y-44415000D01*
X99910486Y-44489500D01*
X99910486Y-56851000D01*
X99890524Y-56925500D01*
X99835986Y-56980038D01*
X99761486Y-57000000D01*
X92571990Y-57000000D01*
X92533426Y-56994923D01*
X92506503Y-56987709D01*
X92454360Y-56961995D01*
X92451175Y-56959551D01*
X92448310Y-56957213D01*
X92445413Y-56955039D01*
X92442429Y-56952839D01*
X92424165Y-56938824D01*
X92407395Y-56929728D01*
X92331816Y-56879228D01*
X92331817Y-56879228D01*
X92331815Y-56879227D01*
X92331809Y-56879224D01*
X92331803Y-56879221D01*
X92331800Y-56879220D01*
X92204329Y-56826420D01*
X92204313Y-56826416D01*
X92068993Y-56799500D01*
X91931007Y-56799500D01*
X91795685Y-56826416D01*
X91795669Y-56826420D01*
X91668198Y-56879220D01*
X91668182Y-56879228D01*
X91555321Y-56954640D01*
X91547045Y-56959787D01*
X91545753Y-56960533D01*
X91511973Y-56980036D01*
X91437475Y-57000000D01*
X85954500Y-57000000D01*
X85880000Y-56980038D01*
X85825462Y-56925500D01*
X85805500Y-56851000D01*
X85805500Y-53454500D01*
X85825462Y-53380000D01*
X85880000Y-53325462D01*
X85954500Y-53305500D01*
X89851000Y-53305500D01*
X89867906Y-53303274D01*
X89930055Y-53295093D01*
X89930059Y-53295092D01*
X89930068Y-53295091D01*
X90004568Y-53275129D01*
X90004573Y-53275126D01*
X90004587Y-53275123D01*
X90025726Y-53267673D01*
X90048898Y-53259508D01*
X90141521Y-53196059D01*
X90196059Y-53141521D01*
X90226639Y-53105828D01*
X90275129Y-53004568D01*
X90295091Y-52930068D01*
X90305500Y-52851000D01*
X90305500Y-50149000D01*
X90295091Y-50069932D01*
X90275129Y-49995432D01*
X90275128Y-49995430D01*
X90275123Y-49995412D01*
X90259509Y-49951106D01*
X90259508Y-49951102D01*
X90196059Y-49858479D01*
X90141521Y-49803941D01*
X90105828Y-49773361D01*
X90037185Y-49740490D01*
X90004569Y-49724871D01*
X89930075Y-49704910D01*
X89930055Y-49704906D01*
X89851007Y-49694500D01*
X89851000Y-49694500D01*
X77649000Y-49694500D01*
X77648992Y-49694500D01*
X77569944Y-49704906D01*
X77569924Y-49704910D01*
X77495432Y-49724870D01*
X77495412Y-49724876D01*
X77451106Y-49740490D01*
X77451099Y-49740493D01*
X77358476Y-49803943D01*
X77303942Y-49858477D01*
X77273361Y-49894172D01*
X77224871Y-49995430D01*
X77204910Y-50069924D01*
X77204906Y-50069944D01*
X77194500Y-50148992D01*
X77194500Y-56351007D01*
X77204906Y-56430055D01*
X77204910Y-56430075D01*
X77224870Y-56504567D01*
X77224876Y-56504587D01*
X77240490Y-56548893D01*
X77240492Y-56548898D01*
X77303941Y-56641521D01*
X77358479Y-56696059D01*
X77394172Y-56726639D01*
X77394173Y-56726639D01*
X77401588Y-56732992D01*
X77400603Y-56734141D01*
X77444961Y-56783555D01*
X77460883Y-56859022D01*
X77436939Y-56932339D01*
X77379544Y-56983862D01*
X77312099Y-57000000D01*
X61668616Y-57000000D01*
X61630049Y-56994922D01*
X61620127Y-56992263D01*
X61614576Y-56990776D01*
X61547783Y-56952209D01*
X61509221Y-56885414D01*
X61505076Y-56869943D01*
X61500000Y-56831383D01*
X61500000Y-45015135D01*
X78199500Y-45015135D01*
X78199500Y-45015136D01*
X78199500Y-45015140D01*
X78199500Y-45018194D01*
X78199500Y-46904863D01*
X78202413Y-46929987D01*
X78202417Y-46929999D01*
X78247791Y-47032761D01*
X78247793Y-47032764D01*
X78247794Y-47032765D01*
X78327235Y-47112206D01*
X78430009Y-47157585D01*
X78455135Y-47160500D01*
X80344864Y-47160499D01*
X80344866Y-47160499D01*
X80344868Y-47160499D01*
X80353963Y-47159443D01*
X80357427Y-47159042D01*
X80369991Y-47157585D01*
X80472765Y-47112206D01*
X80552206Y-47032765D01*
X80597585Y-46929991D01*
X80600500Y-46904865D01*
X80600499Y-45015136D01*
X80600499Y-45015134D01*
X86699500Y-45015134D01*
X86699500Y-46904863D01*
X86702413Y-46929987D01*
X86702417Y-46929999D01*
X86747791Y-47032761D01*
X86747793Y-47032764D01*
X86747794Y-47032765D01*
X86827235Y-47112206D01*
X86930009Y-47157585D01*
X86955135Y-47160500D01*
X88844864Y-47160499D01*
X88844866Y-47160499D01*
X88844868Y-47160499D01*
X88853963Y-47159443D01*
X88857427Y-47159042D01*
X88869991Y-47157585D01*
X88972765Y-47112206D01*
X89052206Y-47032765D01*
X89097585Y-46929991D01*
X89100500Y-46904865D01*
X89100499Y-45015136D01*
X89097585Y-44990009D01*
X89052206Y-44887235D01*
X88972765Y-44807794D01*
X88972764Y-44807793D01*
X88972761Y-44807791D01*
X88870001Y-44762418D01*
X88869992Y-44762415D01*
X88869978Y-44762412D01*
X88869508Y-44762359D01*
X88869175Y-44762320D01*
X88844865Y-44759500D01*
X88844860Y-44759500D01*
X86955135Y-44759500D01*
X86955133Y-44759500D01*
X86949912Y-44760105D01*
X86930011Y-44762413D01*
X86929999Y-44762417D01*
X86827237Y-44807791D01*
X86747791Y-44887237D01*
X86702418Y-44989996D01*
X86702415Y-44990007D01*
X86701641Y-44994777D01*
X86701422Y-44998568D01*
X86699500Y-45015134D01*
X80600499Y-45015134D01*
X80597585Y-44990009D01*
X80552206Y-44887235D01*
X80472765Y-44807794D01*
X80472764Y-44807793D01*
X80472761Y-44807791D01*
X80370001Y-44762418D01*
X80369992Y-44762415D01*
X80369978Y-44762412D01*
X80369508Y-44762359D01*
X80369175Y-44762320D01*
X80344865Y-44759500D01*
X80344860Y-44759500D01*
X78455135Y-44759500D01*
X78455133Y-44759500D01*
X78449912Y-44760105D01*
X78430011Y-44762413D01*
X78429999Y-44762417D01*
X78327237Y-44807791D01*
X78247791Y-44887237D01*
X78202418Y-44989996D01*
X78202415Y-44990007D01*
X78201641Y-44994777D01*
X78201598Y-44995522D01*
X78201690Y-44996081D01*
X78201570Y-44997291D01*
X78199500Y-45015135D01*
X61500000Y-45015135D01*
X61500000Y-30668616D01*
X61505076Y-30630056D01*
X61509221Y-30614585D01*
X61547783Y-30547789D01*
X61614575Y-30509223D01*
X61630056Y-30505076D01*
X61668616Y-30500000D01*
X99761486Y-30500000D01*
X99835986Y-30519962D01*
G37*
%TD.AperFunction*%
%TD*%
%TA.AperFunction,Conductor*%
%TO.N,/SRC*%
G36*
X89925500Y-50019962D02*
G01*
X89980038Y-50074500D01*
X90000000Y-50149000D01*
X90000000Y-52851000D01*
X89980038Y-52925500D01*
X89925500Y-52980038D01*
X89851000Y-53000000D01*
X85500000Y-53000000D01*
X85500000Y-61351000D01*
X85480038Y-61425500D01*
X85425500Y-61480038D01*
X85351000Y-61500000D01*
X82149000Y-61500000D01*
X82074500Y-61480038D01*
X82019962Y-61425500D01*
X82000000Y-61351000D01*
X82000000Y-60080590D01*
X82019962Y-60006090D01*
X82064797Y-59957664D01*
X82072762Y-59952207D01*
X82072765Y-59952206D01*
X82152206Y-59872765D01*
X82197585Y-59769991D01*
X82200500Y-59744865D01*
X82200499Y-59255136D01*
X82197585Y-59230009D01*
X82152206Y-59127235D01*
X82072765Y-59047794D01*
X82072762Y-59047791D01*
X82064793Y-59042332D01*
X82014613Y-58983760D01*
X82000000Y-58919409D01*
X82000000Y-56500000D01*
X77649000Y-56500000D01*
X77574500Y-56480038D01*
X77519962Y-56425500D01*
X77500000Y-56351000D01*
X77500000Y-50149000D01*
X77519962Y-50074500D01*
X77574500Y-50019962D01*
X77649000Y-50000000D01*
X89851000Y-50000000D01*
X89925500Y-50019962D01*
G37*
%TD.AperFunction*%
%TD*%
M02*
