%TF.GenerationSoftware,KiCad,Pcbnew,10.0.5*%
%TF.CreationDate,2026-07-26T12:52:10-07:00*%
%TF.ProjectId,1v2boost,31763262-6f6f-4737-942e-6b696361645f,rev?*%
%TF.SameCoordinates,Original*%
%TF.FileFunction,Legend,Bot*%
%TF.FilePolarity,Positive*%
%FSLAX46Y46*%
G04 Gerber Fmt 4.6, Leading zero omitted, Abs format (unit mm)*
G04 Created by KiCad (PCBNEW 10.0.5) date 2026-07-26 12:52:10*
%MOMM*%
%LPD*%
G01*
G04 APERTURE LIST*
%ADD10C,0.285700*%
%ADD11C,0.214300*%
%ADD12C,0.150000*%
G04 APERTURE END LIST*
D10*
X130288230Y-55740381D02*
X131431087Y-55740381D01*
X130859659Y-55740381D02*
X130859659Y-53740381D01*
X130859659Y-53740381D02*
X131050135Y-54026095D01*
X131050135Y-54026095D02*
X131240611Y-54216571D01*
X131240611Y-54216571D02*
X131431087Y-54311809D01*
X129526325Y-53930857D02*
X129431087Y-53835619D01*
X129431087Y-53835619D02*
X129240611Y-53740381D01*
X129240611Y-53740381D02*
X128764420Y-53740381D01*
X128764420Y-53740381D02*
X128573944Y-53835619D01*
X128573944Y-53835619D02*
X128478706Y-53930857D01*
X128478706Y-53930857D02*
X128383468Y-54121333D01*
X128383468Y-54121333D02*
X128383468Y-54311809D01*
X128383468Y-54311809D02*
X128478706Y-54597523D01*
X128478706Y-54597523D02*
X129621563Y-55740381D01*
X129621563Y-55740381D02*
X128383468Y-55740381D01*
X127812039Y-53740381D02*
X127145373Y-55740381D01*
X127145373Y-55740381D02*
X126478706Y-53740381D01*
X123907277Y-53740381D02*
X123526324Y-53740381D01*
X123526324Y-53740381D02*
X123335848Y-53835619D01*
X123335848Y-53835619D02*
X123145372Y-54026095D01*
X123145372Y-54026095D02*
X123050134Y-54407047D01*
X123050134Y-54407047D02*
X123050134Y-55073714D01*
X123050134Y-55073714D02*
X123145372Y-55454666D01*
X123145372Y-55454666D02*
X123335848Y-55645143D01*
X123335848Y-55645143D02*
X123526324Y-55740381D01*
X123526324Y-55740381D02*
X123907277Y-55740381D01*
X123907277Y-55740381D02*
X124097753Y-55645143D01*
X124097753Y-55645143D02*
X124288229Y-55454666D01*
X124288229Y-55454666D02*
X124383467Y-55073714D01*
X124383467Y-55073714D02*
X124383467Y-54407047D01*
X124383467Y-54407047D02*
X124288229Y-54026095D01*
X124288229Y-54026095D02*
X124097753Y-53835619D01*
X124097753Y-53835619D02*
X123907277Y-53740381D01*
X122192991Y-53740381D02*
X122192991Y-55359428D01*
X122192991Y-55359428D02*
X122097753Y-55549904D01*
X122097753Y-55549904D02*
X122002515Y-55645143D01*
X122002515Y-55645143D02*
X121812039Y-55740381D01*
X121812039Y-55740381D02*
X121431086Y-55740381D01*
X121431086Y-55740381D02*
X121240610Y-55645143D01*
X121240610Y-55645143D02*
X121145372Y-55549904D01*
X121145372Y-55549904D02*
X121050134Y-55359428D01*
X121050134Y-55359428D02*
X121050134Y-53740381D01*
X120383467Y-53740381D02*
X119240610Y-53740381D01*
X119812039Y-55740381D02*
X119812039Y-53740381D01*
D11*
X133430442Y-77390368D02*
X133144728Y-77390368D01*
X133144728Y-77390368D02*
X133001871Y-77318940D01*
X133001871Y-77318940D02*
X132930442Y-77247511D01*
X132930442Y-77247511D02*
X132787585Y-77033225D01*
X132787585Y-77033225D02*
X132716156Y-76747511D01*
X132716156Y-76747511D02*
X132716156Y-76176082D01*
X132716156Y-76176082D02*
X132787585Y-76033225D01*
X132787585Y-76033225D02*
X132859014Y-75961797D01*
X132859014Y-75961797D02*
X133001871Y-75890368D01*
X133001871Y-75890368D02*
X133287585Y-75890368D01*
X133287585Y-75890368D02*
X133430442Y-75961797D01*
X133430442Y-75961797D02*
X133501871Y-76033225D01*
X133501871Y-76033225D02*
X133573299Y-76176082D01*
X133573299Y-76176082D02*
X133573299Y-76533225D01*
X133573299Y-76533225D02*
X133501871Y-76676082D01*
X133501871Y-76676082D02*
X133430442Y-76747511D01*
X133430442Y-76747511D02*
X133287585Y-76818940D01*
X133287585Y-76818940D02*
X133001871Y-76818940D01*
X133001871Y-76818940D02*
X132859014Y-76747511D01*
X132859014Y-76747511D02*
X132787585Y-76676082D01*
X132787585Y-76676082D02*
X132716156Y-76533225D01*
X132073300Y-76818940D02*
X130930443Y-76818940D01*
X129430442Y-77390368D02*
X130287585Y-77390368D01*
X129859014Y-77390368D02*
X129859014Y-75890368D01*
X129859014Y-75890368D02*
X130001871Y-76104654D01*
X130001871Y-76104654D02*
X130144728Y-76247511D01*
X130144728Y-76247511D02*
X130287585Y-76318940D01*
X128144729Y-75890368D02*
X128430443Y-75890368D01*
X128430443Y-75890368D02*
X128573300Y-75961797D01*
X128573300Y-75961797D02*
X128644729Y-76033225D01*
X128644729Y-76033225D02*
X128787586Y-76247511D01*
X128787586Y-76247511D02*
X128859014Y-76533225D01*
X128859014Y-76533225D02*
X128859014Y-77104654D01*
X128859014Y-77104654D02*
X128787586Y-77247511D01*
X128787586Y-77247511D02*
X128716157Y-77318940D01*
X128716157Y-77318940D02*
X128573300Y-77390368D01*
X128573300Y-77390368D02*
X128287586Y-77390368D01*
X128287586Y-77390368D02*
X128144729Y-77318940D01*
X128144729Y-77318940D02*
X128073300Y-77247511D01*
X128073300Y-77247511D02*
X128001871Y-77104654D01*
X128001871Y-77104654D02*
X128001871Y-76747511D01*
X128001871Y-76747511D02*
X128073300Y-76604654D01*
X128073300Y-76604654D02*
X128144729Y-76533225D01*
X128144729Y-76533225D02*
X128287586Y-76461797D01*
X128287586Y-76461797D02*
X128573300Y-76461797D01*
X128573300Y-76461797D02*
X128716157Y-76533225D01*
X128716157Y-76533225D02*
X128787586Y-76604654D01*
X128787586Y-76604654D02*
X128859014Y-76747511D01*
X127573300Y-75890368D02*
X127073300Y-77390368D01*
X127073300Y-77390368D02*
X126573300Y-75890368D01*
X124930444Y-77390368D02*
X124930444Y-76390368D01*
X124930444Y-75890368D02*
X125001872Y-75961797D01*
X125001872Y-75961797D02*
X124930444Y-76033225D01*
X124930444Y-76033225D02*
X124859015Y-75961797D01*
X124859015Y-75961797D02*
X124930444Y-75890368D01*
X124930444Y-75890368D02*
X124930444Y-76033225D01*
X124216158Y-76390368D02*
X124216158Y-77390368D01*
X124216158Y-76533225D02*
X124144729Y-76461797D01*
X124144729Y-76461797D02*
X124001872Y-76390368D01*
X124001872Y-76390368D02*
X123787586Y-76390368D01*
X123787586Y-76390368D02*
X123644729Y-76461797D01*
X123644729Y-76461797D02*
X123573301Y-76604654D01*
X123573301Y-76604654D02*
X123573301Y-77390368D01*
X122859015Y-76390368D02*
X122859015Y-77890368D01*
X122859015Y-76461797D02*
X122716158Y-76390368D01*
X122716158Y-76390368D02*
X122430443Y-76390368D01*
X122430443Y-76390368D02*
X122287586Y-76461797D01*
X122287586Y-76461797D02*
X122216158Y-76533225D01*
X122216158Y-76533225D02*
X122144729Y-76676082D01*
X122144729Y-76676082D02*
X122144729Y-77104654D01*
X122144729Y-77104654D02*
X122216158Y-77247511D01*
X122216158Y-77247511D02*
X122287586Y-77318940D01*
X122287586Y-77318940D02*
X122430443Y-77390368D01*
X122430443Y-77390368D02*
X122716158Y-77390368D01*
X122716158Y-77390368D02*
X122859015Y-77318940D01*
X120859015Y-76390368D02*
X120859015Y-77390368D01*
X121501872Y-76390368D02*
X121501872Y-77176082D01*
X121501872Y-77176082D02*
X121430443Y-77318940D01*
X121430443Y-77318940D02*
X121287586Y-77390368D01*
X121287586Y-77390368D02*
X121073300Y-77390368D01*
X121073300Y-77390368D02*
X120930443Y-77318940D01*
X120930443Y-77318940D02*
X120859015Y-77247511D01*
X120359014Y-76390368D02*
X119787586Y-76390368D01*
X120144729Y-75890368D02*
X120144729Y-77176082D01*
X120144729Y-77176082D02*
X120073300Y-77318940D01*
X120073300Y-77318940D02*
X119930443Y-77390368D01*
X119930443Y-77390368D02*
X119787586Y-77390368D01*
X133501871Y-79805284D02*
X133501871Y-78305284D01*
X133501871Y-78876713D02*
X133359014Y-78805284D01*
X133359014Y-78805284D02*
X133073299Y-78805284D01*
X133073299Y-78805284D02*
X132930442Y-78876713D01*
X132930442Y-78876713D02*
X132859014Y-78948141D01*
X132859014Y-78948141D02*
X132787585Y-79090998D01*
X132787585Y-79090998D02*
X132787585Y-79519570D01*
X132787585Y-79519570D02*
X132859014Y-79662427D01*
X132859014Y-79662427D02*
X132930442Y-79733856D01*
X132930442Y-79733856D02*
X133073299Y-79805284D01*
X133073299Y-79805284D02*
X133359014Y-79805284D01*
X133359014Y-79805284D02*
X133501871Y-79733856D01*
X131930442Y-79805284D02*
X132073299Y-79733856D01*
X132073299Y-79733856D02*
X132144728Y-79662427D01*
X132144728Y-79662427D02*
X132216156Y-79519570D01*
X132216156Y-79519570D02*
X132216156Y-79090998D01*
X132216156Y-79090998D02*
X132144728Y-78948141D01*
X132144728Y-78948141D02*
X132073299Y-78876713D01*
X132073299Y-78876713D02*
X131930442Y-78805284D01*
X131930442Y-78805284D02*
X131716156Y-78805284D01*
X131716156Y-78805284D02*
X131573299Y-78876713D01*
X131573299Y-78876713D02*
X131501871Y-78948141D01*
X131501871Y-78948141D02*
X131430442Y-79090998D01*
X131430442Y-79090998D02*
X131430442Y-79519570D01*
X131430442Y-79519570D02*
X131501871Y-79662427D01*
X131501871Y-79662427D02*
X131573299Y-79733856D01*
X131573299Y-79733856D02*
X131716156Y-79805284D01*
X131716156Y-79805284D02*
X131930442Y-79805284D01*
X130573299Y-79805284D02*
X130716156Y-79733856D01*
X130716156Y-79733856D02*
X130787585Y-79662427D01*
X130787585Y-79662427D02*
X130859013Y-79519570D01*
X130859013Y-79519570D02*
X130859013Y-79090998D01*
X130859013Y-79090998D02*
X130787585Y-78948141D01*
X130787585Y-78948141D02*
X130716156Y-78876713D01*
X130716156Y-78876713D02*
X130573299Y-78805284D01*
X130573299Y-78805284D02*
X130359013Y-78805284D01*
X130359013Y-78805284D02*
X130216156Y-78876713D01*
X130216156Y-78876713D02*
X130144728Y-78948141D01*
X130144728Y-78948141D02*
X130073299Y-79090998D01*
X130073299Y-79090998D02*
X130073299Y-79519570D01*
X130073299Y-79519570D02*
X130144728Y-79662427D01*
X130144728Y-79662427D02*
X130216156Y-79733856D01*
X130216156Y-79733856D02*
X130359013Y-79805284D01*
X130359013Y-79805284D02*
X130573299Y-79805284D01*
X129501870Y-79733856D02*
X129359013Y-79805284D01*
X129359013Y-79805284D02*
X129073299Y-79805284D01*
X129073299Y-79805284D02*
X128930442Y-79733856D01*
X128930442Y-79733856D02*
X128859013Y-79590998D01*
X128859013Y-79590998D02*
X128859013Y-79519570D01*
X128859013Y-79519570D02*
X128930442Y-79376713D01*
X128930442Y-79376713D02*
X129073299Y-79305284D01*
X129073299Y-79305284D02*
X129287585Y-79305284D01*
X129287585Y-79305284D02*
X129430442Y-79233856D01*
X129430442Y-79233856D02*
X129501870Y-79090998D01*
X129501870Y-79090998D02*
X129501870Y-79019570D01*
X129501870Y-79019570D02*
X129430442Y-78876713D01*
X129430442Y-78876713D02*
X129287585Y-78805284D01*
X129287585Y-78805284D02*
X129073299Y-78805284D01*
X129073299Y-78805284D02*
X128930442Y-78876713D01*
X128430441Y-78805284D02*
X127859013Y-78805284D01*
X128216156Y-78305284D02*
X128216156Y-79590998D01*
X128216156Y-79590998D02*
X128144727Y-79733856D01*
X128144727Y-79733856D02*
X128001870Y-79805284D01*
X128001870Y-79805284D02*
X127859013Y-79805284D01*
X126216156Y-78805284D02*
X126216156Y-80305284D01*
X126216156Y-78876713D02*
X126073299Y-78805284D01*
X126073299Y-78805284D02*
X125787584Y-78805284D01*
X125787584Y-78805284D02*
X125644727Y-78876713D01*
X125644727Y-78876713D02*
X125573299Y-78948141D01*
X125573299Y-78948141D02*
X125501870Y-79090998D01*
X125501870Y-79090998D02*
X125501870Y-79519570D01*
X125501870Y-79519570D02*
X125573299Y-79662427D01*
X125573299Y-79662427D02*
X125644727Y-79733856D01*
X125644727Y-79733856D02*
X125787584Y-79805284D01*
X125787584Y-79805284D02*
X126073299Y-79805284D01*
X126073299Y-79805284D02*
X126216156Y-79733856D01*
X124644727Y-79805284D02*
X124787584Y-79733856D01*
X124787584Y-79733856D02*
X124859013Y-79662427D01*
X124859013Y-79662427D02*
X124930441Y-79519570D01*
X124930441Y-79519570D02*
X124930441Y-79090998D01*
X124930441Y-79090998D02*
X124859013Y-78948141D01*
X124859013Y-78948141D02*
X124787584Y-78876713D01*
X124787584Y-78876713D02*
X124644727Y-78805284D01*
X124644727Y-78805284D02*
X124430441Y-78805284D01*
X124430441Y-78805284D02*
X124287584Y-78876713D01*
X124287584Y-78876713D02*
X124216156Y-78948141D01*
X124216156Y-78948141D02*
X124144727Y-79090998D01*
X124144727Y-79090998D02*
X124144727Y-79519570D01*
X124144727Y-79519570D02*
X124216156Y-79662427D01*
X124216156Y-79662427D02*
X124287584Y-79733856D01*
X124287584Y-79733856D02*
X124430441Y-79805284D01*
X124430441Y-79805284D02*
X124644727Y-79805284D01*
X123644727Y-78805284D02*
X123359013Y-79805284D01*
X123359013Y-79805284D02*
X123073298Y-79090998D01*
X123073298Y-79090998D02*
X122787584Y-79805284D01*
X122787584Y-79805284D02*
X122501870Y-78805284D01*
X121359012Y-79733856D02*
X121501869Y-79805284D01*
X121501869Y-79805284D02*
X121787584Y-79805284D01*
X121787584Y-79805284D02*
X121930441Y-79733856D01*
X121930441Y-79733856D02*
X122001869Y-79590998D01*
X122001869Y-79590998D02*
X122001869Y-79019570D01*
X122001869Y-79019570D02*
X121930441Y-78876713D01*
X121930441Y-78876713D02*
X121787584Y-78805284D01*
X121787584Y-78805284D02*
X121501869Y-78805284D01*
X121501869Y-78805284D02*
X121359012Y-78876713D01*
X121359012Y-78876713D02*
X121287584Y-79019570D01*
X121287584Y-79019570D02*
X121287584Y-79162427D01*
X121287584Y-79162427D02*
X122001869Y-79305284D01*
X120644727Y-79805284D02*
X120644727Y-78805284D01*
X120644727Y-79090998D02*
X120573298Y-78948141D01*
X120573298Y-78948141D02*
X120501870Y-78876713D01*
X120501870Y-78876713D02*
X120359012Y-78805284D01*
X120359012Y-78805284D02*
X120216155Y-78805284D01*
X118573299Y-79805284D02*
X118573299Y-78805284D01*
X118573299Y-79090998D02*
X118501870Y-78948141D01*
X118501870Y-78948141D02*
X118430442Y-78876713D01*
X118430442Y-78876713D02*
X118287584Y-78805284D01*
X118287584Y-78805284D02*
X118144727Y-78805284D01*
X117001871Y-79805284D02*
X117001871Y-79019570D01*
X117001871Y-79019570D02*
X117073299Y-78876713D01*
X117073299Y-78876713D02*
X117216156Y-78805284D01*
X117216156Y-78805284D02*
X117501871Y-78805284D01*
X117501871Y-78805284D02*
X117644728Y-78876713D01*
X117001871Y-79733856D02*
X117144728Y-79805284D01*
X117144728Y-79805284D02*
X117501871Y-79805284D01*
X117501871Y-79805284D02*
X117644728Y-79733856D01*
X117644728Y-79733856D02*
X117716156Y-79590998D01*
X117716156Y-79590998D02*
X117716156Y-79448141D01*
X117716156Y-79448141D02*
X117644728Y-79305284D01*
X117644728Y-79305284D02*
X117501871Y-79233856D01*
X117501871Y-79233856D02*
X117144728Y-79233856D01*
X117144728Y-79233856D02*
X117001871Y-79162427D01*
X116287585Y-79805284D02*
X116287585Y-78805284D01*
X116287585Y-78305284D02*
X116359013Y-78376713D01*
X116359013Y-78376713D02*
X116287585Y-78448141D01*
X116287585Y-78448141D02*
X116216156Y-78376713D01*
X116216156Y-78376713D02*
X116287585Y-78305284D01*
X116287585Y-78305284D02*
X116287585Y-78448141D01*
X115359013Y-79805284D02*
X115501870Y-79733856D01*
X115501870Y-79733856D02*
X115573299Y-79590998D01*
X115573299Y-79590998D02*
X115573299Y-78305284D01*
D10*
X36788230Y-48240381D02*
X37931087Y-48240381D01*
X37359659Y-48240381D02*
X37359659Y-46240381D01*
X37359659Y-46240381D02*
X37550135Y-46526095D01*
X37550135Y-46526095D02*
X37740611Y-46716571D01*
X37740611Y-46716571D02*
X37931087Y-46811809D01*
X35931087Y-48049904D02*
X35835849Y-48145143D01*
X35835849Y-48145143D02*
X35931087Y-48240381D01*
X35931087Y-48240381D02*
X36026325Y-48145143D01*
X36026325Y-48145143D02*
X35931087Y-48049904D01*
X35931087Y-48049904D02*
X35931087Y-48240381D01*
X35073944Y-46430857D02*
X34978706Y-46335619D01*
X34978706Y-46335619D02*
X34788230Y-46240381D01*
X34788230Y-46240381D02*
X34312039Y-46240381D01*
X34312039Y-46240381D02*
X34121563Y-46335619D01*
X34121563Y-46335619D02*
X34026325Y-46430857D01*
X34026325Y-46430857D02*
X33931087Y-46621333D01*
X33931087Y-46621333D02*
X33931087Y-46811809D01*
X33931087Y-46811809D02*
X34026325Y-47097523D01*
X34026325Y-47097523D02*
X35169182Y-48240381D01*
X35169182Y-48240381D02*
X33931087Y-48240381D01*
X33359658Y-46240381D02*
X32692992Y-48240381D01*
X32692992Y-48240381D02*
X32026325Y-46240381D01*
X29835848Y-48240381D02*
X29835848Y-46240381D01*
X28883467Y-48240381D02*
X28883467Y-46240381D01*
X28883467Y-46240381D02*
X27740610Y-48240381D01*
X27740610Y-48240381D02*
X27740610Y-46240381D01*
D12*
X32071428Y-41114700D02*
X30928571Y-41114700D01*
X29071428Y-41114700D02*
X27928571Y-41114700D01*
X28499999Y-41686128D02*
X28499999Y-40543271D01*
X115071428Y-51614700D02*
X113928571Y-51614700D01*
X112071428Y-51614700D02*
X110928571Y-51614700D01*
X111499999Y-52186128D02*
X111499999Y-51043271D01*
X113071428Y-80614700D02*
X111928571Y-80614700D01*
X110071428Y-80614700D02*
X108928571Y-80614700D01*
X109499999Y-81186128D02*
X109499999Y-80043271D01*
D11*
X79573299Y-70876713D02*
X78859014Y-70876713D01*
X79716156Y-71305284D02*
X79216156Y-69805284D01*
X79216156Y-69805284D02*
X78716156Y-71305284D01*
X77430442Y-69876713D02*
X77573300Y-69805284D01*
X77573300Y-69805284D02*
X77787585Y-69805284D01*
X77787585Y-69805284D02*
X78001871Y-69876713D01*
X78001871Y-69876713D02*
X78144728Y-70019570D01*
X78144728Y-70019570D02*
X78216157Y-70162427D01*
X78216157Y-70162427D02*
X78287585Y-70448141D01*
X78287585Y-70448141D02*
X78287585Y-70662427D01*
X78287585Y-70662427D02*
X78216157Y-70948141D01*
X78216157Y-70948141D02*
X78144728Y-71090998D01*
X78144728Y-71090998D02*
X78001871Y-71233856D01*
X78001871Y-71233856D02*
X77787585Y-71305284D01*
X77787585Y-71305284D02*
X77644728Y-71305284D01*
X77644728Y-71305284D02*
X77430442Y-71233856D01*
X77430442Y-71233856D02*
X77359014Y-71162427D01*
X77359014Y-71162427D02*
X77359014Y-70662427D01*
X77359014Y-70662427D02*
X77644728Y-70662427D01*
X76716157Y-71305284D02*
X76716157Y-69805284D01*
X76716157Y-69805284D02*
X75859014Y-71305284D01*
X75859014Y-71305284D02*
X75859014Y-69805284D01*
X75144728Y-71305284D02*
X75144728Y-69805284D01*
X75144728Y-69805284D02*
X74787585Y-69805284D01*
X74787585Y-69805284D02*
X74573299Y-69876713D01*
X74573299Y-69876713D02*
X74430442Y-70019570D01*
X74430442Y-70019570D02*
X74359013Y-70162427D01*
X74359013Y-70162427D02*
X74287585Y-70448141D01*
X74287585Y-70448141D02*
X74287585Y-70662427D01*
X74287585Y-70662427D02*
X74359013Y-70948141D01*
X74359013Y-70948141D02*
X74430442Y-71090998D01*
X74430442Y-71090998D02*
X74573299Y-71233856D01*
X74573299Y-71233856D02*
X74787585Y-71305284D01*
X74787585Y-71305284D02*
X75144728Y-71305284D01*
X65573299Y-32233856D02*
X65359014Y-32305284D01*
X65359014Y-32305284D02*
X65001871Y-32305284D01*
X65001871Y-32305284D02*
X64859014Y-32233856D01*
X64859014Y-32233856D02*
X64787585Y-32162427D01*
X64787585Y-32162427D02*
X64716156Y-32019570D01*
X64716156Y-32019570D02*
X64716156Y-31876713D01*
X64716156Y-31876713D02*
X64787585Y-31733856D01*
X64787585Y-31733856D02*
X64859014Y-31662427D01*
X64859014Y-31662427D02*
X65001871Y-31590998D01*
X65001871Y-31590998D02*
X65287585Y-31519570D01*
X65287585Y-31519570D02*
X65430442Y-31448141D01*
X65430442Y-31448141D02*
X65501871Y-31376713D01*
X65501871Y-31376713D02*
X65573299Y-31233856D01*
X65573299Y-31233856D02*
X65573299Y-31090998D01*
X65573299Y-31090998D02*
X65501871Y-30948141D01*
X65501871Y-30948141D02*
X65430442Y-30876713D01*
X65430442Y-30876713D02*
X65287585Y-30805284D01*
X65287585Y-30805284D02*
X64930442Y-30805284D01*
X64930442Y-30805284D02*
X64716156Y-30876713D01*
X64216157Y-30805284D02*
X63859014Y-32305284D01*
X63859014Y-32305284D02*
X63573300Y-31233856D01*
X63573300Y-31233856D02*
X63287585Y-32305284D01*
X63287585Y-32305284D02*
X62930443Y-30805284D01*
X59501871Y-58805284D02*
X59501871Y-57305284D01*
X59501871Y-57305284D02*
X58930442Y-57305284D01*
X58930442Y-57305284D02*
X58787585Y-57376713D01*
X58787585Y-57376713D02*
X58716156Y-57448141D01*
X58716156Y-57448141D02*
X58644728Y-57590998D01*
X58644728Y-57590998D02*
X58644728Y-57805284D01*
X58644728Y-57805284D02*
X58716156Y-57948141D01*
X58716156Y-57948141D02*
X58787585Y-58019570D01*
X58787585Y-58019570D02*
X58930442Y-58090998D01*
X58930442Y-58090998D02*
X59501871Y-58090998D01*
X57216156Y-57376713D02*
X57359014Y-57305284D01*
X57359014Y-57305284D02*
X57573299Y-57305284D01*
X57573299Y-57305284D02*
X57787585Y-57376713D01*
X57787585Y-57376713D02*
X57930442Y-57519570D01*
X57930442Y-57519570D02*
X58001871Y-57662427D01*
X58001871Y-57662427D02*
X58073299Y-57948141D01*
X58073299Y-57948141D02*
X58073299Y-58162427D01*
X58073299Y-58162427D02*
X58001871Y-58448141D01*
X58001871Y-58448141D02*
X57930442Y-58590998D01*
X57930442Y-58590998D02*
X57787585Y-58733856D01*
X57787585Y-58733856D02*
X57573299Y-58805284D01*
X57573299Y-58805284D02*
X57430442Y-58805284D01*
X57430442Y-58805284D02*
X57216156Y-58733856D01*
X57216156Y-58733856D02*
X57144728Y-58662427D01*
X57144728Y-58662427D02*
X57144728Y-58162427D01*
X57144728Y-58162427D02*
X57430442Y-58162427D01*
X56501871Y-58805284D02*
X56501871Y-57305284D01*
X56501871Y-57305284D02*
X55644728Y-58805284D01*
X55644728Y-58805284D02*
X55644728Y-57305284D01*
X54930442Y-58805284D02*
X54930442Y-57305284D01*
X54930442Y-57305284D02*
X54573299Y-57305284D01*
X54573299Y-57305284D02*
X54359013Y-57376713D01*
X54359013Y-57376713D02*
X54216156Y-57519570D01*
X54216156Y-57519570D02*
X54144727Y-57662427D01*
X54144727Y-57662427D02*
X54073299Y-57948141D01*
X54073299Y-57948141D02*
X54073299Y-58162427D01*
X54073299Y-58162427D02*
X54144727Y-58448141D01*
X54144727Y-58448141D02*
X54216156Y-58590998D01*
X54216156Y-58590998D02*
X54359013Y-58733856D01*
X54359013Y-58733856D02*
X54573299Y-58805284D01*
X54573299Y-58805284D02*
X54930442Y-58805284D01*
M02*
