%TF.GenerationSoftware,KiCad,Pcbnew,10.0.5*%
%TF.CreationDate,2026-07-26T12:52:10-07:00*%
%TF.ProjectId,1v2boost,31763262-6f6f-4737-942e-6b696361645f,rev?*%
%TF.SameCoordinates,Original*%
%TF.FileFunction,Copper,L2,Bot*%
%TF.FilePolarity,Positive*%
%FSLAX46Y46*%
G04 Gerber Fmt 4.6, Leading zero omitted, Abs format (unit mm)*
G04 Created by KiCad (PCBNEW 10.0.5) date 2026-07-26 12:52:10*
%MOMM*%
%LPD*%
G01*
G04 APERTURE LIST*
%TA.AperFunction,ComponentPad*%
%ADD10R,1.700000X1.700000*%
%TD*%
%TA.AperFunction,ComponentPad*%
%ADD11C,1.700000*%
%TD*%
%TA.AperFunction,ComponentPad*%
%ADD12R,1.800000X1.800000*%
%TD*%
%TA.AperFunction,ComponentPad*%
%ADD13C,1.800000*%
%TD*%
%TA.AperFunction,ViaPad*%
%ADD14C,1.200000*%
%TD*%
%TA.AperFunction,ViaPad*%
%ADD15C,0.800000*%
%TD*%
%TA.AperFunction,Conductor*%
%ADD16C,0.500000*%
%TD*%
%TA.AperFunction,Conductor*%
%ADD17C,0.300000*%
%TD*%
G04 APERTURE END LIST*
D10*
%TO.P,J5,1,1_1*%
%TO.N,VOUT*%
X111442500Y-54500000D03*
D11*
%TO.P,J5,2,2_2*%
%TO.N,PGND*%
X113982500Y-54500000D03*
%TD*%
D10*
%TO.P,J4,1,1_1*%
%TO.N,VCELL*%
X28730000Y-43500000D03*
D11*
%TO.P,J4,2,2_2*%
%TO.N,PGND*%
X31270000Y-43500000D03*
%TD*%
D12*
%TO.P,Q1,1,G_1*%
%TO.N,/GATE*%
X87900000Y-45960000D03*
D13*
%TO.P,Q1,2,D_2*%
%TO.N,/SW*%
X87900000Y-48500000D03*
%TO.P,Q1,3,S_3*%
%TO.N,/SRC*%
X87900000Y-51040000D03*
%TD*%
D10*
%TO.P,J3,1,1_1*%
%TO.N,/V12AUX*%
X109730000Y-78000000D03*
D11*
%TO.P,J3,2,2_2*%
%TO.N,AGND*%
X112270000Y-78000000D03*
%TD*%
D12*
%TO.P,Q2,1,G_1*%
%TO.N,/GATE*%
X79400000Y-45960000D03*
D13*
%TO.P,Q2,2,D_2*%
%TO.N,/SW*%
X79400000Y-48500000D03*
%TO.P,Q2,3,S_3*%
%TO.N,/SRC*%
X79400000Y-51040000D03*
%TD*%
D12*
%TO.P,D1,1,A1_1*%
%TO.N,/SW*%
X98000000Y-40500000D03*
D13*
%TO.P,D1,2,K_2*%
%TO.N,VOUT*%
X98000000Y-43040000D03*
%TO.P,D1,3,A2_3*%
%TO.N,/SW*%
X98000000Y-45580000D03*
%TD*%
D14*
%TO.N,PGND*%
X76000000Y-62500000D03*
X75000000Y-61500000D03*
X75000000Y-60000000D03*
X49500000Y-64000000D03*
X47000000Y-66000000D03*
X82500000Y-63500000D03*
X94000000Y-66000000D03*
D15*
%TO.N,/EN*%
X83000000Y-77500000D03*
X82000000Y-80500000D03*
%TO.N,AGND*%
X106000000Y-76500000D03*
X98000000Y-70500000D03*
%TO.N,VOUT*%
X102000000Y-82000000D03*
X95000000Y-79950000D03*
%TO.N,AGND*%
X80000000Y-79000000D03*
X77000000Y-77000000D03*
X84500000Y-69500000D03*
X92500000Y-73000000D03*
%TO.N,V12*%
X87500000Y-72500000D03*
X87000000Y-79750000D03*
%TO.N,AGND*%
X93500000Y-80000000D03*
D14*
%TO.N,PGND*%
X92500000Y-62500000D03*
X91000000Y-64000000D03*
X88500000Y-65500000D03*
X86000000Y-64000000D03*
D15*
%TO.N,AGND*%
X81069975Y-73569975D03*
%TO.N,/GDRV*%
X97500000Y-67000000D03*
X90500000Y-69500000D03*
%TO.N,AGND*%
X79000000Y-69000000D03*
%TO.N,/GATE*%
X92000000Y-57500000D03*
D14*
%TO.N,PGND*%
X77500000Y-62500000D03*
X73500000Y-60000000D03*
X73500000Y-58500000D03*
X75000000Y-58500000D03*
X29500000Y-66750000D03*
X29500000Y-69250000D03*
X32000000Y-66750000D03*
X34500000Y-74250000D03*
X32000000Y-69250000D03*
X39500000Y-74250000D03*
X32000000Y-71750000D03*
X39500000Y-71750000D03*
X34500000Y-71750000D03*
X32000000Y-74250000D03*
X29500000Y-74250000D03*
X37000000Y-71750000D03*
X39500000Y-69250000D03*
X37000000Y-74250000D03*
X34500000Y-66750000D03*
X37000000Y-66750000D03*
X34500000Y-69250000D03*
X29500000Y-71750000D03*
X37000000Y-69250000D03*
X39500000Y-66750000D03*
X115000000Y-49050000D03*
X109000000Y-49050000D03*
X109000000Y-37050000D03*
X127500000Y-47500000D03*
X39000000Y-39050000D03*
X121000000Y-37050000D03*
X125000000Y-47500000D03*
X44500000Y-39050000D03*
X127500000Y-50000000D03*
X125000000Y-50000000D03*
X44500000Y-45550000D03*
X50000000Y-39050000D03*
X130000000Y-47500000D03*
X115000000Y-43050000D03*
X39000000Y-45550000D03*
X50000000Y-45550000D03*
X130000000Y-50000000D03*
X44450000Y-64000000D03*
X115000000Y-37050000D03*
X121000000Y-43050000D03*
X71000000Y-76450000D03*
X109000000Y-43050000D03*
%TD*%
%TO.N,/GATE*%
D16*
X88960000Y-45960000D02*
X87900000Y-45960000D01*
X92000000Y-49000000D02*
X88960000Y-45960000D01*
X92000000Y-57500000D02*
X92000000Y-49000000D01*
X87900000Y-45960000D02*
X79400000Y-45960000D01*
%TO.N,/EN*%
D17*
X82000000Y-78500000D02*
X83000000Y-77500000D01*
X82000000Y-80500000D02*
X82000000Y-78500000D01*
%TO.N,V12*%
D16*
X87000000Y-73000000D02*
X87500000Y-72500000D01*
X87000000Y-79750000D02*
X87000000Y-73000000D01*
%TO.N,VOUT*%
D17*
X97050000Y-82000000D02*
X102000000Y-82000000D01*
X95000000Y-79950000D02*
X97050000Y-82000000D01*
%TO.N,/GDRV*%
X97500000Y-67500000D02*
X97500000Y-67000000D01*
X96000000Y-69000000D02*
X97500000Y-67500000D01*
X91000000Y-69000000D02*
X96000000Y-69000000D01*
X90500000Y-69500000D02*
X91000000Y-69000000D01*
%TD*%
%TA.AperFunction,Conductor*%
%TO.N,AGND*%
G36*
X90577678Y-68519962D02*
G01*
X90632216Y-68574500D01*
X90652178Y-68649000D01*
X90632216Y-68723500D01*
X90608537Y-68754359D01*
X90607037Y-68755859D01*
X90540242Y-68794423D01*
X90501678Y-68799500D01*
X90431007Y-68799500D01*
X90295674Y-68826419D01*
X90295670Y-68826420D01*
X90168190Y-68879224D01*
X90168184Y-68879227D01*
X90053461Y-68955883D01*
X90053454Y-68955889D01*
X89955889Y-69053454D01*
X89955883Y-69053461D01*
X89879227Y-69168184D01*
X89879224Y-69168190D01*
X89826420Y-69295670D01*
X89826419Y-69295674D01*
X89799500Y-69431006D01*
X89799500Y-69568993D01*
X89826419Y-69704325D01*
X89826420Y-69704329D01*
X89879224Y-69831809D01*
X89879227Y-69831815D01*
X89955883Y-69946538D01*
X89955886Y-69946542D01*
X90053458Y-70044114D01*
X90053461Y-70044116D01*
X90168184Y-70120772D01*
X90168186Y-70120773D01*
X90168189Y-70120775D01*
X90295672Y-70173580D01*
X90431007Y-70200500D01*
X90568993Y-70200500D01*
X90704328Y-70173580D01*
X90831811Y-70120775D01*
X90946542Y-70044114D01*
X91044114Y-69946542D01*
X91120775Y-69831811D01*
X91173580Y-69704328D01*
X91200214Y-69570431D01*
X91234327Y-69501257D01*
X91298457Y-69458407D01*
X91346351Y-69450500D01*
X96059306Y-69450500D01*
X96059309Y-69450500D01*
X96149673Y-69426286D01*
X96173887Y-69419799D01*
X96276614Y-69360489D01*
X97093462Y-68543641D01*
X97160257Y-68505077D01*
X97198821Y-68500000D01*
X117851000Y-68500000D01*
X117925500Y-68519962D01*
X117980038Y-68574500D01*
X118000000Y-68649000D01*
X118000000Y-83851000D01*
X117980038Y-83925500D01*
X117925500Y-83980038D01*
X117851000Y-84000000D01*
X73649000Y-84000000D01*
X73574500Y-83980038D01*
X73519962Y-83925500D01*
X73500000Y-83851000D01*
X73500000Y-80431006D01*
X81299500Y-80431006D01*
X81299500Y-80568993D01*
X81326419Y-80704325D01*
X81326420Y-80704329D01*
X81379224Y-80831809D01*
X81379227Y-80831815D01*
X81455883Y-80946538D01*
X81455886Y-80946542D01*
X81553458Y-81044114D01*
X81553461Y-81044116D01*
X81668184Y-81120772D01*
X81668186Y-81120773D01*
X81668189Y-81120775D01*
X81795672Y-81173580D01*
X81931007Y-81200500D01*
X82068993Y-81200500D01*
X82204328Y-81173580D01*
X82331811Y-81120775D01*
X82446542Y-81044114D01*
X82544114Y-80946542D01*
X82620775Y-80831811D01*
X82673580Y-80704328D01*
X82700500Y-80568993D01*
X82700500Y-80431007D01*
X82699022Y-80423579D01*
X82673580Y-80295674D01*
X82673579Y-80295670D01*
X82672935Y-80294116D01*
X82620775Y-80168189D01*
X82611513Y-80154328D01*
X82544116Y-80053461D01*
X82544114Y-80053458D01*
X82494141Y-80003485D01*
X82484333Y-79986497D01*
X82470462Y-79972626D01*
X82465384Y-79953677D01*
X82455577Y-79936690D01*
X82450500Y-79898126D01*
X82450500Y-79681006D01*
X86299500Y-79681006D01*
X86299500Y-79818993D01*
X86326419Y-79954325D01*
X86326420Y-79954329D01*
X86379224Y-80081809D01*
X86379227Y-80081815D01*
X86455883Y-80196538D01*
X86455886Y-80196542D01*
X86553458Y-80294114D01*
X86553461Y-80294116D01*
X86668184Y-80370772D01*
X86668186Y-80370773D01*
X86668189Y-80370775D01*
X86795672Y-80423580D01*
X86931007Y-80450500D01*
X87068993Y-80450500D01*
X87204328Y-80423580D01*
X87331811Y-80370775D01*
X87446542Y-80294114D01*
X87544114Y-80196542D01*
X87620775Y-80081811D01*
X87673580Y-79954328D01*
X87688165Y-79881006D01*
X94299500Y-79881006D01*
X94299500Y-80018993D01*
X94326419Y-80154325D01*
X94326420Y-80154329D01*
X94379224Y-80281809D01*
X94379227Y-80281815D01*
X94438667Y-80370772D01*
X94455886Y-80396542D01*
X94553458Y-80494114D01*
X94553461Y-80494116D01*
X94668184Y-80570772D01*
X94668186Y-80570773D01*
X94668189Y-80570775D01*
X94795672Y-80623580D01*
X94931007Y-80650500D01*
X95001679Y-80650500D01*
X95076179Y-80670462D01*
X95107037Y-80694140D01*
X96773386Y-82360490D01*
X96876113Y-82419799D01*
X96900317Y-82426283D01*
X96900324Y-82426287D01*
X96900325Y-82426286D01*
X96924539Y-82432774D01*
X96990691Y-82450500D01*
X101398126Y-82450500D01*
X101472626Y-82470462D01*
X101503485Y-82494141D01*
X101553458Y-82544114D01*
X101553461Y-82544116D01*
X101668184Y-82620772D01*
X101668186Y-82620773D01*
X101668189Y-82620775D01*
X101795672Y-82673580D01*
X101931007Y-82700500D01*
X102068993Y-82700500D01*
X102204328Y-82673580D01*
X102331811Y-82620775D01*
X102446542Y-82544114D01*
X102544114Y-82446542D01*
X102620775Y-82331811D01*
X102673580Y-82204328D01*
X102700500Y-82068993D01*
X102700500Y-81931007D01*
X102673580Y-81795672D01*
X102620775Y-81668189D01*
X102544114Y-81553458D01*
X102446542Y-81455886D01*
X102446538Y-81455883D01*
X102331815Y-81379227D01*
X102331809Y-81379224D01*
X102204329Y-81326420D01*
X102204325Y-81326419D01*
X102068993Y-81299500D01*
X101931007Y-81299500D01*
X101795674Y-81326419D01*
X101795670Y-81326420D01*
X101668190Y-81379224D01*
X101668184Y-81379227D01*
X101553461Y-81455883D01*
X101553454Y-81455889D01*
X101503485Y-81505859D01*
X101436690Y-81544423D01*
X101398126Y-81549500D01*
X97298322Y-81549500D01*
X97223822Y-81529538D01*
X97192963Y-81505859D01*
X95744141Y-80057037D01*
X95705577Y-79990242D01*
X95700500Y-79951678D01*
X95700500Y-79881006D01*
X95688165Y-79818994D01*
X95673580Y-79745672D01*
X95620775Y-79618189D01*
X95544114Y-79503458D01*
X95446542Y-79405886D01*
X95446538Y-79405883D01*
X95331815Y-79329227D01*
X95331809Y-79329224D01*
X95204329Y-79276420D01*
X95204325Y-79276419D01*
X95068993Y-79249500D01*
X94931007Y-79249500D01*
X94795674Y-79276419D01*
X94795670Y-79276420D01*
X94668190Y-79329224D01*
X94668184Y-79329227D01*
X94553461Y-79405883D01*
X94553454Y-79405889D01*
X94455889Y-79503454D01*
X94455883Y-79503461D01*
X94379227Y-79618184D01*
X94379224Y-79618190D01*
X94326420Y-79745670D01*
X94326419Y-79745674D01*
X94299500Y-79881006D01*
X87688165Y-79881006D01*
X87700500Y-79818993D01*
X87700500Y-79681007D01*
X87673580Y-79545672D01*
X87620775Y-79418189D01*
X87620774Y-79418188D01*
X87620774Y-79418186D01*
X87575611Y-79350596D01*
X87550819Y-79277561D01*
X87550500Y-79267816D01*
X87550500Y-77105135D01*
X108579500Y-77105135D01*
X108579500Y-77105136D01*
X108579500Y-77105140D01*
X108579500Y-78894866D01*
X108582414Y-78919989D01*
X108582415Y-78919992D01*
X108627793Y-79022764D01*
X108627794Y-79022765D01*
X108707235Y-79102206D01*
X108810009Y-79147585D01*
X108835135Y-79150500D01*
X110624864Y-79150499D01*
X110624866Y-79150499D01*
X110637427Y-79149042D01*
X110649991Y-79147585D01*
X110752765Y-79102206D01*
X110809010Y-79045961D01*
X111789723Y-79045961D01*
X111789723Y-79045962D01*
X111828548Y-79065745D01*
X112000702Y-79121681D01*
X112000702Y-79121682D01*
X112179497Y-79150000D01*
X112360503Y-79150000D01*
X112539297Y-79121682D01*
X112539297Y-79121681D01*
X112711441Y-79065748D01*
X112711456Y-79065742D01*
X112750275Y-79045962D01*
X112750276Y-79045961D01*
X112270000Y-78565685D01*
X111789723Y-79045961D01*
X110809010Y-79045961D01*
X110832206Y-79022765D01*
X110877585Y-78919991D01*
X110880500Y-78894865D01*
X110880499Y-78385783D01*
X110900461Y-78311286D01*
X110954999Y-78256748D01*
X111029499Y-78236786D01*
X111103999Y-78256748D01*
X111158537Y-78311286D01*
X111171206Y-78339742D01*
X111204249Y-78441440D01*
X111204253Y-78441448D01*
X111224036Y-78480275D01*
X111704313Y-77999999D01*
X111638488Y-77934174D01*
X111770000Y-77934174D01*
X111770000Y-78065826D01*
X111804075Y-78192993D01*
X111869901Y-78307007D01*
X111962993Y-78400099D01*
X112077007Y-78465925D01*
X112204174Y-78500000D01*
X112335826Y-78500000D01*
X112462993Y-78465925D01*
X112577007Y-78400099D01*
X112670099Y-78307007D01*
X112735925Y-78192993D01*
X112770000Y-78065826D01*
X112770000Y-77999999D01*
X112835685Y-77999999D01*
X113315961Y-78480276D01*
X113315962Y-78480275D01*
X113335742Y-78441456D01*
X113335748Y-78441441D01*
X113391681Y-78269297D01*
X113391682Y-78269297D01*
X113420000Y-78090503D01*
X113420000Y-77909496D01*
X113391682Y-77730702D01*
X113335745Y-77558548D01*
X113315962Y-77519723D01*
X113315961Y-77519723D01*
X112835685Y-77999999D01*
X112770000Y-77999999D01*
X112770000Y-77934174D01*
X112735925Y-77807007D01*
X112670099Y-77692993D01*
X112577007Y-77599901D01*
X112462993Y-77534075D01*
X112335826Y-77500000D01*
X112204174Y-77500000D01*
X112077007Y-77534075D01*
X111962993Y-77599901D01*
X111869901Y-77692993D01*
X111804075Y-77807007D01*
X111770000Y-77934174D01*
X111638488Y-77934174D01*
X111224037Y-77519723D01*
X111204255Y-77558547D01*
X111204250Y-77558560D01*
X111171206Y-77660259D01*
X111129199Y-77724944D01*
X111060478Y-77759959D01*
X110983455Y-77755922D01*
X110918770Y-77713915D01*
X110883755Y-77645194D01*
X110880499Y-77614215D01*
X110880499Y-77105133D01*
X110877585Y-77080010D01*
X110877584Y-77080006D01*
X110871354Y-77065896D01*
X110832206Y-76977235D01*
X110809008Y-76954037D01*
X111789723Y-76954037D01*
X112269999Y-77434313D01*
X112750275Y-76954036D01*
X112711448Y-76934253D01*
X112539293Y-76878317D01*
X112360503Y-76850000D01*
X112179497Y-76850000D01*
X112000702Y-76878317D01*
X112000698Y-76878319D01*
X111828563Y-76934248D01*
X111828547Y-76934255D01*
X111789723Y-76954037D01*
X110809008Y-76954037D01*
X110752764Y-76897793D01*
X110649994Y-76852416D01*
X110649991Y-76852415D01*
X110649982Y-76852414D01*
X110624865Y-76849500D01*
X110624859Y-76849500D01*
X108835133Y-76849500D01*
X108810010Y-76852414D01*
X108810007Y-76852415D01*
X108707235Y-76897793D01*
X108627793Y-76977235D01*
X108582416Y-77080005D01*
X108582416Y-77080006D01*
X108582415Y-77080009D01*
X108579500Y-77105135D01*
X87550500Y-77105135D01*
X87550500Y-73326459D01*
X87570462Y-73251959D01*
X87625000Y-73197421D01*
X87670433Y-73180322D01*
X87704328Y-73173580D01*
X87831811Y-73120775D01*
X87946542Y-73044114D01*
X88044114Y-72946542D01*
X88120775Y-72831811D01*
X88173580Y-72704328D01*
X88200500Y-72568993D01*
X88200500Y-72431007D01*
X88173580Y-72295672D01*
X88120775Y-72168189D01*
X88044114Y-72053458D01*
X87946542Y-71955886D01*
X87946538Y-71955883D01*
X87831815Y-71879227D01*
X87831809Y-71879224D01*
X87704329Y-71826420D01*
X87704325Y-71826419D01*
X87568993Y-71799500D01*
X87431007Y-71799500D01*
X87295674Y-71826419D01*
X87295670Y-71826420D01*
X87168190Y-71879224D01*
X87168184Y-71879227D01*
X87053461Y-71955883D01*
X87053454Y-71955889D01*
X86955889Y-72053454D01*
X86955883Y-72053461D01*
X86879227Y-72168184D01*
X86879224Y-72168190D01*
X86826420Y-72295670D01*
X86826417Y-72295679D01*
X86810558Y-72375404D01*
X86776444Y-72444578D01*
X86769781Y-72451691D01*
X86559492Y-72661981D01*
X86535043Y-72704329D01*
X86487016Y-72787515D01*
X86475147Y-72831811D01*
X86449500Y-72927524D01*
X86449500Y-79267816D01*
X86429538Y-79342316D01*
X86424389Y-79350596D01*
X86379225Y-79418186D01*
X86379224Y-79418190D01*
X86326420Y-79545670D01*
X86326419Y-79545674D01*
X86299500Y-79681006D01*
X82450500Y-79681006D01*
X82450500Y-78748321D01*
X82470462Y-78673821D01*
X82494141Y-78642962D01*
X82892962Y-78244141D01*
X82959757Y-78205577D01*
X82998321Y-78200500D01*
X83068993Y-78200500D01*
X83204328Y-78173580D01*
X83331811Y-78120775D01*
X83446542Y-78044114D01*
X83544114Y-77946542D01*
X83620775Y-77831811D01*
X83673580Y-77704328D01*
X83700500Y-77568993D01*
X83700500Y-77431007D01*
X83673580Y-77295672D01*
X83620775Y-77168189D01*
X83544114Y-77053458D01*
X83446542Y-76955886D01*
X83443775Y-76954037D01*
X83331815Y-76879227D01*
X83331809Y-76879224D01*
X83204329Y-76826420D01*
X83204325Y-76826419D01*
X83068993Y-76799500D01*
X82931007Y-76799500D01*
X82795674Y-76826419D01*
X82795670Y-76826420D01*
X82668190Y-76879224D01*
X82668184Y-76879227D01*
X82553461Y-76955883D01*
X82553454Y-76955889D01*
X82455889Y-77053454D01*
X82455883Y-77053461D01*
X82379227Y-77168184D01*
X82379224Y-77168190D01*
X82326420Y-77295670D01*
X82326419Y-77295674D01*
X82299500Y-77431006D01*
X82299500Y-77501679D01*
X82279538Y-77576179D01*
X82255859Y-77607038D01*
X81639508Y-78223389D01*
X81580201Y-78326111D01*
X81580202Y-78326111D01*
X81580201Y-78326113D01*
X81580201Y-78326114D01*
X81569967Y-78364306D01*
X81549500Y-78440689D01*
X81549500Y-79898126D01*
X81529538Y-79972626D01*
X81505859Y-80003485D01*
X81455889Y-80053454D01*
X81455883Y-80053461D01*
X81379227Y-80168184D01*
X81379224Y-80168190D01*
X81326420Y-80295670D01*
X81326419Y-80295674D01*
X81299500Y-80431006D01*
X73500000Y-80431006D01*
X73500000Y-68649000D01*
X73519962Y-68574500D01*
X73574500Y-68519962D01*
X73649000Y-68500000D01*
X90503178Y-68500000D01*
X90577678Y-68519962D01*
G37*
%TD.AperFunction*%
%TD*%
%TA.AperFunction,Conductor*%
%TO.N,/SW*%
G36*
X99925500Y-30519962D02*
G01*
X99980038Y-30574500D01*
X100000000Y-30649000D01*
X100000000Y-56851000D01*
X99980038Y-56925500D01*
X99925500Y-56980038D01*
X99851000Y-57000000D01*
X92699500Y-57000000D01*
X92625000Y-56980038D01*
X92570462Y-56925500D01*
X92550500Y-56851000D01*
X92550500Y-48927525D01*
X92512984Y-48787515D01*
X92440510Y-48661985D01*
X89298015Y-45519490D01*
X89174999Y-45448467D01*
X89120461Y-45393929D01*
X89100499Y-45319429D01*
X89100499Y-45015133D01*
X89097585Y-44990010D01*
X89097584Y-44990008D01*
X89052206Y-44887235D01*
X88972765Y-44807794D01*
X88972764Y-44807793D01*
X88869994Y-44762416D01*
X88869991Y-44762415D01*
X88869982Y-44762414D01*
X88844865Y-44759500D01*
X88844859Y-44759500D01*
X86955133Y-44759500D01*
X86930010Y-44762414D01*
X86930007Y-44762415D01*
X86827235Y-44807793D01*
X86747793Y-44887235D01*
X86702416Y-44990005D01*
X86702415Y-44990008D01*
X86702415Y-44990009D01*
X86699500Y-45015135D01*
X86699500Y-45015136D01*
X86699500Y-45015140D01*
X86699500Y-45260500D01*
X86679538Y-45335000D01*
X86625000Y-45389538D01*
X86550500Y-45409500D01*
X80749499Y-45409500D01*
X80674999Y-45389538D01*
X80620461Y-45335000D01*
X80600499Y-45260500D01*
X80600499Y-45015133D01*
X80597585Y-44990010D01*
X80597584Y-44990008D01*
X80552206Y-44887235D01*
X80472765Y-44807794D01*
X80472764Y-44807793D01*
X80369994Y-44762416D01*
X80369991Y-44762415D01*
X80369982Y-44762414D01*
X80344865Y-44759500D01*
X80344859Y-44759500D01*
X78455133Y-44759500D01*
X78430010Y-44762414D01*
X78430007Y-44762415D01*
X78327235Y-44807793D01*
X78247793Y-44887235D01*
X78202416Y-44990005D01*
X78202415Y-44990008D01*
X78202415Y-44990009D01*
X78199500Y-45015135D01*
X78199500Y-45015136D01*
X78199500Y-45015140D01*
X78199500Y-46904866D01*
X78202414Y-46929989D01*
X78202415Y-46929992D01*
X78247793Y-47032764D01*
X78247794Y-47032765D01*
X78327235Y-47112206D01*
X78430009Y-47157585D01*
X78455135Y-47160500D01*
X80344864Y-47160499D01*
X80344866Y-47160499D01*
X80357427Y-47159042D01*
X80369991Y-47157585D01*
X80472765Y-47112206D01*
X80552206Y-47032765D01*
X80597585Y-46929991D01*
X80600500Y-46904865D01*
X80600500Y-46659500D01*
X80620462Y-46585000D01*
X80675000Y-46530462D01*
X80749500Y-46510500D01*
X86550501Y-46510500D01*
X86625001Y-46530462D01*
X86679539Y-46585000D01*
X86699501Y-46659500D01*
X86699501Y-46904866D01*
X86702414Y-46929989D01*
X86702415Y-46929992D01*
X86747793Y-47032764D01*
X86747794Y-47032765D01*
X86827235Y-47112206D01*
X86930009Y-47157585D01*
X86955135Y-47160500D01*
X88844864Y-47160499D01*
X88844866Y-47160499D01*
X88857427Y-47159042D01*
X88869991Y-47157585D01*
X88972765Y-47112206D01*
X89047864Y-47037107D01*
X89114659Y-46998543D01*
X89191787Y-46998543D01*
X89258582Y-47037107D01*
X91405859Y-49184384D01*
X91444423Y-49251179D01*
X91449500Y-49289743D01*
X91449500Y-56851000D01*
X91429538Y-56925500D01*
X91375000Y-56980038D01*
X91300500Y-57000000D01*
X61649000Y-57000000D01*
X61574500Y-56980038D01*
X61519962Y-56925500D01*
X61500000Y-56851000D01*
X61500000Y-50945519D01*
X78199500Y-50945519D01*
X78199500Y-51134481D01*
X78229060Y-51321118D01*
X78287453Y-51500832D01*
X78373240Y-51669199D01*
X78484310Y-51822073D01*
X78617927Y-51955690D01*
X78770801Y-52066760D01*
X78939168Y-52152547D01*
X79118882Y-52210940D01*
X79305519Y-52240500D01*
X79305524Y-52240500D01*
X79494476Y-52240500D01*
X79494481Y-52240500D01*
X79681118Y-52210940D01*
X79860832Y-52152547D01*
X80029199Y-52066760D01*
X80182073Y-51955690D01*
X80315690Y-51822073D01*
X80426760Y-51669199D01*
X80512547Y-51500832D01*
X80570940Y-51321118D01*
X80600500Y-51134481D01*
X80600500Y-50945519D01*
X86699500Y-50945519D01*
X86699500Y-51134481D01*
X86729060Y-51321118D01*
X86787453Y-51500832D01*
X86873240Y-51669199D01*
X86984310Y-51822073D01*
X87117927Y-51955690D01*
X87270801Y-52066760D01*
X87439168Y-52152547D01*
X87618882Y-52210940D01*
X87805519Y-52240500D01*
X87805524Y-52240500D01*
X87994476Y-52240500D01*
X87994481Y-52240500D01*
X88181118Y-52210940D01*
X88360832Y-52152547D01*
X88529199Y-52066760D01*
X88682073Y-51955690D01*
X88815690Y-51822073D01*
X88926760Y-51669199D01*
X89012547Y-51500832D01*
X89070940Y-51321118D01*
X89100500Y-51134481D01*
X89100500Y-50945519D01*
X89070940Y-50758882D01*
X89012547Y-50579168D01*
X88926760Y-50410801D01*
X88815690Y-50257927D01*
X88682073Y-50124310D01*
X88529199Y-50013240D01*
X88360832Y-49927453D01*
X88181118Y-49869060D01*
X87994481Y-49839500D01*
X87805519Y-49839500D01*
X87618882Y-49869060D01*
X87439168Y-49927453D01*
X87439163Y-49927455D01*
X87439157Y-49927458D01*
X87270804Y-50013238D01*
X87270799Y-50013241D01*
X87117936Y-50124303D01*
X87117925Y-50124312D01*
X86984312Y-50257925D01*
X86984303Y-50257936D01*
X86873241Y-50410799D01*
X86873238Y-50410804D01*
X86787458Y-50579157D01*
X86787455Y-50579163D01*
X86787453Y-50579168D01*
X86729060Y-50758882D01*
X86699500Y-50945519D01*
X80600500Y-50945519D01*
X80570940Y-50758882D01*
X80512547Y-50579168D01*
X80426760Y-50410801D01*
X80315690Y-50257927D01*
X80182073Y-50124310D01*
X80029199Y-50013240D01*
X79860832Y-49927453D01*
X79681118Y-49869060D01*
X79494481Y-49839500D01*
X79305519Y-49839500D01*
X79118882Y-49869060D01*
X78939168Y-49927453D01*
X78939163Y-49927455D01*
X78939157Y-49927458D01*
X78770804Y-50013238D01*
X78770799Y-50013241D01*
X78617936Y-50124303D01*
X78617925Y-50124312D01*
X78484312Y-50257925D01*
X78484303Y-50257936D01*
X78373241Y-50410799D01*
X78373238Y-50410804D01*
X78287458Y-50579157D01*
X78287455Y-50579163D01*
X78287453Y-50579168D01*
X78229060Y-50758882D01*
X78199500Y-50945519D01*
X61500000Y-50945519D01*
X61500000Y-42945519D01*
X96799500Y-42945519D01*
X96799500Y-43134481D01*
X96829060Y-43321118D01*
X96887453Y-43500832D01*
X96973240Y-43669199D01*
X97084310Y-43822073D01*
X97217927Y-43955690D01*
X97370801Y-44066760D01*
X97539168Y-44152547D01*
X97718882Y-44210940D01*
X97905519Y-44240500D01*
X97905524Y-44240500D01*
X98094476Y-44240500D01*
X98094481Y-44240500D01*
X98281118Y-44210940D01*
X98460832Y-44152547D01*
X98629199Y-44066760D01*
X98782073Y-43955690D01*
X98915690Y-43822073D01*
X99026760Y-43669199D01*
X99112547Y-43500832D01*
X99170940Y-43321118D01*
X99200500Y-43134481D01*
X99200500Y-42945519D01*
X99170940Y-42758882D01*
X99112547Y-42579168D01*
X99026760Y-42410801D01*
X98915690Y-42257927D01*
X98782073Y-42124310D01*
X98629199Y-42013240D01*
X98460832Y-41927453D01*
X98281118Y-41869060D01*
X98094481Y-41839500D01*
X97905519Y-41839500D01*
X97718882Y-41869060D01*
X97539168Y-41927453D01*
X97539163Y-41927455D01*
X97539157Y-41927458D01*
X97370804Y-42013238D01*
X97370799Y-42013241D01*
X97217936Y-42124303D01*
X97217925Y-42124312D01*
X97084312Y-42257925D01*
X97084303Y-42257936D01*
X96973241Y-42410799D01*
X96973238Y-42410804D01*
X96887458Y-42579157D01*
X96887455Y-42579163D01*
X96887453Y-42579168D01*
X96829060Y-42758882D01*
X96799500Y-42945519D01*
X61500000Y-42945519D01*
X61500000Y-30649000D01*
X61519962Y-30574500D01*
X61574500Y-30519962D01*
X61649000Y-30500000D01*
X99851000Y-30500000D01*
X99925500Y-30519962D01*
G37*
%TD.AperFunction*%
%TD*%
%TA.AperFunction,Conductor*%
%TO.N,PGND*%
G36*
X61120000Y-30519962D02*
G01*
X61174538Y-30574500D01*
X61194500Y-30649000D01*
X61194500Y-56851007D01*
X61204906Y-56930055D01*
X61204910Y-56930075D01*
X61224870Y-57004567D01*
X61224876Y-57004587D01*
X61240490Y-57048893D01*
X61240492Y-57048898D01*
X61303941Y-57141521D01*
X61358479Y-57196059D01*
X61394172Y-57226639D01*
X61495432Y-57275129D01*
X61552323Y-57290372D01*
X61569924Y-57295089D01*
X61569926Y-57295089D01*
X61569932Y-57295091D01*
X61569937Y-57295091D01*
X61569944Y-57295093D01*
X61648992Y-57305499D01*
X61649000Y-57305500D01*
X91150500Y-57305500D01*
X91225000Y-57325462D01*
X91279538Y-57380000D01*
X91299500Y-57454500D01*
X91299500Y-57568993D01*
X91326416Y-57704313D01*
X91326419Y-57704325D01*
X91326420Y-57704329D01*
X91379224Y-57831809D01*
X91379227Y-57831815D01*
X91455883Y-57946538D01*
X91455886Y-57946542D01*
X91455889Y-57946545D01*
X91455893Y-57946550D01*
X91553454Y-58044111D01*
X91553461Y-58044116D01*
X91668188Y-58120775D01*
X91758330Y-58158112D01*
X91795672Y-58173580D01*
X91931007Y-58200500D01*
X92068993Y-58200500D01*
X92204328Y-58173580D01*
X92331811Y-58120775D01*
X92446542Y-58044114D01*
X92544114Y-57946542D01*
X92620775Y-57831811D01*
X92673580Y-57704328D01*
X92700500Y-57568993D01*
X92700500Y-57454500D01*
X92720462Y-57380000D01*
X92775000Y-57325462D01*
X92849500Y-57305500D01*
X99851000Y-57305500D01*
X99867906Y-57303274D01*
X99930055Y-57295093D01*
X99930059Y-57295092D01*
X99930068Y-57295091D01*
X100004568Y-57275129D01*
X100004573Y-57275126D01*
X100004587Y-57275123D01*
X100025726Y-57267673D01*
X100048898Y-57259508D01*
X100141521Y-57196059D01*
X100196059Y-57141521D01*
X100226639Y-57105828D01*
X100275129Y-57004568D01*
X100295091Y-56930068D01*
X100305500Y-56851000D01*
X100305500Y-53605135D01*
X110292000Y-53605135D01*
X110292000Y-53605136D01*
X110292000Y-53605140D01*
X110292000Y-53608194D01*
X110292000Y-55394863D01*
X110294913Y-55419987D01*
X110294917Y-55419999D01*
X110340291Y-55522761D01*
X110340293Y-55522764D01*
X110340294Y-55522765D01*
X110419735Y-55602206D01*
X110522509Y-55647585D01*
X110547635Y-55650500D01*
X112337364Y-55650499D01*
X112337366Y-55650499D01*
X112337368Y-55650499D01*
X112346463Y-55649443D01*
X112349927Y-55649042D01*
X112362491Y-55647585D01*
X112465265Y-55602206D01*
X112544706Y-55522765D01*
X112590085Y-55419991D01*
X112593000Y-55394865D01*
X112592999Y-54905399D01*
X112598073Y-54866847D01*
X112600701Y-54857037D01*
X112639259Y-54790242D01*
X112706051Y-54751673D01*
X112783179Y-54751667D01*
X112849977Y-54790226D01*
X112850812Y-54791061D01*
X112887160Y-54850376D01*
X112916747Y-54941436D01*
X112916748Y-54941439D01*
X112916749Y-54941440D01*
X112916749Y-54941441D01*
X112916790Y-54941521D01*
X112936535Y-54980274D01*
X112936536Y-54980275D01*
X113273151Y-54643660D01*
X113339942Y-54605099D01*
X113417070Y-54605099D01*
X113483865Y-54643663D01*
X113511319Y-54684750D01*
X113511692Y-54684536D01*
X113514971Y-54690216D01*
X113516164Y-54692001D01*
X113516575Y-54692994D01*
X113575876Y-54795706D01*
X113582401Y-54807007D01*
X113675493Y-54900099D01*
X113747139Y-54941464D01*
X113789507Y-54965925D01*
X113790491Y-54966333D01*
X113791335Y-54966981D01*
X113797964Y-54970808D01*
X113797460Y-54971680D01*
X113851681Y-55013284D01*
X113881199Y-55084540D01*
X113871133Y-55161009D01*
X113838833Y-55209351D01*
X113502223Y-55545961D01*
X113502223Y-55545962D01*
X113502222Y-55545962D01*
X113541043Y-55565743D01*
X113541045Y-55565743D01*
X113541048Y-55565745D01*
X113673237Y-55608695D01*
X113686793Y-55617499D01*
X113713202Y-55621681D01*
X113713202Y-55621682D01*
X113891997Y-55650000D01*
X114072998Y-55650000D01*
X114073003Y-55650000D01*
X114251797Y-55621682D01*
X114251797Y-55621681D01*
X114276748Y-55617730D01*
X114288070Y-55609949D01*
X114291723Y-55608707D01*
X114423941Y-55565748D01*
X114423956Y-55565742D01*
X114462775Y-55545962D01*
X114462776Y-55545961D01*
X114126166Y-55209351D01*
X114087602Y-55142556D01*
X114087602Y-55065428D01*
X114126166Y-54998633D01*
X114167252Y-54971182D01*
X114167036Y-54970808D01*
X114172748Y-54967509D01*
X114174513Y-54966331D01*
X114175489Y-54965926D01*
X114175493Y-54965925D01*
X114289507Y-54900099D01*
X114382599Y-54807007D01*
X114448425Y-54692993D01*
X114448426Y-54692987D01*
X114448829Y-54692017D01*
X114449475Y-54691174D01*
X114453308Y-54684536D01*
X114454181Y-54685040D01*
X114495775Y-54630823D01*
X114567030Y-54601301D01*
X114643499Y-54611361D01*
X114691850Y-54643664D01*
X115028461Y-54980276D01*
X115028462Y-54980275D01*
X115048242Y-54941456D01*
X115048248Y-54941441D01*
X115091195Y-54809263D01*
X115099999Y-54795706D01*
X115104182Y-54769297D01*
X115132500Y-54590503D01*
X115132500Y-54409496D01*
X115104182Y-54230702D01*
X115048245Y-54058549D01*
X115048243Y-54058544D01*
X115028462Y-54019723D01*
X115028461Y-54019723D01*
X114691851Y-54356332D01*
X114625056Y-54394896D01*
X114547928Y-54394896D01*
X114481133Y-54356332D01*
X114453681Y-54315248D01*
X114453308Y-54315464D01*
X114450013Y-54309757D01*
X114448835Y-54307994D01*
X114448428Y-54307012D01*
X114382600Y-54192995D01*
X114382598Y-54192992D01*
X114289507Y-54099901D01*
X114289504Y-54099899D01*
X114175494Y-54034075D01*
X114174501Y-54033664D01*
X114173647Y-54033009D01*
X114167036Y-54029192D01*
X114167538Y-54028321D01*
X114113312Y-53986711D01*
X114083797Y-53915454D01*
X114093864Y-53838985D01*
X114126159Y-53790652D01*
X114462775Y-53454036D01*
X114462773Y-53454035D01*
X114462774Y-53454035D01*
X114423949Y-53434253D01*
X114251793Y-53378317D01*
X114073003Y-53350000D01*
X114072998Y-53350000D01*
X113892001Y-53350000D01*
X113891997Y-53350000D01*
X113789828Y-53366181D01*
X113713199Y-53378317D01*
X113703093Y-53381558D01*
X113702589Y-53381765D01*
X113541061Y-53434248D01*
X113541055Y-53434250D01*
X113541055Y-53434251D01*
X113541048Y-53434254D01*
X113502223Y-53454036D01*
X113502223Y-53454037D01*
X113838834Y-53790648D01*
X113877398Y-53857443D01*
X113877398Y-53934571D01*
X113838834Y-54001366D01*
X113797748Y-54028819D01*
X113797964Y-54029192D01*
X113792275Y-54032476D01*
X113790498Y-54033664D01*
X113789507Y-54034074D01*
X113675495Y-54099899D01*
X113675492Y-54099901D01*
X113582401Y-54192992D01*
X113582399Y-54192995D01*
X113516574Y-54307007D01*
X113516164Y-54307998D01*
X113515511Y-54308847D01*
X113511692Y-54315464D01*
X113510820Y-54314960D01*
X113469209Y-54369187D01*
X113397952Y-54398701D01*
X113321484Y-54388632D01*
X113273148Y-54356334D01*
X112936537Y-54019723D01*
X112916753Y-54058549D01*
X112916750Y-54058559D01*
X112889767Y-54141603D01*
X112873029Y-54176699D01*
X112867499Y-54185216D01*
X112810186Y-54236829D01*
X112734744Y-54252871D01*
X112661389Y-54229044D01*
X112609776Y-54171731D01*
X112609748Y-54171676D01*
X112609217Y-54170633D01*
X112592999Y-54103032D01*
X112592999Y-53605135D01*
X112590167Y-53580717D01*
X112590085Y-53580010D01*
X112590084Y-53580006D01*
X112583855Y-53565898D01*
X112583854Y-53565897D01*
X112580145Y-53557496D01*
X112544706Y-53477235D01*
X112465264Y-53397793D01*
X112465261Y-53397791D01*
X112362501Y-53352418D01*
X112362492Y-53352415D01*
X112362478Y-53352412D01*
X112362008Y-53352359D01*
X112361675Y-53352320D01*
X112337365Y-53349500D01*
X112337360Y-53349500D01*
X110547635Y-53349500D01*
X110547633Y-53349500D01*
X110542412Y-53350105D01*
X110522511Y-53352413D01*
X110522499Y-53352417D01*
X110419737Y-53397791D01*
X110419735Y-53397793D01*
X110340293Y-53477234D01*
X110294903Y-53580033D01*
X110294756Y-53580717D01*
X110294242Y-53583029D01*
X110294099Y-53585512D01*
X110294191Y-53586071D01*
X110294070Y-53587291D01*
X110292000Y-53605135D01*
X100305500Y-53605135D01*
X100305500Y-34378700D01*
X136649500Y-34378700D01*
X136649500Y-34621298D01*
X136681157Y-34861764D01*
X136681300Y-34862622D01*
X136682177Y-34865579D01*
X136709867Y-34968918D01*
X136743946Y-35096100D01*
X136836776Y-35320212D01*
X136958064Y-35530289D01*
X137105735Y-35722738D01*
X137277262Y-35894265D01*
X137469711Y-36041936D01*
X137679788Y-36163224D01*
X137903900Y-36256054D01*
X138124048Y-36315043D01*
X138131936Y-36318011D01*
X138138206Y-36318836D01*
X138138211Y-36318838D01*
X138138216Y-36318838D01*
X138138217Y-36318838D01*
X138138218Y-36318839D01*
X138203600Y-36327446D01*
X138378712Y-36350500D01*
X138621288Y-36350500D01*
X138861789Y-36318838D01*
X139096100Y-36256054D01*
X139320212Y-36163224D01*
X139530289Y-36041936D01*
X139722738Y-35894265D01*
X139894265Y-35722738D01*
X140041936Y-35530289D01*
X140163224Y-35320212D01*
X140256054Y-35096100D01*
X140318838Y-34861789D01*
X140350500Y-34621288D01*
X140350500Y-34378712D01*
X140318838Y-34138211D01*
X140256054Y-33903900D01*
X140163224Y-33679788D01*
X140041936Y-33469711D01*
X139894265Y-33277262D01*
X139722738Y-33105735D01*
X139530289Y-32958064D01*
X139460263Y-32917634D01*
X139320214Y-32836776D01*
X139320214Y-32836777D01*
X139320203Y-32836771D01*
X139320198Y-32836769D01*
X139188933Y-32782398D01*
X139188932Y-32782398D01*
X139134907Y-32760020D01*
X139100990Y-32745971D01*
X139096937Y-32744121D01*
X139093938Y-32743366D01*
X138865580Y-32682177D01*
X138862623Y-32681300D01*
X138861764Y-32681157D01*
X138621298Y-32649500D01*
X138621293Y-32649500D01*
X138621288Y-32649500D01*
X138378712Y-32649500D01*
X138378706Y-32649500D01*
X138378700Y-32649500D01*
X138138225Y-32681158D01*
X137903892Y-32743948D01*
X137679775Y-32836781D01*
X137469714Y-32958061D01*
X137469711Y-32958064D01*
X137279043Y-33104367D01*
X137277425Y-33105570D01*
X137105740Y-33277255D01*
X136958065Y-33469707D01*
X136958064Y-33469709D01*
X136836781Y-33679775D01*
X136743948Y-33903892D01*
X136681158Y-34138225D01*
X136649500Y-34378700D01*
X100305500Y-34378700D01*
X100305500Y-30649000D01*
X100325462Y-30574500D01*
X100380000Y-30519962D01*
X100454500Y-30500000D01*
X142831384Y-30500000D01*
X142869947Y-30505077D01*
X142885417Y-30509222D01*
X142952212Y-30547785D01*
X142990776Y-30614576D01*
X142994922Y-30630047D01*
X143000000Y-30668616D01*
X143000000Y-77831383D01*
X142994922Y-77869952D01*
X142990776Y-77885423D01*
X142952209Y-77952216D01*
X142885425Y-77990775D01*
X142869955Y-77994921D01*
X142831384Y-78000000D01*
X118454500Y-78000000D01*
X118380000Y-77980038D01*
X118325462Y-77925500D01*
X118305500Y-77851000D01*
X118305500Y-68649000D01*
X118305499Y-68648992D01*
X118295093Y-68569944D01*
X118295089Y-68569924D01*
X118275129Y-68495432D01*
X118275123Y-68495412D01*
X118259509Y-68451106D01*
X118259508Y-68451102D01*
X118196059Y-68358479D01*
X118141521Y-68303941D01*
X118105828Y-68273361D01*
X118037185Y-68240490D01*
X118004569Y-68224871D01*
X117930075Y-68204910D01*
X117930055Y-68204906D01*
X117851007Y-68194500D01*
X117851000Y-68194500D01*
X97802321Y-68194500D01*
X97727821Y-68174538D01*
X97673283Y-68120000D01*
X97653321Y-68045500D01*
X97673283Y-67971000D01*
X97696962Y-67940141D01*
X97860489Y-67776614D01*
X97919798Y-67673887D01*
X97919799Y-67673886D01*
X97942100Y-67590653D01*
X97956983Y-67554722D01*
X97975933Y-67521900D01*
X97999606Y-67491048D01*
X98044114Y-67446542D01*
X98116061Y-67338866D01*
X98120774Y-67331813D01*
X98120774Y-67331812D01*
X98120775Y-67331811D01*
X98173580Y-67204328D01*
X98200500Y-67068993D01*
X98200500Y-66931007D01*
X98173580Y-66795672D01*
X98120775Y-66668189D01*
X98044114Y-66553458D01*
X97946542Y-66455886D01*
X97946538Y-66455883D01*
X97831815Y-66379227D01*
X97831809Y-66379224D01*
X97831803Y-66379221D01*
X97831800Y-66379220D01*
X97704329Y-66326420D01*
X97704313Y-66326416D01*
X97568993Y-66299500D01*
X97431007Y-66299500D01*
X97295685Y-66326416D01*
X97295669Y-66326420D01*
X97168198Y-66379220D01*
X97168178Y-66379230D01*
X97053462Y-66455881D01*
X97053461Y-66455882D01*
X97053452Y-66455890D01*
X96955890Y-66553452D01*
X96955882Y-66553461D01*
X96955881Y-66553462D01*
X96879230Y-66668178D01*
X96879220Y-66668198D01*
X96826420Y-66795669D01*
X96826416Y-66795685D01*
X96799500Y-66931005D01*
X96799500Y-67068993D01*
X96826416Y-67204313D01*
X96826418Y-67204323D01*
X96826418Y-67204324D01*
X96875585Y-67323025D01*
X96883032Y-67346203D01*
X96888475Y-67369542D01*
X96885955Y-67446629D01*
X96885952Y-67446638D01*
X96883590Y-67454424D01*
X96846366Y-67516528D01*
X95870908Y-68491988D01*
X95840052Y-68515665D01*
X95816028Y-68529536D01*
X95741528Y-68549500D01*
X91051835Y-68549500D01*
X90977335Y-68529538D01*
X90922797Y-68475000D01*
X90912923Y-68453540D01*
X90911684Y-68451099D01*
X90908189Y-68445998D01*
X90848237Y-68358479D01*
X90793699Y-68303941D01*
X90758006Y-68273361D01*
X90689363Y-68240490D01*
X90656747Y-68224871D01*
X90582253Y-68204910D01*
X90582233Y-68204906D01*
X90503185Y-68194500D01*
X90503178Y-68194500D01*
X73649000Y-68194500D01*
X73648992Y-68194500D01*
X73569944Y-68204906D01*
X73569924Y-68204910D01*
X73495432Y-68224870D01*
X73495412Y-68224876D01*
X73451106Y-68240490D01*
X73451099Y-68240493D01*
X73358476Y-68303943D01*
X73303942Y-68358477D01*
X73273361Y-68394172D01*
X73224871Y-68495430D01*
X73204910Y-68569924D01*
X73204906Y-68569944D01*
X73194500Y-68648992D01*
X73194500Y-77851000D01*
X73174538Y-77925500D01*
X73120000Y-77980038D01*
X73045500Y-78000000D01*
X25168616Y-78000000D01*
X25130049Y-77994922D01*
X25120127Y-77992263D01*
X25114576Y-77990776D01*
X25047783Y-77952209D01*
X25009221Y-77885414D01*
X25005076Y-77869943D01*
X25000000Y-77831383D01*
X25000000Y-42605135D01*
X27579500Y-42605135D01*
X27579500Y-42605136D01*
X27579500Y-42605140D01*
X27579500Y-42608194D01*
X27579500Y-44394863D01*
X27582413Y-44419987D01*
X27582417Y-44419999D01*
X27627791Y-44522761D01*
X27627793Y-44522764D01*
X27627794Y-44522765D01*
X27707235Y-44602206D01*
X27810009Y-44647585D01*
X27835135Y-44650500D01*
X29624864Y-44650499D01*
X29624866Y-44650499D01*
X29624868Y-44650499D01*
X29633963Y-44649443D01*
X29637427Y-44649042D01*
X29649991Y-44647585D01*
X29752765Y-44602206D01*
X29832206Y-44522765D01*
X29877585Y-44419991D01*
X29880500Y-44394865D01*
X29880499Y-43905399D01*
X29885573Y-43866847D01*
X29888201Y-43857037D01*
X29926759Y-43790242D01*
X29993551Y-43751673D01*
X30070679Y-43751667D01*
X30137477Y-43790226D01*
X30138312Y-43791061D01*
X30174660Y-43850376D01*
X30204247Y-43941436D01*
X30204248Y-43941439D01*
X30204249Y-43941440D01*
X30204249Y-43941441D01*
X30204290Y-43941521D01*
X30224035Y-43980274D01*
X30224036Y-43980275D01*
X30560651Y-43643660D01*
X30627442Y-43605099D01*
X30704570Y-43605099D01*
X30771365Y-43643663D01*
X30798819Y-43684750D01*
X30799192Y-43684536D01*
X30802471Y-43690216D01*
X30803664Y-43692001D01*
X30804075Y-43692994D01*
X30863376Y-43795706D01*
X30869901Y-43807007D01*
X30962993Y-43900099D01*
X31034639Y-43941464D01*
X31077007Y-43965925D01*
X31077991Y-43966333D01*
X31078835Y-43966981D01*
X31085464Y-43970808D01*
X31084960Y-43971680D01*
X31139181Y-44013284D01*
X31168699Y-44084540D01*
X31158633Y-44161009D01*
X31126333Y-44209351D01*
X30789723Y-44545961D01*
X30789723Y-44545962D01*
X30789722Y-44545962D01*
X30828543Y-44565743D01*
X30828545Y-44565743D01*
X30828548Y-44565745D01*
X30960737Y-44608695D01*
X30974293Y-44617499D01*
X31000702Y-44621681D01*
X31000702Y-44621682D01*
X31179497Y-44650000D01*
X31360498Y-44650000D01*
X31360503Y-44650000D01*
X31539297Y-44621682D01*
X31539297Y-44621681D01*
X31564248Y-44617730D01*
X31575570Y-44609949D01*
X31579223Y-44608707D01*
X31711441Y-44565748D01*
X31711456Y-44565742D01*
X31750275Y-44545962D01*
X31750276Y-44545961D01*
X31413666Y-44209351D01*
X31375102Y-44142556D01*
X31375102Y-44065428D01*
X31413666Y-43998633D01*
X31454752Y-43971182D01*
X31454536Y-43970808D01*
X31460248Y-43967509D01*
X31462013Y-43966331D01*
X31462989Y-43965926D01*
X31462993Y-43965925D01*
X31577007Y-43900099D01*
X31670099Y-43807007D01*
X31735925Y-43692993D01*
X31735926Y-43692987D01*
X31736329Y-43692017D01*
X31736975Y-43691174D01*
X31740808Y-43684536D01*
X31741681Y-43685040D01*
X31783275Y-43630823D01*
X31854530Y-43601301D01*
X31930999Y-43611361D01*
X31979350Y-43643664D01*
X32315961Y-43980276D01*
X32315962Y-43980275D01*
X32335742Y-43941456D01*
X32335748Y-43941441D01*
X32378695Y-43809263D01*
X32387499Y-43795706D01*
X32391682Y-43769297D01*
X32420000Y-43590503D01*
X32420000Y-43409496D01*
X32391682Y-43230702D01*
X32335745Y-43058549D01*
X32335743Y-43058544D01*
X32315962Y-43019723D01*
X32315961Y-43019723D01*
X31979351Y-43356332D01*
X31912556Y-43394896D01*
X31835428Y-43394896D01*
X31768633Y-43356332D01*
X31741181Y-43315248D01*
X31740808Y-43315464D01*
X31737513Y-43309757D01*
X31736335Y-43307994D01*
X31735928Y-43307012D01*
X31670100Y-43192995D01*
X31670098Y-43192992D01*
X31577007Y-43099901D01*
X31577004Y-43099899D01*
X31462994Y-43034075D01*
X31462001Y-43033664D01*
X31461147Y-43033009D01*
X31454536Y-43029192D01*
X31455038Y-43028321D01*
X31400812Y-42986711D01*
X31371297Y-42915454D01*
X31381364Y-42838985D01*
X31413659Y-42790652D01*
X31750275Y-42454036D01*
X31750273Y-42454035D01*
X31750274Y-42454035D01*
X31711449Y-42434253D01*
X31539293Y-42378317D01*
X31360503Y-42350000D01*
X31360498Y-42350000D01*
X31179501Y-42350000D01*
X31179497Y-42350000D01*
X31077328Y-42366181D01*
X31000699Y-42378317D01*
X30990593Y-42381558D01*
X30990089Y-42381765D01*
X30828561Y-42434248D01*
X30828555Y-42434250D01*
X30828555Y-42434251D01*
X30828548Y-42434254D01*
X30789723Y-42454036D01*
X30789723Y-42454037D01*
X31126334Y-42790648D01*
X31164898Y-42857443D01*
X31164898Y-42934571D01*
X31126334Y-43001366D01*
X31085248Y-43028819D01*
X31085464Y-43029192D01*
X31079775Y-43032476D01*
X31077998Y-43033664D01*
X31077007Y-43034074D01*
X30962995Y-43099899D01*
X30962992Y-43099901D01*
X30869901Y-43192992D01*
X30869899Y-43192995D01*
X30804074Y-43307007D01*
X30803664Y-43307998D01*
X30803011Y-43308847D01*
X30799192Y-43315464D01*
X30798320Y-43314960D01*
X30756709Y-43369187D01*
X30685452Y-43398701D01*
X30608984Y-43388632D01*
X30560648Y-43356334D01*
X30224037Y-43019723D01*
X30204253Y-43058549D01*
X30204250Y-43058559D01*
X30177267Y-43141603D01*
X30160529Y-43176699D01*
X30154999Y-43185216D01*
X30097686Y-43236829D01*
X30022244Y-43252871D01*
X29948889Y-43229044D01*
X29897276Y-43171731D01*
X29897248Y-43171676D01*
X29896717Y-43170633D01*
X29880499Y-43103032D01*
X29880499Y-42605135D01*
X29877667Y-42580717D01*
X29877585Y-42580010D01*
X29877584Y-42580006D01*
X29871355Y-42565898D01*
X29871354Y-42565897D01*
X29867645Y-42557496D01*
X29832206Y-42477235D01*
X29752764Y-42397793D01*
X29752761Y-42397791D01*
X29650001Y-42352418D01*
X29649992Y-42352415D01*
X29649978Y-42352412D01*
X29649508Y-42352359D01*
X29649175Y-42352320D01*
X29624865Y-42349500D01*
X29624860Y-42349500D01*
X27835135Y-42349500D01*
X27835133Y-42349500D01*
X27829912Y-42350105D01*
X27810011Y-42352413D01*
X27809999Y-42352417D01*
X27707237Y-42397791D01*
X27707235Y-42397793D01*
X27627793Y-42477234D01*
X27582403Y-42580033D01*
X27582256Y-42580717D01*
X27581742Y-42583029D01*
X27581599Y-42585512D01*
X27581691Y-42586071D01*
X27581570Y-42587291D01*
X27579500Y-42605135D01*
X25000000Y-42605135D01*
X25000000Y-34378700D01*
X26937000Y-34378700D01*
X26937000Y-34621298D01*
X26968657Y-34861764D01*
X26968800Y-34862622D01*
X26969677Y-34865579D01*
X26997367Y-34968918D01*
X27031446Y-35096100D01*
X27124276Y-35320212D01*
X27245564Y-35530289D01*
X27393235Y-35722738D01*
X27564762Y-35894265D01*
X27757211Y-36041936D01*
X27967288Y-36163224D01*
X28191400Y-36256054D01*
X28411548Y-36315043D01*
X28419436Y-36318011D01*
X28425706Y-36318836D01*
X28425711Y-36318838D01*
X28425716Y-36318838D01*
X28425717Y-36318838D01*
X28425718Y-36318839D01*
X28491100Y-36327446D01*
X28666212Y-36350500D01*
X28908788Y-36350500D01*
X29149289Y-36318838D01*
X29383600Y-36256054D01*
X29607712Y-36163224D01*
X29817789Y-36041936D01*
X30010238Y-35894265D01*
X30181765Y-35722738D01*
X30329436Y-35530289D01*
X30450724Y-35320212D01*
X30543554Y-35096100D01*
X30606338Y-34861789D01*
X30638000Y-34621288D01*
X30638000Y-34378712D01*
X30606338Y-34138211D01*
X30543554Y-33903900D01*
X30450724Y-33679788D01*
X30329436Y-33469711D01*
X30181765Y-33277262D01*
X30010238Y-33105735D01*
X29817789Y-32958064D01*
X29747763Y-32917634D01*
X29607714Y-32836776D01*
X29607714Y-32836777D01*
X29607703Y-32836771D01*
X29607698Y-32836769D01*
X29476433Y-32782398D01*
X29476432Y-32782398D01*
X29422407Y-32760020D01*
X29388490Y-32745971D01*
X29384437Y-32744121D01*
X29381438Y-32743366D01*
X29153080Y-32682177D01*
X29150123Y-32681300D01*
X29149264Y-32681157D01*
X28908798Y-32649500D01*
X28908793Y-32649500D01*
X28908788Y-32649500D01*
X28666212Y-32649500D01*
X28666206Y-32649500D01*
X28666200Y-32649500D01*
X28425725Y-32681158D01*
X28191392Y-32743948D01*
X27967275Y-32836781D01*
X27757214Y-32958061D01*
X27757211Y-32958064D01*
X27566543Y-33104367D01*
X27564925Y-33105570D01*
X27393240Y-33277255D01*
X27245565Y-33469707D01*
X27245564Y-33469709D01*
X27124281Y-33679775D01*
X27031448Y-33903892D01*
X26968658Y-34138225D01*
X26937000Y-34378700D01*
X25000000Y-34378700D01*
X25000000Y-30668616D01*
X25005076Y-30630056D01*
X25009221Y-30614585D01*
X25047783Y-30547789D01*
X25114575Y-30509223D01*
X25130056Y-30505076D01*
X25168616Y-30500000D01*
X61045500Y-30500000D01*
X61120000Y-30519962D01*
G37*
%TD.AperFunction*%
%TD*%
M02*
