M48
; DRILL file KiCad 10.0.5 date 2026-07-26T12:52:16
; FORMAT={-:-/ absolute / metric / decimal}
; #@! TF.CreationDate,2026-07-26T12:52:16-07:00
; #@! TF.GenerationSoftware,Kicad,Pcbnew,10.0.5
; #@! TF.FileFunction,Plated,1,2,PTH
FMAT,2
METRIC
; #@! TA.AperFunction,Plated,PTH,ViaDrill
T1C0.400
; #@! TA.AperFunction,Plated,PTH,ViaDrill
T2C0.600
; #@! TA.AperFunction,Plated,PTH,ComponentDrill
T3C1.000
; #@! TA.AperFunction,Plated,PTH,ComponentDrill
T4C1.100
%
G90
G05
T1
X77.0Y-77.0
X79.0Y-69.0
X80.0Y-79.0
X81.07Y-73.57
X82.0Y-80.5
X83.0Y-77.5
X84.5Y-69.5
X87.0Y-79.75
X87.5Y-72.5
X90.5Y-69.5
X92.0Y-57.5
X92.5Y-73.0
X93.5Y-80.0
X95.0Y-79.95
X97.5Y-67.0
X98.0Y-70.5
X102.0Y-82.0
X106.0Y-76.5
T2
X29.5Y-66.75
X29.5Y-69.25
X29.5Y-71.75
X29.5Y-74.25
X32.0Y-66.75
X32.0Y-69.25
X32.0Y-71.75
X32.0Y-74.25
X34.5Y-66.75
X34.5Y-69.25
X34.5Y-71.75
X34.5Y-74.25
X37.0Y-66.75
X37.0Y-69.25
X37.0Y-71.75
X37.0Y-74.25
X39.0Y-39.05
X39.0Y-45.55
X39.5Y-66.75
X39.5Y-69.25
X39.5Y-71.75
X39.5Y-74.25
X44.45Y-64.0
X44.5Y-39.05
X44.5Y-45.55
X47.0Y-66.0
X49.5Y-64.0
X50.0Y-39.05
X50.0Y-45.55
X71.0Y-76.45
X73.5Y-58.5
X73.5Y-60.0
X75.0Y-58.5
X75.0Y-60.0
X75.0Y-61.5
X76.0Y-62.5
X77.5Y-62.5
X82.5Y-63.5
X86.0Y-64.0
X88.5Y-65.5
X91.0Y-64.0
X92.5Y-62.5
X94.0Y-66.0
X109.0Y-37.05
X109.0Y-43.05
X109.0Y-49.05
X115.0Y-37.05
X115.0Y-43.05
X115.0Y-49.05
X121.0Y-37.05
X121.0Y-43.05
X125.0Y-47.5
X125.0Y-50.0
X127.5Y-47.5
X127.5Y-50.0
X130.0Y-47.5
X130.0Y-50.0
T3
X28.73Y-43.5
X31.27Y-43.5
X109.73Y-78.0
X111.442Y-54.5
X112.27Y-78.0
X113.983Y-54.5
T4
X79.4Y-45.96
X79.4Y-48.5
X79.4Y-51.04
X87.9Y-45.96
X87.9Y-48.5
X87.9Y-51.04
X98.0Y-40.5
X98.0Y-43.04
X98.0Y-45.58
M30
